/* XPM */
static char *mutant5[] = {
/* columns rows colors chars-per-pixel */
"64 64 27 1 ",
"  c #090909",
". c gray11",
"X c #202020",
"o c #2C2C2C",
"O c gray19",
"+ c #343434",
"@ c gray22",
"# c #044000",
"$ c #044C00",
"% c #400040",
"& c #580058",
"* c #6C0070",
"= c #484848",
"- c gray33",
"; c #646464",
": c gray44",
"> c #7C7C7C",
", c #840084",
"< c #980088",
"1 c #9C009C",
"2 c #C800CC",
"3 c magenta",
"4 c gray55",
"5 c #989898",
"6 c gray66",
"7 c #B4B4B4",
"8 c gainsboro",
/* pixels */
"3333333333333333333333333333333333333333333333333333333333333333",
"3333333333333333333333333333333333333333333333333333333333333333",
"3333333333333333333333333333333333333333333333333333333333333333",
"3333333333333333333333333333333333333333333333333333333333333333",
"3333333333333333333333333333333333333333333333333333333333333333",
"3333333333333333333333333333333333333333333333333333333333333333",
"3333333333333333333333333333333333333333333333333333333333333333",
"3333333333333333333333333333333333333333333333333333333333333333",
"3333333333333333333333333333333333333333333333333333333333333333",
"3333333333333333333333333333333333333333333333333333333333333333",
"3333333333333333333333333333333333333333333333333333333333333333",
"3333333333333333333333333333333333333333333333333333333333333333",
"3333333333333333333333333333333333333333333333333333333333333333",
"3333333333333333333333333333333333333333333333333333333333333333",
"3333333333333333333333333333333333333333333333333333333333333333",
"3333333333333333333333333333333333333333333333333333333333333333",
"3333333333333333333333333333333333333333333333333333333333333333",
"3333333333333333333333333333333333333333333333333333333333333333",
"3333333333333333333333333333333333333333333333333333333333333333",
"3333333333333333333333333333333333333333333333333333333333333333",
"3333333333333333333333333333333333333333333333333333333333333333",
"3333333333333333333333333333333333333333333333333333333333333333",
"3333333333333333333333333333333333333333333333333333333333333333",
"3333333333333333333333333333333333333333333333333333333333333333",
"3333333333333333333333333333333333333333333333333333333333333333",
"3333333333333333333333333333333333333333333333333333333333333333",
"3333333333333333333333333333333333333333333333333333333333333333",
"3333333333333333333333333333333333333333333333333333333333333333",
"3333333333333333333333333333333333333333333333333333333333333333",
"3333333333333333333333333333333333333333333333333333333333333333",
"3333333333333333333333333333333333333333333333333333333333333333",
"3333333333333333333333333333333333333333333333333333333333333333",
"3333333333333333333333333333333333333333333333333333333333333333",
"3333333333333333333333333333333333333333333333333333333333333333",
"3333333333333333333333333333333333333333333333333333333333333333",
"3333333333333333333333333333333333333333333333333333333333333333",
"3333333333333333333333333333333333333333333333333333333333333333",
"3333333333333333333333333333333333333333333333333333333333333333",
"3333333333333333333333333333333333333333333333333333333333333333",
"3333333333333333333333333333333333333333333333333333333333333333",
"3333333333333333333333333333333333333333333333333333333333333333",
"3333333333333333333333333333333333333333333333333333333333333333",
"3333333333333333333333333333333333333333333333333333333333333333",
"3333333333333333333333333333333333333333333333333333333333333333",
"3333333333333333333333333333333333333333333333333333333333333333",
"3333333333333333333333333333333333333333333333333333333333333333",
"3333333333333333333333333333333333333333333333333333333333333333",
"3333333333333333333333333333333333333333333333333333333333333333",
"3333333333333333333333333333333333333333333333333333333333333333",
"3333333333333333333333333333333333333333333333333333333333333333",
"3333333333333333333333333333333333333333333333333333333333333333",
"33333333333333333333333333333=288186=3,3333333333333333333333333",
"3333333333333333333333333333$@1====;5=,3333333333333333333333333",
"3333333333333333333333333$*,1=@7=@=@=@+*+33333333333333333333333",
"3333333333333333333333$X#$<.....X.o#######3333333333333333333333",
"333333333333333333$$$$$%%,###### o#$$$$$$##X+o333333333333333333",
"3333333333333484o###X%%@X#$$$$$O ### .o###oX##ooo333333333333333",
"33333333333364;;$$##@@  XXX#$#ooo ooo  .XXoooo#o-533333333333333",
"3333333333338;--XXXX@     X $#   oXXX   XXooXo++:843333333333333",
"3333333333334-333333        ##    oX     XX%%&oo-;>-333333333333",
"33333333333333333333        oo    o      %%%&&&3333-333333333333",
"333333333333333333333       oo    X   33333333333333333333333333",
"3333333333333333333333     3333    33333333333333333333333333333",
"3333333333333333333333333333333333333333333333333333333333333333"
};
