/* XPM */
static char *mutant3[] = {
/* columns rows colors chars-per-pixel */
"64 64 28 1 ",
"  c #090909",
". c gray11",
"X c #28200C",
"o c #202020",
"O c #2C2C2C",
"+ c gray19",
"@ c #343434",
"# c gray22",
"$ c #044000",
"% c #044C00",
"& c #400040",
"* c #580058",
"= c #6C0070",
"- c #484848",
"; c gray33",
": c #646464",
"> c gray44",
", c #7C7C7C",
"< c #840084",
"1 c #9C009C",
"2 c magenta",
"3 c gray55",
"4 c #989898",
"5 c gray66",
"6 c #B4B4B4",
"7 c #C0C0C0",
"8 c gainsboro",
"9 c #ECECEC",
/* pixels */
"2222222222222222222222222222222222222222222222222222222222222222",
"2222222222222222222222222222222222222222222222222222222222222222",
"2222222222222222222222222222222222222222222222222222222222222222",
"2222222222222222222222222222222222222222222222222222222222222222",
"2222222222222222222222222222222222222222222222222222222222222222",
"2222222222222222222222222222222222222222222222222222222222222222",
"2222222222222222222222222222222222222222222222222222222222222222",
"2222222222222222222222222222222222222222222222222222222222222222",
"2222222222222222222222222222222222222222222222222222222222222222",
"2222222222222222222222222222222222222222222222222222222222222222",
"2222222222222222222222222222222222222222222222222222222222222222",
"2222222222222222222222222222222222222222222222222222222222222222",
"2222222222222222222222222222222222222222222222222222222222222222",
"2222222222222222222222222222222222222222222222222222222222222222",
"2222222222222222222222222222222222222222222222222222222222222222",
"2222222222222222222222222222222222222222222222222222222222222222",
"2222222222222222222222222222222222222222222222222222222222222222",
"2222222222222222222222222222222222222222222222222222222222222222",
"2222222222222222222222222222222222222222222222222222222222222222",
"2222222222222222222222222222222222222222222222222222222222222222",
"2222222222222222222222222222222222222222222222222222222222222222",
"2222222222222222222222222222222222222222222222222222222222222222",
"2222222222222222222222222222222222222222222222222222222222222222",
"2222222222222222222222222222222222222222222222222222222222222222",
"2222222222222222222222222222222222222222222222222222222222222222",
"2222222222222222222222222222222222222222222222222222222222222222",
"2222222222222222222222222222222222222222222222222222222222222222",
"2222222222222222222222222222222222222222222222222222222222222222",
"2222222222222222222222222222222222222222222222222222222222222222",
"2222222222222222222222222222222222222222222222222222222222222222",
"22222222222222222222222222222:8368:22222222222222222222222222222",
"2222222222222222222222222222O7,3:,7 2222222222222222222222222222",
"2222222222222222222222222222-586385-2222222222222222222222222222",
"2222222222222222222222<2<222,768867,2222222222222222222222222222",
"22222222222222222<2222222222o455554o222<222222222222222222222222",
"222222222222222222222222<222o>;;%-,o2<22122<22222222222222222222",
"222222222222222222<22=2122-%%%%%%-4>--<222=22<222222222222222222",
"22222222222222222222%%%%%%<%%#<--4,>;<O@OO@O22222222222222222222",
"222222222222223:%%$$$%%$$<%<%-::;-#-#%@=@@O@@OOOO222222222222222",
"2222222222225333OOOOO$$O<$=%%-#6-###&*%@$@OO@@OO;73>222222222222",
"2222222222228:::OOOooOOoOO$*=#396 >&*<O+OOXOOO@@>:,;222222222222",
"2222222222223:;;ooooooooooO=*:36: O&&ooo<o2ooOOO;:,;222222222222",
"22222222222222222222222<2o<**::;;-#&&&=2222222222222222222222222",
"2222222222222222222222222oo&&---#o&&o. 2222222222222222222222222",
"222222222222222222222<22<=*O$$###Oo < X2=*2222222222222222222222",
"22222222222222222222222<22O<OOOOOO*... *222222222222222222222222",
"2222222222222222222222222Xo%%%%   ......222222222222222222222222",
"222222222222222222222=22%%%%%$$+o.      222222222222222222222222",
"22222222222222222222222%$$$$%$O+o..OOOO 222222222222222222222222",
"22222222222222222222222    o$%OO ..oOOOoo22222222222222222222222",
"2222222222222222222222 ooooo $Oo ..ooOOOo22222222222222222222222",
"2222222222222222222222 ###oo $oo . oOOOOOO2222222222222222222222",
"2222222222222222222222#   o  OOo2   .oOOOo2222222222222222222222",
"2222222222222222222222       22222o  .oooo2222222222222222222222",
"2222222222222222222222      222222+ooooooo2222222222222222222222",
"22222222222222222222222     222222  ooooo 2222222222222222222222",
"22222222222222222222222     222222       22222222222222222222222",
"222222222222222222222222   2222222       22222222222222222222222",
"222222222222222222222222222222222       222222222222222222222222",
"222222222222222222222222222222222      2222222222222222222222222",
"222222222222222222222222222222222     22222222222222222222222222",
"222222222222222222222222222222222     22222222222222222222222222",
"2222222222222222222222222222222222   222222222222222222222222222",
"2222222222222222222222222222222222222222222222222222222222222222"
};
