/* XPM */
static char *mutant4[] = {
/* columns rows colors chars-per-pixel */
"64 64 30 1 ",
"  c #090909",
". c gray11",
"X c #28200C",
"o c #202020",
"O c #2C2C2C",
"+ c gray19",
"@ c #343434",
"# c gray22",
"$ c #044000",
"% c #044C00",
"& c #400040",
"* c #580058",
"= c #6C0070",
"- c #484848",
"; c gray33",
": c #646464",
"> c gray44",
", c #7C7C7C",
"< c #840084",
"1 c #980088",
"2 c #9C009C",
"3 c #C800CC",
"4 c magenta",
"5 c gray55",
"6 c #989898",
"7 c gray66",
"8 c #B4B4B4",
"9 c #C0C0C0",
"0 c gainsboro",
"q c #ECECEC",
/* pixels */
"4444444444444444444444444444444444444444444444444444444444444444",
"4444444444444444444444444444444444444444444444444444444444444444",
"4444444444444444444444444444444444444444444444444444444444444444",
"4444444444444444444444444444444444444444444444444444444444444444",
"4444444444444444444444444444444444444444444444444444444444444444",
"4444444444444444444444444444444444444444444444444444444444444444",
"4444444444444444444444444444444444444444444444444444444444444444",
"4444444444444444444444444444444444444444444444444444444444444444",
"4444444444444444444444444444444444444444444444444444444444444444",
"4444444444444444444444444444444444444444444444444444444444444444",
"4444444444444444444444444444444444444444444444444444444444444444",
"4444444444444444444444444444444444444444444444444444444444444444",
"4444444444444444444444444444444444444444444444444444444444444444",
"4444444444444444444444444444444444444444444444444444444444444444",
"4444444444444444444444444444444444444444444444444444444444444444",
"4444444444444444444444444444444444444444444444444444444444444444",
"4444444444444444444444444444444444444444444444444444444444444444",
"4444444444444444444444444444444444444444444444444444444444444444",
"4444444444444444444444444444444444444444444444444444444444444444",
"4444444444444444444444444444444444444444444444444444444444444444",
"4444444444444444444444444444444444444444444444444444444444444444",
"4444444444444444444444444444444444444444444444444444444444444444",
"4444444444444444444444444444444444444444444444444444444444444444",
"4444444444444444444444444444444444444444444444444444444444444444",
"4444444444444444444444444444444444444444444444444444444444444444",
"4444444444444444444444444444444444444444444444444444444444444444",
"4444444444444444444444444444444444444444444444444444444444444444",
"4444444444444444444444444444444444444444444444444444444444444444",
"4444444444444444444444444444444444444444444444444444444444444444",
"4444444444444444444444444444444444444444444444444444444444444444",
"4444444444444444444444444444444444444444444444444444444444444444",
"4444444444444444444444444444444444444444444444444444444444444444",
"4444444444444444444444444444444444444444444444444444444444444444",
"4444444444444444444444444444444444444444444444444444444444444444",
"4444444444444444444444444444444444444444444444444444444444444444",
"4444444444444444444444444444443444444444444444444444444444444444",
"4444444444444444444444444444444444444444444444444444444444444444",
"444444444444444444444444444=4,,00,,43444444444444444444444444444",
"444444444444444444444444<444-300207-4444444444444444444444444444",
"4444444444444444444444444443,925579,444<444444444444444444444444",
"444444444444444444444444<44=3>;;%-,o4<43244444444444444444444444",
"444444444444444444<44=4244-=%#2----:6-<444=44<444444444444444444",
"444444444444444444444%%%%%<%%-::,,6,>;O@OO@444444444444444444444",
"444444444444444444$$$%%$$<%<2-#8-#-#-#@=@@O@@O444444444444444444",
"444444444444444:%%$$$$$O<$=2=#5q8 >&*<%@$@OO@@OOO444444444444444",
"4444444444444505O$OooOOoOO$*=:;;: O&&oO+OOXOOOOO;644444444444444",
"44444444444475::$OoooooOooO<OOOOOO*... *oooooO@@>054444444444444",
"4444444444440:;;oo44444<1X$%%%%   ......444444OO;:,;444444444444",
"4444444444445;4444444###o%%%$$$+o.  OOO o444444444,;444444444444",
"444444444444;4444444#   ooo$$$O+o..OOOOOoo444444444;444444444444",
"44444444444444444444      o %%OO ...ooOOOOo444444444444444444444",
"44444444444444444444        OOOo .ooooOOOOOO44444444444444444444",
"44444444444444444444        OOoo .    .oOOOo44444444444444444444",
"444444444444444444444       OO4&&    oo.oooo44444444444444444444",
"444444444444444444444     44444*&44o ooooooo44444444444444444444",
"4444444444444444444444   444444=44    ooooo444444444444444444444",
"444444444444444444444444444444444         4444444444444444444444",
"444444444444444444444444444444444        44444444444444444444444",
"44444444444444444444444444444444       4444444444444444444444444",
"44444444444444444444444444444444      44444444444444444444444444",
"44444444444444444444444444444444     444444444444444444444444444",
"444444444444444444444444444444444   4444444444444444444444444444",
"4444444444444444444444444444444444444444444444444444444444444444",
"4444444444444444444444444444444444444444444444444444444444444444"
};
