/* XPM */
static char *mutant3[] = {
/* columns rows colors chars-per-pixel */
"64 64 28 1 ",
"  c #090909",
". c #28200C",
"X c #202020",
"o c #282828",
"O c #2C2C2C",
"+ c gray19",
"@ c #343434",
"# c gray22",
"$ c #700000",
"% c #044000",
"& c #044C00",
"* c #484848",
"= c gray33",
"- c #646464",
"; c gray44",
": c #7C7C7C",
"> c #B00000",
", c #EC0000",
"< c #A0643C",
"1 c #980088",
"2 c magenta",
"3 c gray55",
"4 c #989898",
"5 c gray66",
"6 c #B4B4B4",
"7 c #C0C0C0",
"8 c gainsboro",
"9 c #ECECEC",
/* pixels */
"2222222222222222222222222222222222222222222222222222222222222222",
"2222222222222222222222222222222222222222222222222222222222222222",
"2222222222222222222222222222222222222222222222222222222222222222",
"2222222222222222222222222222222222222222222222222222222222222222",
"2222222222222222222222222222222222222222222222222222222222222222",
"2222222222222222222222222222222222222222222222222222222222222222",
"2222222222222222222222222222222222222222222222222222222222222222",
"2222222222222222222222222222222222222222222222222222222222222222",
"2222222222222222222229922222222222222222222222222222222222222222",
"2222222222222222222229522222222222222222222222222222222222222222",
"2222222222222222222229522222222222222222222222222222222222222222",
"2222222222222222222229522222222222222222222222222222222222222222",
"2222222222222222222229522222222222222222222222222222222222222222",
"2222222222222222222229522222222222222222222222222222222222222222",
"2222222222222222222225932222222222222222222222222222222222222222",
"2222222222222222222225332222222222222222222222222222222222222222",
"222222222222222222222553%222222222222222222222222222222222222222",
"222222222222222222222&<OO222222222222222222222222222222222222222",
"222222222222222222222&%OO222XXXXXXX 2222222222222222222222222222",
"222222222222222222222&%OO%22O###### 2222222222222222222222222222",
"222222222222222222222&&%O%22X-6644-X2222222222222222222222222222",
"2222222222222222222222&&OO22*783687*2222222222222222222222222222",
"2222222222222222222222&%OO%2:5,-*>5:2222222222222222222222222222",
"2222222222222222222222&%OX%2:786387:2222222222222222222222222222",
"2222222222222222222222&OXOO%146556422222222222222222222222222222",
"2222222222222222222222&%%&O%%46996:22222222222222222222222222222",
"22222222222222222222222&&%O%%-6776=O2222222222222222222222222222",
"22222222222222222222222&&&%%%46996:%%222222222222222222222222222",
"222222222222222222222222&&%&&-6776=O%%22222222222222222222222222",
"222222222222222222222222&&&&&#====OO@%OO222222222222222222222222",
"2222222222222222222222222&&&&%O@XOOO@%%%O22222222222222222222222",
"2222222222222222222222222&&%&&%@X@@@@%&&OO2222222222222222222222",
"2222222222222222222222222O%%%%%*4*$%$&%&&%%222222222222222222222",
"22222222222222222222222222O%%%%;X;%%&@O%&&%O22222222222222222222",
"22222222222222222222222222%@@@@*##O@@@O%&&&%O2222222222222222222",
"22222222222222222222222222&OOO39 ;XO@O..%&%%O2222222222222222222",
"22222222222222222222222222&OOO3- OXXXX@.%%OO%O222222222222222222",
"22222222222222222222222222&OOO3-=#XXXX.22O%&%O222222222222222222",
"22222222222222222222222222%%OO-**#XXXX 222%&%O222222222222222222",
"2222222222222222222222222&&%&%O  XXXXX X22%%&O222222222222222222",
"2222222222222222222222222&&%%%%%OOOXOXXX222&&%O22222222222222222",
"222222222222222222222222%%%%%%%%XOOOXOXX222%%%O22222222222222222",
"2222222222222222222222222@@@@@%OXOOOO+XX222%%%O22222222222222222",
"2222222222222222222222222&&&@OO  OOXXXXX222294322222222222222222",
"222222222222222222222222&&&&&OX  O+%%%XX222293-22222222222222222",
"222222222222222222222222&&&&%OX  O%&&&%XX22294-22222222222222222",
"222222222222222222222222&&&&%OX X+&&&&&%X22294222222222222222222",
"222222222222222222222222&&&&%OX22O%&&&&%X22294222222222222222222",
"22222222222222222222222&&&&%%O 22O%%&&&%X222:4222222222222222222",
"22222222222222222222222&&&%O%X222O+%&&&&%X222:222222222222222222",
"22222222222222222222222&&&&&OX2222%&&&&&%X2222222222222222222222",
"2222222222222222222222&&%%%&OX22222&&&&&&O2222222222222222222222",
"2222222222222222222222&%%%%&O.22222.&&%%&%O222222222222222222222",
"2222222222222222222222#%%%%OX222222+%&%%%&X222222222222222222222",
"2222222222222222222222OOOOOXX2222222+ooooXX222222222222222222222",
"2222222222222222222222##XXX 22222222XXXXX  222222222222222222222",
"222222222222222222222####X  22222222X##OX  222222222222222222222",
"222222222222222222222####  2222222222 #OX X222222222222222222222",
"222222222222222222222##OO  2222222222X    2222222222222222222222",
"222222222222222222222OXX  222222222222XX   222222222222222222222",
"22222222222222222222#OO  X22222222222 ##XX 222222222222222222222",
"22222222222222222222####O 22222222222 ##OOX222222222222222222222",
"2222222222222222222X####O2222222222222###OOX22222222222222222222",
"2222222222222222222XOOOX 2222222222222 XXXXX22222222222222222222"
};
