/* XPM */
static char *table_lamp[] = {
/* columns rows colors chars-per-pixel */
"64 64 63 1 ",
"  c black",
". c #382C14",
"X c #202020",
"o c gray22",
"O c #403018",
"+ c #483818",
"@ c #543C1C",
"# c #044C00",
"$ c #045800",
"% c #046400",
"& c #047000",
"* c #047C00",
"= c #5C4020",
"- c #6C4824",
"; c #744C28",
": c #484848",
"> c gray33",
", c #646464",
"< c gray44",
"1 c #7C7C7C",
"2 c #880000",
"3 c #FC0000",
"4 c #9C4C00",
"5 c #B45400",
"6 c #80502C",
"7 c #885830",
"8 c #905C34",
"9 c #9C6038",
"0 c #A0643C",
"q c #CC6000",
"w c #E46C00",
"e c #FC7800",
"r c #A86840",
"t c #B47044",
"y c #BC7848",
"u c #FC5C5C",
"i c #C87C4C",
"p c #048800",
"a c #049800",
"s c #04A400",
"d c #00A800",
"f c #04B000",
"g c #04BC00",
"h c #04C800",
"j c #00E000",
"k c #00EC00",
"l c #00FC00",
"z c #FC8820",
"x c #FC9840",
"c c #FCA85C",
"v c #80FC7C",
"b c #FCFC54",
"n c magenta",
"m c gray55",
"M c #989898",
"N c #BCFCB8",
"B c #FCFC9C",
"V c #FCFCB8",
"C c #D0D0D0",
"Z c gainsboro",
"A c #D8FCD8",
"S c #ECECEC",
"D c gray99",
/* pixels */
"nnnnnnnnnnnnnnnnnnnnnnnnnnnnnnn, ,nnnnnnnnnnnnnnnnnnnnnnnnnnnnnn",
"nnnnnnnnnnnnnnnnnnnnnnnnnnnnnnn1m1nnnnnnnnnnnnnnnnnnnnnnnnnnnnnn",
"nnnnnnnnnnnnnnnnnnnnnnnnnnnnnnn#%#nnnnnnnnnnnnnnnnnnnnnnnnnnnnnn",
"nnnnnnnnnnnnnnnnnnnnnnnnnnnn%&***&&%$nnnnnnnnnnnnnnnnnnnnnnnnnnn",
"nnnnnnnnnnnnnnnnnnnnnnnnnn%pafhhfaap*%$nnnnnnnnnnnnnnnnnnnnnnnnn",
"nnnnnnnnnnnnnnnnnnnnnnnnn%sgkkkkjhdap*%$nnnnnnnnnnnnnnnnnnnnnnnn",
"nnnnnnnnnnnnnnnnnnnnnnnn%fhjlllljjhfsp*%$nnnnnnnnnnnnnnnnnnnnnnn",
"nnnnnnnnnnnnnnnnnnnnnnn%sjlvNAVDbBVANvlja%nnnnnnnnnnnnnnnnnnnnnn",
"nnnnnnnnnnnnnnnnnnnnnnn*akvvvNAVVVANvvvka*nnnnnnnnnnnnnnnnnnnnnn",
"nnnnnnnnnnnnnnnnnnnnnnnnnahjlvvvvvvvljhannnnnnnnnnnnnnnnnnnnnnnn",
"nnnnnnnnnnnnnnnnnnnnnnnnnnnnnnnnnnnnnnnnnnnnnnnnnnnnnnnnnnnnnnnn",
"nnnnnnnnnnnnnnnnnnnnnnnnnnnnnnnnnnnnnnnnnnnnnnnnnnnnnnnnnnnnnnnn",
"nnnnnnnnnnnnnnnnnnnnnnnnnnnnnnnnnnnnnnnnnnnnnnnnnnnnnnnnnnnnnnnn",
"nnnnnnnnnnnnnnnnnnnnnnnnnnnnnnnnnnnnnnnnnnnnnnnnnnnnnnnnnnnnnnnn",
"nnnnnnnnnnnnnnnnnnnnnnnnnnnnnnnnnnnnnnnnnnnnnnnnnnnnnnnnnnnnnnnn",
"nnnnnnnnnnnnnnnnnnnnnnnnnnnnnnnnnnnnnnnnnnnnnnnnnnnnnnnnnnnnnnnn",
"nnnnnnnnnnnnnnnnnnnnnnnnnnnnnnnnnnnnnnnnnnnnnnnnnnnnnnnnnnnnnnnn",
"nnnnnnnnnnnnnnnnnnnnnnnnnnnnnnnnnnnnnnnnnnnnnnnnnnnnnnnnnnnnnnnn",
"nnnnnnnnnnnnnnnnnnnnnnnnnnnnnnnnnnnnnnnnnnnnnnnnnnnnnnnnnnnnnnnn",
"nnnnnnnnnnnnnnnnnnnnnnnnnnnnnnnnnnnnnnnnnnnnnnnnnnnnnnnnnnnnnnnn",
"nnnnnnnnnnnnnnnnnnnnnnnnnnnnnnnnnnnnnnnnnnnnnnnnnnnnnnnnnnnnnnnn",
"nnnnnnnnnnnnnnnnnnnnnnnnnnnnnnnnnnnnnnnnnnnnnnnnnnnnnnnnnnnnnnnn",
"nnnnnnnnnnnnnnnnnnnnnnnnnnnnnnnnnnnnnnnnnnnnnnnnnnnnnnnnnnnnnnnn",
"nnnnnnnnnnnnnnnnnnnnnnnnnnnnnnnnnnnnnnnnnnnnnnnnnnnnnnnnnnnnnnnn",
"nnnnnnnnnnnnnnnnnnnnnnnnnnnnnnnnnnnnnnnnnnnnnnnnnnnnnnnnnnnnnnnn",
"nnnnnnnnnnnnnnnnnnnnnnnnnnnnnnnnnnnnnnnnnnnnnnnnnnnnnnnnnnnnnnnn",
"nnnnnnnnnnnnnnnnnnnnnnnnnnnnnnnnnnnnnnnnnnnnnnnnnnnnnnnnnnnnnnnn",
"nnnnnnnnnnnnnnnnnnnnnnnnnnnnnnnnnnnnnnnnnnnnnnnnnnnnnnnnnnnnnnnn",
"nnnnnnnnnnnnnnnnnnnnnnnnnnnnnnnnnnnnnnnnnnnnnnnnnnnnnnnnnnnnnnnn",
"nnnnnnnnnnnnnnnnnnnnnnnnnnnnnnnnnnnnnnnnnnnnnnnnnnnnnnnnnnnnnnnn",
"nnnnnnnnnnnnnnnnnnnnnnnnnnnnnnnnnnnnnnnnnnnnnnnnnnnnnnnnnnnnnnnn",
"nnnnnnnnnnnnnnnnnnnnnnnnnnnnnnn3nnn3nnnnnnnnnnnnnnnnnnnnnnnnnnnn",
"nnnnnnnnnnnnnnnnnnnnnnnnnnnnnnn3nnn3nnnnnnnnnnnnnnnnnnnnnnnnnnnn",
"nnnnnnnnwqnnnnnnnwqnnnnnnnnnnnn3nnn3nnnnnnnw4nnnnnnnw4nnnnnnnnnn",
"nnnnnnnnw4nnnnnnnw4nnnnnnnnnnnn33nu2nnnnnnnw4nnnnnnnw4nnnnnnnnnn",
"nnnnnnnnw45555555q4nnnnnnnnnnnn32nu2nnnnnnnw45wwwwwww4nnnnnnnnnn",
"nnnnnnnnw4444444454nnnnnnnnnnnn3SZm2nnnnnnnw44qqqqqqw4nnnnnnnnnn",
"nnnnnnnnw4nnnnnnn54nnnnnnnnnnnnCCm::nnnnnnnw4nnnnnnnw4nnnnnnnnnn",
"nnnnnnnnw4nnnnnnweeeeeeeeeeeeeCSMm>:<eeeeeeeeeeeeeeww4nnnnnnnnnn",
"nnnnnnnnw4nnezxxxxxxxxxxxxxxxxxxxxxxxxxxxxxxxxxxxxxxzew4nnnnnnnn",
"nnnnnnnnw4nn5wwezxccccccccccccccccccccccccccccccxewq554;nnnnnnnn",
"nnnnnnnnw4nnnnqqqqqq555554444444444444444444444444444@nnnnnnnnnn",
"nnnnnnnnw4nnnnnnnw4444444444444444444444444444444nnn;@nnnnnnnnnn",
"nnnnnnnnw45555555q4nnnnnnnnnnnO-+++..nnnnnn;@;;;;;;;;@nnnnnnnnnn",
"nnnnnnnnw4444444454nnnnnnnnnnnn;;;@@nnnnnnn;@;;;;;;;;@nnnnnnnnnn",
"nnnnnnnnw4nnnnnnn54nnnnnnnnnnnnn==Onnnnnnnn;@nnnnnnn;@nnnnnnnnnn",
"nnnnnnnnw4nnnnnnnq4nnnnnnnnnnnnn7=Onnnnnnnn;@nnnnnnn;@nnnnnnnnnn",
"nnnnnnnnw4nnnnnnnw4nnnnnnnnnnnnn7=Onnnnnnnn;@nnnnnnn;@nnnnnnnnnn",
"nnnnnnnnwwwwwwwwwwwwqqqqnnnnnnnn7=Onn5555888888888888@nnnnnnnnnn",
"nnnnnnnnwwwwwwwq555555555nnnnnnn0=Onwqq5555558888888;@nnnnnnnnnn",
"nnnnnnnnwq5555w----------nnnnnnn0;Onw444444444;;;;;;;@nnnnnnnnnn",
"nnnnnnnnwq-nnnw-n7+nnnn4-nnnnnnn0;Onw4nnnnn7@4;nnnn4;@nnnnnnnnnn",
"nnnnnnnnw5-nnnw-n7+nnnn4-nnnnnnnt;+nw4nnnnn7@4;nnnn4;@nnnnnnnnnn",
"nnnnnnnnw5-nnnw-n7+nnnn4-nnnnnnnt;+nw4nnnnn7@4;nnnn4;@nnnnnnnnnn",
"nnnnnnnnw5-nnnw-n7+nnnn4-nnnnnnnt;+nw4nnnnn7@4;nnnn4;@nnnnnnnnnn",
"nnnnnnnqw4-nnnw-n7+nnnn4-nnnnnnnt;+nw4nnnnn7@4;nnnn5;@9nnnnnnnnn",
"nnnnnnnqwwwwwww----------nnnnnniy8-=w444444444;;;;;;;@9nnnnnnnnn",
"nnnnnnnqq-7nnnw-87+nnnn4-n9iii989-==-----nn7@4;nnnn5;@7nnnnnnnnn",
"nnnnnnnwq-7,,>w-87+>>>>49ii986--ir6+=====@@7@4;>>>>>;@7>>>>>,nnn",
"nnnnnnnw5-oooow-oooooooii96-++++yr6+++++===@@4;ooooo=@@ooooo>,nn",
"nnnnnnnnnn,,>>5-ooootii96-@6oo::r7-::>:+++===@@XXXXXXXXXXo>,,nnn",
"nnnnnnnnnnnnnnnnnnnn96O-@6>>:ooyy87-XXXXX++=O=@         o>,,nnnn",
"nnnnnnnnnnnnnnnnnnnn6--+6XXXXXX9---OXXXXXX++=@@XXXXXXXXXXo:>,nnn",
"nnnnnnnnnnnnnnnnnnnnnnnnnnnnnnn6+++Oooooooooooooooooooo:>>,,nnnn"
};
