/* XPM */
static char *table[] = {
/* columns rows colors chars-per-pixel */
"64 64 40 1 ",
"  c black",
". c #382C14",
"X c #202020",
"o c gray22",
"O c #403018",
"+ c #483818",
"@ c #543C1C",
"# c #5C4020",
"$ c #6C4824",
"% c #744C28",
"& c #484848",
"* c gray33",
"= c #646464",
"- c gray44",
"; c #880000",
": c #FC0000",
"> c #9C4C00",
", c #B45400",
"< c #80502C",
"1 c #885830",
"2 c #905C34",
"3 c #9C6038",
"4 c #A0643C",
"5 c #CC6000",
"6 c #E46C00",
"7 c #FC7800",
"8 c #A86840",
"9 c #B47044",
"0 c #BC7848",
"q c #FC5C5C",
"w c #C87C4C",
"e c #FC8820",
"r c #FC9840",
"t c #FCA85C",
"y c magenta",
"u c gray55",
"i c #989898",
"p c #D0D0D0",
"a c gainsboro",
"s c #ECECEC",
/* pixels */
"yyyyyyyyyyyyyyyyyyyyyyyyyyyyyyyyyyyyyyyyyyyyyyyyyyyyyyyyyyyyyyyy",
"yyyyyyyyyyyyyyyyyyyyyyyyyyyyyyyyyyyyyyyyyyyyyyyyyyyyyyyyyyyyyyyy",
"yyyyyyyyyyyyyyyyyyyyyyyyyyyyyyyyyyyyyyyyyyyyyyyyyyyyyyyyyyyyyyyy",
"yyyyyyyyyyyyyyyyyyyyyyyyyyyyyyyyyyyyyyyyyyyyyyyyyyyyyyyyyyyyyyyy",
"yyyyyyyyyyyyyyyyyyyyyyyyyyyyyyyyyyyyyyyyyyyyyyyyyyyyyyyyyyyyyyyy",
"yyyyyyyyyyyyyyyyyyyyyyyyyyyyyyyyyyyyyyyyyyyyyyyyyyyyyyyyyyyyyyyy",
"yyyyyyyyyyyyyyyyyyyyyyyyyyyyyyyyyyyyyyyyyyyyyyyyyyyyyyyyyyyyyyyy",
"yyyyyyyyyyyyyyyyyyyyyyyyyyyyyyyyyyyyyyyyyyyyyyyyyyyyyyyyyyyyyyyy",
"yyyyyyyyyyyyyyyyyyyyyyyyyyyyyyyyyyyyyyyyyyyyyyyyyyyyyyyyyyyyyyyy",
"yyyyyyyyyyyyyyyyyyyyyyyyyyyyyyyyyyyyyyyyyyyyyyyyyyyyyyyyyyyyyyyy",
"yyyyyyyyyyyyyyyyyyyyyyyyyyyyyyyyyyyyyyyyyyyyyyyyyyyyyyyyyyyyyyyy",
"yyyyyyyyyyyyyyyyyyyyyyyyyyyyyyyyyyyyyyyyyyyyyyyyyyyyyyyyyyyyyyyy",
"yyyyyyyyyyyyyyyyyyyyyyyyyyyyyyyyyyyyyyyyyyyyyyyyyyyyyyyyyyyyyyyy",
"yyyyyyyyyyyyyyyyyyyyyyyyyyyyyyyyyyyyyyyyyyyyyyyyyyyyyyyyyyyyyyyy",
"yyyyyyyyyyyyyyyyyyyyyyyyyyyyyyyyyyyyyyyyyyyyyyyyyyyyyyyyyyyyyyyy",
"yyyyyyyyyyyyyyyyyyyyyyyyyyyyyyyyyyyyyyyyyyyyyyyyyyyyyyyyyyyyyyyy",
"yyyyyyyyyyyyyyyyyyyyyyyyyyyyyyyyyyyyyyyyyyyyyyyyyyyyyyyyyyyyyyyy",
"yyyyyyyyyyyyyyyyyyyyyyyyyyyyyyyyyyyyyyyyyyyyyyyyyyyyyyyyyyyyyyyy",
"yyyyyyyyyyyyyyyyyyyyyyyyyyyyyyyyyyyyyyyyyyyyyyyyyyyyyyyyyyyyyyyy",
"yyyyyyyyyyyyyyyyyyyyyyyyyyyyyyyyyyyyyyyyyyyyyyyyyyyyyyyyyyyyyyyy",
"yyyyyyyyyyyyyyyyyyyyyyyyyyyyyyyyyyyyyyyyyyyyyyyyyyyyyyyyyyyyyyyy",
"yyyyyyyyyyyyyyyyyyyyyyyyyyyyyyyyyyyyyyyyyyyyyyyyyyyyyyyyyyyyyyyy",
"yyyyyyyyyyyyyyyyyyyyyyyyyyyyyyyyyyyyyyyyyyyyyyyyyyyyyyyyyyyyyyyy",
"yyyyyyyyyyyyyyyyyyyyyyyyyyyyyyyyyyyyyyyyyyyyyyyyyyyyyyyyyyyyyyyy",
"yyyyyyyyyyyyyyyyyyyyyyyyyyyyyyyyyyyyyyyyyyyyyyyyyyyyyyyyyyyyyyyy",
"yyyyyyyyyyyyyyyyyyyyyyyyyyyyyyyyyyyyyyyyyyyyyyyyyyyyyyyyyyyyyyyy",
"yyyyyyyyyyyyyyyyyyyyyyyyyyyyyyyyyyyyyyyyyyyyyyyyyyyyyyyyyyyyyyyy",
"yyyyyyyyyyyyyyyyyyyyyyyyyyyyyyyyyyyyyyyyyyyyyyyyyyyyyyyyyyyyyyyy",
"yyyyyyyyyyyyyyyyyyyyyyyyyyyyyyyyyyyyyyyyyyyyyyyyyyyyyyyyyyyyyyyy",
"yyyyyyyyyyyyyyyyyyyyyyyyyyyyyyyyyyyyyyyyyyyyyyyyyyyyyyyyyyyyyyyy",
"yyyyyyyyyyyyyyyyyyyyyyyyyyyyyyyyyyyyyyyyyyyyyyyyyyyyyyyyyyyyyyyy",
"yyyyyyyyyyyyyyyyyyyyyyyyyyyyyyy:yyy:yyyyyyyyyyyyyyyyyyyyyyyyyyyy",
"yyyyyyyyyyyyyyyyyyyyyyyyyyyyyyy:yyy:yyyyyyyyyyyyyyyyyyyyyyyyyyyy",
"yyyyyyyy65yyyyyyy65yyyyyyyyyyyy:yyy:yyyyyyy6>yyyyyyy6>yyyyyyyyyy",
"yyyyyyyy6>yyyyyyy6>yyyyyyyyyyyy::yq;yyyyyyy6>yyyyyyy6>yyyyyyyyyy",
"yyyyyyyy6>,,,,,,,5>yyyyyyyyyyyy:;yq;yyyyyyy6>,6666666>yyyyyyyyyy",
"yyyyyyyy6>>>>>>>>,>yyyyyyyyyyyy:sau;yyyyyyy6>>5555556>yyyyyyyyyy",
"yyyyyyyy6>yyyyyyy,>yyyyyyyyyyyyppu&&yyyyyyy6>yyyyyyy6>yyyyyyyyyy",
"yyyyyyyy6>yyyyyy67777777777777psiu*&-7777777777777766>yyyyyyyyyy",
"yyyyyyyy6>yy7errrrrrrrrrrrrrrrrrrrrrrrrrrrrrrrrrrrrre76>yyyyyyyy",
"yyyyyyyy6>yy,667erttttttttttttttttttttttttttttttr765,,>%yyyyyyyy",
"yyyyyyyy6>yyyy555555,,,,,>>>>>>>>>>>>>>>>>>>>>>>>>>>>@yyyyyyyyyy",
"yyyyyyyy6>yyyyyyy6>>>>>>>>>>>>>>>>>>>>>>>>>>>>>>>yyy%@yyyyyyyyyy",
"yyyyyyyy6>,,,,,,,5>yyyyyyyyyyyO$+++..yyyyyy%@%%%%%%%%@yyyyyyyyyy",
"yyyyyyyy6>>>>>>>>,>yyyyyyyyyyyy%%%@@yyyyyyy%@%%%%%%%%@yyyyyyyyyy",
"yyyyyyyy6>yyyyyyy,>yyyyyyyyyyyyy##Oyyyyyyyy%@yyyyyyy%@yyyyyyyyyy",
"yyyyyyyy6>yyyyyyy5>yyyyyyyyyyyyy1#Oyyyyyyyy%@yyyyyyy%@yyyyyyyyyy",
"yyyyyyyy6>yyyyyyy6>yyyyyyyyyyyyy1#Oyyyyyyyy%@yyyyyyy%@yyyyyyyyyy",
"yyyyyyyy6666666666665555yyyyyyyy1#Oyy,,,,222222222222@yyyyyyyyyy",
"yyyyyyyy66666665,,,,,,,,,yyyyyyy4#Oy655,,,,,,2222222%@yyyyyyyyyy",
"yyyyyyyy65,,,,6$$$$$$$$$$yyyyyyy4%Oy6>>>>>>>>>%%%%%%%@yyyyyyyyyy",
"yyyyyyyy65$yyy6$y1+yyyy>$yyyyyyy4%Oy6>yyyyy1@>%yyyy>%@yyyyyyyyyy",
"yyyyyyyy6,$yyy6$y1+yyyy>$yyyyyyy9%+y6>yyyyy1@>%yyyy>%@yyyyyyyyyy",
"yyyyyyyy6,$yyy6$y1+yyyy>$yyyyyyy9%+y6>yyyyy1@>%yyyy>%@yyyyyyyyyy",
"yyyyyyyy6,$yyy6$y1+yyyy>$yyyyyyy9%+y6>yyyyy1@>%yyyy>%@yyyyyyyyyy",
"yyyyyyy56>$yyy6$y1+yyyy>$yyyyyyy9%+y6>yyyyy1@>%yyyy,%@3yyyyyyyyy",
"yyyyyyy56666666$$$$$$$$$$yyyyyyw02$#6>>>>>>>>>%%%%%%%@3yyyyyyyyy",
"yyyyyyy55$1yyy6$21+yyyy>$y3www323$##$$$$$yy1@>%yyyy,%@1yyyyyyyyy",
"yyyyyyy65$1==*6$21+****>3ww32<$$w8<+#####@@1@>%*****%@1*****=yyy",
"yyyyyyy6,$oooo6$oooooooww3<$++++08<+++++###@@>%ooooo#@@ooooo*=yy",
"yyyyyyyyyy==**,$oooo9ww3<$@<oo&&81$&&*&+++###@@XXXXXXXXXXo*==yyy",
"yyyyyyyyyyyyyyyyyyyy3<O$@<**&oo0021$XXXXX++#O#@         o*==yyyy",
"yyyyyyyyyyyyyyyyyyyy<$$+<XXXXXX3$$$OXXXXXX++#@@XXXXXXXXXXo&*=yyy",
"yyyyyyyyyyyyyyyyyyyyyyyyyyyyyyy<+++Oooooooooooooooooooo&**==yyyy"
};
