/* XPM */
static char *ceil_bluestone[] = {
/* columns rows colors chars-per-pixel */
"64 64 92 1 ",
"  c black",
". c #202020",
"X c gray15",
"o c #2C2C2C",
"O c gray22",
"+ c #000040",
"@ c #00004C",
"# c #000058",
"$ c #000064",
"% c #000070",
"& c #00007C",
"* c #262672",
"= c #515151",
"- c gray33",
"; c #646464",
": c gray42",
"> c #767676",
", c #000088",
"< c #000098",
"1 c #0000A4",
"2 c #0000B0",
"3 c #0000BC",
"4 c #2626AB",
"5 c #58588B",
"6 c #58589B",
"7 c #6B6B83",
"8 c #6B6B90",
"9 c #6B6B9E",
"0 c #4242B2",
"q c #4242BC",
"w c #6B6BA5",
"e c #6B6BAD",
"r c #6B6BB7",
"t c #6B6BBF",
"y c #0000C8",
"u c #0000D4",
"i c #0000E0",
"p c #5858C1",
"a c #5858CA",
"s c #6B6BC7",
"d c #6B6BCF",
"f c #4040FC",
"g c #8D8D8D",
"h c gray61",
"j c #8D8DA7",
"k c #8D8DBD",
"l c #9C9CB2",
"z c #A2A2A2",
"x c gray72",
"c c #BCBCBC",
"v c #8D8DC5",
"b c #9C9CC0",
"n c #9C9CCC",
"m c #8D8DD8",
"M c #9C9CD2",
"N c #9C9CD7",
"B c #9C9CDD",
"V c #9C9CE3",
"C c #B8B8E1",
"Z c #B8B8EE",
"A c #C5C5C5",
"S c #C5C5D1",
"D c #C5C5D9",
"F c gray82",
"G c #D1D1D7",
"H c gray83",
"J c #D1D1DB",
"K c #D1D1DD",
"L c #D1D1DF",
"P c #DFDFDF",
"I c #C5C5E3",
"U c #C5C5E7",
"Y c #D1D1E1",
"T c #D1D1E3",
"R c #D1D1E6",
"E c #DDDDE2",
"W c #DDDDE6",
"Q c #DDDDEA",
"! c #DDDDEF",
"~ c #DDDDF7",
"^ c #EAEAEA",
"/ c #E9E9F0",
"( c #E9E9F1",
") c #E9E9F3",
"_ c #E9E9F4",
"` c #E9E9F5",
"' c #F4F4F4",
"] c gray96",
"[ c #F4F4F7",
"{ c #F4F4FA",
"} c #F4F4FB",
"| c white",
/* pixels */
"O%&&&&&&&&&&&&&&&&&&&%OO,,,,,,,,,,,,,,,,,,,,,,,,,,,,OO%&&&&&&&%o",
".111111111111111111111..3333333333333333333333333333..222222222.",
" 111,1&11<&<<&<<&1&%%# .3132&13<%%<,11,%,131,<1331<% .231<122<& ",
" 1<&,<<<&&1<1$<<&%&&%$ .331<<<%<#%##&11$%%$%%#%,,%$% .2211&<11# ",
" 1,1%yy<&&&<,,&$#&%##$ .                             .2123321&& ",
" 1,&1yy$&&&1<<<,%%&##+ .1111111111111111111...........23121&&$# ",
" 1<<22111<111<<%%$#$%$ .133321<<3<<2<<23311 .1111<<$..2<<1&,,$$ ",
" 11<1221<&$11<,,&$$#++ .123iy2131<<<22111<1 .1<<,<&$ .2<<1%,,,$ ",
" 1<&<11,<&<%%,,,%&&$#+ .12y3y<2113<<1&1&<1& .1<<<&&$ .231<11,,+ ",
" 1,,,1&&&11%#$$%$&&&#+ .1222<<<21111<,$&&&$ .11<&&## .3&&<11<#+ ",
" <&,1,,%<11%%$#$$$&&#+ .13222<<23311$$,&&$# .11<&1&# .3&31&<<#+ ",
" <,<&&1,$&#&$#$&+#++$+ .131122223221$$%1$$+ .1&,<&## .33&&$$&&+ ",
" <&<&$,,&$&$&$+%%+++$+ .1211<3<<1221<<&&##$ .1,,,%%$ .3&%$&$&&+ ",
" <<&&&%$##$&$%$++%+$#+ .12iy,,<<,&&&,<,&$$+ .11,,%%$ .3&&%####+ ",
" <&<$$%$&$++++++++++++ .13yy,,,11&,,&,%&$#+ .1&<1### .          ",
"                       .1311<,,111,,<$$&$#+ .111<1#$ ...........",
"132121111121111 2220MR)|!Un4,<1111&||||||||||||||n%$ .1111 33333",
"321<1321,11&1<& 22n||||||||_a1<111,||||||||||||||b%# .12,& 33123",
"32<<,11,&<<&&<< 2B|||||||||||t,&,,$||||||||||||||l$+ .122& 31222",
"21<22<<&&&<&&&& q||||||||||||(1&&$%||||||||||||||l#+ .1,&# 33322",
"1,<232&&<<&<#&& C|||||[F{|||||v&$#$|||||EGGFHRYKJj++ .1#$# 33222",
"11,<2u&<&&$$%&& `||||D* XA||||x    |||||:   .             .3311<",
"2,&,<1<&&<$%&##X|||||6# .;||||P....|||||>........22222222..311<<",
"21,<&<&<<&%&$&#:|||||#$ .2|||||2222|||||s2222<1..2y2y111< .32<<<",
"22<,2<<<<&&%###:|||||$# .2|||||3231|||||t333&1# .2y2yy1<, .33<<<",
"21,&,22$&<,,%#$:|||||#$ .2|||||i3ui|||||d1111&# .2yyyy1,& .32311",
"1<&,1221<&,,%#$:|||||#$ .2|||||i3iu|||||w1&&1## .221y1,1$ .33311",
"2<2<<121$&%%%##:|||||   .2BBNNVy11u|||||w%1&&## .2y1111,$ .33322",
"1,,11<11$%#$#++:|||||....2232221113|||||e&&###$ .2yy11,&% .31132",
"1<,111<&%$#$$##:|||||11..21132,,132|||||e,%%%## .2yy<<11# .31122",
"<,<,11&$$###$+$:|||||<, .23232,,111|||||QTJLLLGg.22y<<<1# .33<<&",
"<,,&,,&$$%&&$++:|||||,< .2331222<1&||||||||||||h.221,211$ .3,,<<",
"<,1<%&&%$%&&$#+:|||||%$ .231&12211&||||||||||||h.22y,22<$ .3,,&&",
"<1<,,&$$#@@%$#+:|||||,# .2113&11<&%||||||||||||h.21y1,<<# .33&&&",
"&<<,&&&&#@@##$+:|||||%$ .2&3&11&&%$||||||||||||h.2y11<#%$ .311<<",
"&,,&%&&&##$####:|||||## .213&11%$$#|||||8##@@@+ .2y1<&<%# .311<,",
"&,$%&$&&#$#+#$#:|||||,$ .21&11&####|||||7++++++ .2y1&<<&$ .3<11&",
"&<&$&$%#$++#+++:|||||#$ . FFFFF    |||||:       .121&$&&$ .3<,,&",
"&,<,%&%###+$+#+:|||||,# ..|||||....|||||>........1221&#$+ .33,,&",
"&<,&$%&%+++++++:|||||#$ .1|||||1111|||||t111111..12131&$+ .3<<&,",
"               :|||||## .1|||||3211|||||r,&3<1& .1y113,#+ .     ",
".....##%%,,,&%$>|||||&# .2|||||122y|||||r&,&,<& .1111,,#+ .,<,, ",
".<1233333333333>|||||&$ .2|||||2223|||||t11<<&$ .1y1&%##+ .<<&& ",
".13333321231113X|||||5$ .p||||~u222|||||w<&&%<$ .12,%$#%+ .<&%% ",
".1322uu2333<133 ^||||S# .U||||Zuu&1|||||9,&&&&$ .11%$%##+ .<%&# ",
".3332uu3<<133<2 c|||||'F]|||||muu31|||||WKJYYYKFHk&&###$+ .,&%# ",
".3121222<<<31,, =||||||||||||)<3131||||||||||||||h        .,%#$ ",
".332<,221<<1331 .B|||||||||||r<<211||||||||||||||z............. ",
".33<132,1222&11 .3b||||||||}d2<<333||||||||||||||N2223333333333 ",
".33331,3,2&&1,1 .31qNR/|PIN41222333||||||||||||||N21122221,311& ",
".313<1132<&@&11 .33&1&% .13111<13333111####$%%$ .212uu222<111<& ",
".32<<3i31,1&&11 .3211&1 .133113,,333111%##$#@@@ .233uyy22,,1<&$ ",
".3131ifi<<1<,&, .321&1% .113<<&&&,111&&&$$###++ .2<3<yy2211&&&# ",
".32323i31&11@@$ .3122&$ .1131,,&&&,&,##<<%%#@++ .232<<<11&&&&#$ ",
".313222,,,&%@@$ .332<,$ .1<33<3&&,&&,&#<<,%%$#$ .221<<<1&%$&##$ ",
".13221&&<1<<&$$ .321,,& .13<131,&%%,,##&<<&%##+ .22<1<<1&%$%&## ",
".3132,,2&11<%&# .313&&& .13111<,11%%#%##&&&$##+ .2232,22<&$<<#+ ",
".3131<,&$,11<%$ .331$$$ .111<<&,111%$%%#@@@$+++ .332,1222<&<<&+ ",
".21,,,1$@$,<<%% .321&%# .121<<31&11##%%$#++#+++ .321,1122<&&&&+ ",
".21%$,$1&&<#$## .21$$$# .123&331#$$$##@@@++@#++ .321311&,%%&&#+ ",
".11,,$,#$#$%$%$ .21,%$$ .11231&<#$$$##++%%$+@+# .333<1&&%&&%$+$ ",
".1<&&&&&%%%%&&&..1,&&&&..11<1<&&&&&&%$##&&&&##%..311&<1&&&&&%%& ",
"O,,,&&&&&&&&&&&OO,,&&&&OO1y,,,,,&&&&&&&&&&&&&&&OO3,,&&&&&&&&&&&.",
"---------------------------------------------------------------O"
};
