/* XPM */
static char *crosshair[] = {
/* columns rows colors chars-per-pixel */
"40 40 2 1 ",
"  c black",
". c #39F94D",
/* pixels */
"                                        ",
"                                        ",
"                                        ",
"                    .                   ",
"                    .                   ",
"                    .                   ",
"                    .                   ",
"                    .                   ",
"                    .                   ",
"                    .                   ",
"                    .                   ",
"                    .                   ",
"                    .                   ",
"                    .                   ",
"                    .                   ",
"                    .                   ",
"                                        ",
"                                        ",
"                                        ",
"   .............         .............  ",
"                                        ",
"                                        ",
"                                        ",
"                                        ",
"                    .                   ",
"                    .                   ",
"                    .                   ",
"                    .                   ",
"                    .                   ",
"                    .                   ",
"                    .                   ",
"                    .                   ",
"                    .                   ",
"                    .                   ",
"                    .                   ",
"                    .                   ",
"                    .                   ",
"                                        ",
"                                        ",
"                                        "
};
