/* XPM */
static char *floor_greystone[] = {
/* columns rows colors chars-per-pixel */
"64 64 46 1 ",
"  c gray12",
". c gray23",
"X c #3F3F3F",
"o c gray28",
"O c #4B4B4B",
"+ c gray31",
"@ c #535353",
"# c gray34",
"$ c #5F5F5F",
"% c #676767",
"& c gray42",
"* c gray45",
"= c gray46",
"- c #7B7B7B",
"; c #818181",
": c #838383",
"> c gray53",
", c #898989",
"< c #8B8B8B",
"1 c #8D8D8D",
"2 c gray56",
"3 c #989898",
"4 c #9B9B9B",
"5 c #A4A4A4",
"6 c gray67",
"7 c #B1B1B1",
"8 c #B7B7B7",
"9 c #B9B9B9",
"0 c gray77",
"q c gray78",
"w c gray80",
"e c LightGray",
"r c gray83",
"t c #DFDFDF",
"y c #E1E1E1",
"u c #E2E2E2",
"i c gray89",
"p c gray90",
"a c #E7E7E7",
"s c #EAEAEA",
"d c #EFEFEF",
"f c gray94",
"g c #F1F1F1",
"h c #F3F3F3",
"j c #F4F4F4",
"k c white",
/* pixels */
" . . . . . . . . . . . . . . . . . . . . . . . . . . . . . . . .",
"#@#+#+#+#+Oetttetetttetettt .:68eqeeqe8q6:# oooooooooo@+#+#+#+#+",
"@#@@#@@@#@oteqe8eeeqee8eeq2 .:q826:2222:6+. .&22:222-&%oooOoooOo",
"22:222:2 @Otqq8e8qq8qq88e2$ .6e62626:626:#. .2etttet8862:222:222",
"eeee862: #ote664626666466-@ .2822:6666:2*+. .:tt8q8ettteteqeeeqe",
"666646-* @od8466664626:66&@ .o6266:2426&#@. .2e8626266422626:624",
"844462-& Oode6:62624442262+ .o-2:6266:6*... .:t826:4:226:2426424",
"86:8:4$# .odq2426642-2262$# .oo26642226&... .2t66:4-64-26:662-64",
"46624*oO  Oq8646:624:4226&@  O@o-........  ..*tt26::4*42622-66*2",
"22:2*@oo .o6d646222222:6:#-  .o....... .   oooqq2222444:26266:62",
"*&**+O..  O2e2622-226:626&#. .o.       . . O@oq626:62:2*&%$$%$%$",
"@#ooo    .X*t6:4---642:-2&%. .ooOO*-264664*.+O82&*%$%#@@@oOoOooO",
"     . . .@otq22244:26-262+. .X*66etdeee4&@ @o2&%$@Ooo..... . . ",
" . .  . ..+o6e26:-262:42:*+.  .68te8:626:*. ...........         ",
"..........OO2q6:64:-2-262+#. .X6t86222:22+. .  .  .  . XX.......",
"@O...... .@o*q:642646:6:6+*o  O6d62:626:6@. .o#@## oOooOoooooooX",
"442424244  #oq842:kkkkkkkkkkkkkkd:kkkkk72+. .&6te#o@-44244424444",
"eqeeqe86*X #o28262kkkkkkkkkkkkkkq6kkkkk0:#. .6eq6 o-qetttetttete",
"6426266&*. @o*46:6kkkkkkkkkkkkkkq6kkkkk1#@. .eq6: O4ee8868886888",
"62426:2&*. o@o42**kkkkkkkkkkkkkk2*kkkkk;... $t622 o4t66462624:44",
"6226:66&#. o@o%@#@kkkkktrrrrrrrp*.kkkkk=    $t66: O4e624:424*:2:",
"62626:2*+. o@o . .kkkkk=      ..+.kkkkk;  . 2t662 o2q:6462624:44",
"26*-226&#. .+#O.  kkkkk=+OO+OOo222kkkkk5# X%8t6:- O:q6:424:4--22",
"2::-26:%o. .:ttteqkkkkk,%-668qqtttkkkkk9% .-tq46* o:86426:62--22",
"2266:22$O. .eq6244kkkkk,-edttq88q8kkkkk4# .2t642& O&q:62242:6262",
"46:26:*@.. .t42466kkkkk,4tq26:64:6kkkkk3o .2d6:6# Oo2*$#@@%%&-2:",
"%$%$%@o... .e666:6kkkkk>4d6462-662kkkkk2o .:d662# @ ..ooooOoo@#@",
"@Oo...     .t:6266kkkkk>4d:6246:2-kkkkk<O .2d:62+ #.         ..o",
"       . OOot64:62kkkkk>4d226:2-2-kkkkk<O .:d66:# #....... .    ",
"o%%&242:22o t6*426kkkkk>2d62:2-2-2kkkkk1o .2d266+ #oXo+@+#@@#...",
"%28teteeq6* t66:-2kkkkk>2t842626*-kkkkk2. .2e226+ O6te82$#ooOoo@",
"%6eqq86646X d246-2kkkkkiyjgsup*2--kkkkk<. .2t622@ Ot:28ttettt2.@",
"%t866:626:* d46266kkkkkkkkkkkk26:6kkkkk2. X2e262+ Ot2:66:262::.+",
"%e84:626:6* d4:462kkkkkkkkkkkk22-2kkkkk>. O2e66:# ot66:266:62$.o",
"%t626266-6+ t66622kkkkkkkkkkkk6:24kkkkk> .X2e426+ Oq6266:2626$.o",
"%t6622446:# t8-4-6kkkkkkkkkkkk-4:2kkkkk;  O2e26+# Oq64626:264#.o",
"%e826626:6@ qt:462kkkkk=O@8t6:6262kkkkk; .o-6-+...X66264262:6#..",
"%t86426262+ 8t-6:2kkkkk=.+2862-%$@kkkkk; .X#....Xo *+o@#@#@@#@..",
"%t6266:6-6@ 4e4-66kkkkk=.@o22$#o. kkkkk= .o+oo+@#@#            .",
"%e82:4626:# -t646:kkkkk= +o. .    kkkkk; .o@#ooOoooOoo..........",
"%t866:4626@ #d2422kkkkk=.ooo.....Okkkkk>Ooo#@----------------*.+",
"%t6226:62&# od62:-kkkkk= X%-------kkkkk52224686q8q8q88q8q8q8q-.+",
"%q8662626+  +d4262kkkkk= .-q8q8q8qkkkkkwq8ettdddddddddddetee2% O",
"%e826266:# .Xd26-4kkkkk=  -qqdddddkkkkkhddddttee888q868q88q8-# +",
"%88626:22+ .ot66:6kkkkk=  -qq8q8q8kkkkkwq88664422626:226:626&#..",
"Oq:26:*&*@ .oe:26:kkkkk=  %8t822:2kkkkkfppassspy4:664:626642&@ .",
"o86642#@@  Xo86:26kkkkk=  oqt82226kkkkkkkkkkkkkk22-:4426:626&#..",
"o---#@#@@ ..X446:2kkkkk=   8te66:2kkkkkkkkkkkkkk6:262-*2-422*@ .",
"o.   #@@# .XO-%$%%kkkkk=  .6ee2:62kkkkkkkkkkkkkk26:2-22:62*:&# .",
"@#@o.    ..X......kkkkk=   2e86226kkkkkkkkkkkkkk-222:62-22:-&# .",
"oOoooOo.  .O..            .:4&**&**&6266:2-:22-226:6226:2224&# .",
"o-666622%OO@..  .  .  . . .@o.. . . #*&-2-------------------%+ .",
"o6qetett8662&$#O..........X#oo...... O@@#@#@#@#@@@#@#@@#@#@@@ ..",
"o6e6628ettt86666666422:--&%%+#oooXo.. . . . . . .             .X",
"o6t66686268tttetetettttqeq866666:O@o.........  . . . . . . ...oO",
"o6t6:6--642-6:626266:62666qetee8:.o+Ooo... .................XoO@",
"o6q6662622246:26-*26-2:26:62666-% .+O6et4-OOo@@@ooXoooXooXoo+#@@",
"o6q6:6--46:664:-6-2-4:62626:664%@ .oot66ttte8@@O8ttettteeq64-Oo@",
"o6:%$%$%$%%$%$%%$%$%$%%$%$%$%$%#@. .oe8686888$#-t46626:64626e4 @",
"o2%...............................  O86884$4:%o8626:666:626:6@ #",
"o.                                  +.o.+%$%%$Ot4446624644622+ #",
"@O... .  .  .  . .  .  .  .  .  . . X+#..     .@#@@@@@#+@#@#+# @",
"@#+@oooOOoOO.........................+#+@......+@              #",
"................................................................"
};
