/* XPM */
static char *joao[] = {
/* columns rows colors chars-per-pixel */
"64 64 215 2 ",
"   c #1E1B25",
".  c #1D1825",
"X  c #221726",
"o  c #231B29",
"O  c #261D28",
"+  c #1E2028",
"@  c #202020",
"#  c #24232C",
"$  c #2C2C2C",
"%  c #2A2629",
"&  c #332B2A",
"*  c #3A2D2C",
"=  c #32242A",
"-  c #3D312E",
";  c #262A36",
":  c #2C2B33",
">  c #2A2E39",
",  c #272734",
"<  c #342B35",
"1  c #2D333C",
"2  c #333535",
"3  c #383838",
"4  c #373438",
"5  c #400000",
"6  c #4C0000",
"7  c #580000",
"8  c #640000",
"9  c #700000",
"0  c #7C0000",
"q  c #781616",
"w  c #492C2B",
"e  c #433533",
"r  c #4C3C3B",
"t  c #463639",
"y  c #583A38",
"u  c #47352E",
"i  c #623C2D",
"p  c #3A403C",
"a  c #585400",
"s  c #706C00",
"d  c #49413E",
"f  c #58423D",
"g  c #66443D",
"h  c #2E3540",
"j  c #353B45",
"k  c #373B45",
"l  c #463B42",
"z  c #573C42",
"x  c #3C424C",
"c  c #3D4443",
"v  c #3C4751",
"b  c #424343",
"n  c #48454C",
"m  c #484848",
"M  c #474746",
"N  c #534342",
"B  c #594746",
"V  c #594C54",
"C  c #545454",
"Z  c #5D5159",
"A  c #49504F",
"S  c #6C4D4B",
"D  c #654845",
"F  c #744949",
"G  c #6A534B",
"H  c #65524F",
"J  c #74524C",
"K  c #78514E",
"L  c #774D51",
"P  c #655454",
"I  c #6C5353",
"U  c #6C5B5D",
"Y  c #6B5558",
"T  c #7B5C53",
"R  c #765858",
"E  c #664D52",
"W  c #7B625B",
"Q  c #786259",
"!  c #63615D",
"~  c #675863",
"^  c #765E61",
"/  c #6A6667",
"(  c #756264",
")  c #7B6A6D",
"_  c #786667",
"`  c #6C6171",
"'  c #776C74",
"]  c gray44",
"[  c #7C7C7C",
"{  c #7B7274",
"}  c #880000",
"|  c #980000",
" . c #A40000",
".. c #B00000",
"X. c #BC0000",
"o. c #C80000",
"O. c #D40000",
"+. c #E00000",
"@. c #EC0000",
"#. c #FC0000",
"$. c #FC2020",
"%. c #824C4D",
"&. c #8A4B53",
"*. c #865A57",
"=. c #8D5356",
"-. c #82645B",
";. c #8C635B",
":. c #936A5E",
">. c #A8684A",
",. c #855F63",
"<. c #8B6563",
"1. c #8D6A63",
"2. c #8B6C6A",
"3. c #836965",
"4. c #946D64",
"5. c #986966",
"6. c #8B7369",
"7. c #94746A",
"8. c #98746A",
"9. c #876E73",
"0. c #857578",
"q. c #987875",
"w. c #A3696C",
"e. c #A2736C",
"r. c #A0786B",
"t. c #AB7475",
"y. c #AB7A76",
"u. c #AE7D79",
"i. c #A47A75",
"p. c #B37871",
"a. c #A45C67",
"s. c #909000",
"d. c #CCC400",
"f. c #E4D800",
"g. c #FCF400",
"h. c #9A8578",
"j. c #A5837B",
"k. c #AB847C",
"l. c #A88778",
"z. c #B2827D",
"x. c #B18B7E",
"c. c #B5957F",
"v. c #E18668",
"b. c #787283",
"n. c #897C85",
"m. c #987C80",
"M. c #B37F82",
"N. c #8C898A",
"B. c #968789",
"V. c #978C96",
"C. c #989898",
"Z. c #9A9394",
"A. c #928A90",
"S. c #AA8886",
"D. c #B48C83",
"F. c #B78A86",
"G. c #A7918C",
"H. c #BB9386",
"J. c #BC948A",
"K. c #BC9C8D",
"L. c #B69688",
"P. c #B38E92",
"I. c #A5969A",
"U. c #BA9997",
"Y. c #BBA396",
"T. c #9B97A7",
"R. c #A59CA5",
"E. c #A8A8A8",
"W. c #A8A4A7",
"Q. c #B1AAAE",
"!. c #B6B6B6",
"~. c #B9B4B9",
"^. c #AEA8B6",
"/. c #C3948C",
"(. c #C6978B",
"). c #C39C93",
"_. c #C79995",
"`. c #CC908A",
"'. c #C4A58D",
"]. c #C8A698",
"[. c #D1A59C",
"{. c #D09DA0",
"}. c #C4A3A3",
"|. c #CCA6A5",
" X c #D4ACAB",
".X c #D7A9A7",
"XX c #CDB4AA",
"oX c #DAB5A9",
"OX c #C9BDB8",
"+X c #DBB4B4",
"@X c #DAB6B6",
"#X c #D8AFB1",
"$X c #E2B6AE",
"%X c #E4BCB3",
"&X c #E3BBB9",
"*X c #E8B8B4",
"=X c #E7B2B0",
"-X c #D9C2B7",
";X c #E6C2BB",
":X c #F3C5BC",
">X c #BBB7C4",
",X c #DDBFC1",
"<X c #E7BFC2",
"1X c #F4BCC3",
"2X c #C1C0C0",
"3X c #C8C5C7",
"4X c #D0D0D0",
"5X c #D1C9C9",
"6X c #EAC8C9",
"7X c #F3C7CA",
"8X c #F8D5D9",
"9X c #F6CED0",
"0X c #FDDAE3",
"qX c #FDE6E8",
"wX c #FFF0EF",
/* pixels */
"3 3 3 3 3 3 3 3 3 3 3 3 3 3 3 3 3 3 3 3 3 3 3 3 3 3 3 3 3 3 3 3 3 3 3 3 3 3 3 3 3 3 3 3 3 3 3 3 3 3 3 3 3 3 3 3 3 3 3 3 3 3 3 3 ",
"C 3 C m m m m m C m m m m m m C m 3 m m m m m m m C C C C C C m m m m m m m m m C C C C C C C m m m m 3 3 3 m m C C m m m m m 3 ",
"3 @.@.O.O.O.O.O.O.O.O.O. .m m C @.@.O.o.O.O.O.O.O.O.O.O.O.O.O.O.O.O.O.O. .m 3 C @.@.@.@.O.O.+.O.+.O.O.O.O.O.O.o.o.o.o.X.X.X. .m ",
"m g.o.....O.}  .O.} o. .8 $ m C @.X.} X.} X.} X.0 X.| X.| X.0 X.0 X.o. .9 $ m 3 O. .o. .o.X.X.o.9 o.} o...o.} .. .0 o.| o. .g.$ ",
"f.d.s.^.!.!.!.!.!.!.!.!.!.!.!.!.!.!.!.!.!.!.!.!.!.!.!.!.!.!.!.!.!.!.!.!.!.!.!.!.!.!.!.!.!.!.!.!.!.!.!.!.!.!.!.!.!.!.!.!.!.d.d.s ",
">.s.a ] ] [ [ [ [ [ [ [ [ [ [ [ [ [ [ [ [ [ [ [ [ [ [ [ [ [ [ [ [ [ [ [ [ [ [ [ [ [ [ [ [ [ [ [ [ [ [ [ [ [ [ [ [ [ ] ] ] s v.a ",
"m a  .b.[ [ [ C.Z.C.C.C.C.C.C.C.C.C.C.C.C.Z.C.C.Z.C.C.C.C.C.C.C.Z.Z.C.C.C.C.C.C.C.C.C.C.C.C.C.C.C.C.C.C.Z.C.C.C.C.[ ] [ [ 7 >.% ",
"m o.0 T.[ $.| 5 5 C 9 9 9 9 9 8 9 9 9 9 9 8 9 9 9 9 9 9 8 9 9 9 9 8 9 9 9 9 9 8 9 9 9 9 9 9 9 9 9 9  ...#.O.0.5 5 5 [ -X] 7 5 $ ",
"m X. .E.[  .!.!.!.!.!.!.!.!.!.!.!.!.!.!.!.!.~.!.!.~.!.^.!.^.>X>X!.!.!.!.!.!.!.!.!.!.!.!.!.!.!.~.!.!.!.!.!.!.2X!.!.C.$.[ ] 7 5 > ",
"m 0 8 !.C.5 !.!.!.!.!.!.!.!.!.!.!.!.!.~.~.!.4X~.^.T.>X^.b.b.b.b.n.~ ' ' ) ( ( _ { B.!.!.!.!.!.!.!.!.!.!.!.!.!.!.!.4X| ] [ 5 5 $ ",
"m m $ 4XE.5 2X!.!.!.!.!.!.!.!.!.!.!.!.Q.Q.E.~.3X>X>X>XA.b.T.T.n.` n P ^ ( Q Q U W _ B.!.!.!.!.!.!.!.!.!.!.!.!.!.!.[ 5 [ C.@ @ $ ",
"C 3 3 4X!.C !.!.!.!.!.!.!.!.!.!.!.!.Q.R.Z.I.R.R.>X>X^.A.` ] b.' ^ 2.2.2.3.) Q R P G _ Z.~.!.!.!.!.!.!.!.!.!.!.!.!.! A N.E.@ $ $ ",
"@.O.O.!.4X5 !.!.!.!.!.!.!.~.!.!.!.,X!.^.^.V.n.V.T.R.V.' ~ ' n.m.S.P.j.S.q.7.q.-.G B P U !.!.!.!.!.2X!.!.!.!.!.!.!.[ 5 C.E.7 7 O.",
"..} } !.4X9 !.!.!.!.!.!.~.~.!.!.R.R.R.C.R.T.n.n.n.N.B.m.S.U.P.m.U.|.].K.D.l.l.q.3.f f H Z.!.!.!.!.!.!.!.!.!.!.!.!.[ 5 E.!.7 7 ..",
"}  .} !.4X..!.!.!.!.!.!.!.!.!.!.B.V.m.n.m.n.n.9.m.B.S.P. X,X#XS.S. X|.[.[.J.x.D.h.G r d P !.!.!.!.!.!.!.!.!.!.~.!.N.9 E.!.7 7 | ",
"9  . .!.!.| !.!.!.!.!.!.!.!.!.A.B.m.n.n.n.' 9.9.m.S.S.}.5X6X@X|.8. X+X.XoXoXL.'.L.7.d t d !.!.!.!.!.!.!.!.!.!.!.!.N.9 E.!.7 7 0 ",
" .} } !.!.} !.!.!.!.!.!.!.!.-XN.{ ] 0.9.( ^ 3.2.S.F.P.}.6X6X<X@Xi.H.;XoX[.oX'.].XXK.P d d !.!.!.!.!.!.!.!.!.!.!.!.N.9 E.!.7 7 0 ",
"9  .7 !.!.9 !.!.!.!.!.!.!.!.2X0.` _ ' ^ Y R <.q.S.U._.@X6X9X6X&X}.k.oX$X$XoX].].-XoX6.f f _ !.!.!.!.!.!.!.!.!.!.!.C.9 !.!.6 7 } ",
"9 ..8 !.!.9 !.!.!.!.!.!.!.2X3X[ V Y ) ^ Y ,.q.M.P.{.#X9X8X8X8X+X&X).$X:X*X[.[.oX$X-Xh.d d P !.!.!.!.!.!.!.!.!.!.!.E.8 !.!.7 7 9 ",
"5 6 6 !.!.9 !.!.!.!.!.!.!.!.!.N./ ^ ) R L <.i._.U. X,X8XqXwXqX5X+X X:X9X9X:XoX;X;XoXY.f 3 B !.!.!.!.!.!.!.!.!.!.2XE.9 !.!.5 7 5 ",
"$ $ $ !.!.9 !.!.!.!.!.!.!.!.!.N.Z Z Y I E <.S.#X|.}.,X<XqXqX0X9X X#X*X7X7X9X;X|.oX;X-XQ % t !.!.2X!.!.!.!.!.!.!.!.E.9 !.!.@ @ $ ",
"C C m !.!.8 !.!.!.!.!.!.!.!.!.Z.l l E E L q._.+X#X_..X{.,X6X9X1X=X|..X X}.G.m._ 7.].-Xh.% d !.!.!.!.!.!.!.!.2X!.!.E.9 !.!.@ $ $ ",
"C @.@.2X2X0 !.!.!.!.!.!.!.!.!.!.4 l E R ,.m.|.@XQ.M.P.}.{.#X&X#X}.P.q.' C n n M m C ! ! p M !.!.!.!.!.!.!.!.!.!.!.E.9 !.!.7 7 $ ",
"C @.} 4X4X| !.!.!.!.!.!.!.!.!.4X< = ^ m.^ E ~ V ~ Z ~ ` 9.S.P.P.P.^ l k x x x x x c v c b b !.!.!.!.!.!.!.!.!.!.!.E.9 !.!.7 5 $ ",
"3 @...2X2X} !.!.!.!.!.!.!.!.!.!.l o B V e O X o k v v k k ^ P.m.9.t : x j j j j x c x A c p N.!.!.2X!.!.!.!.!.!.!.E.0 !.!.7 5 $ ",
"m X.8 !.!.0 !.!.!.!.!.!.!.!.!.!.' , = , O X X o k j j k k z m.{.q.< , 1 1 1 1 1 1 p 1 c c 2 ] !.!.!.!.!.!.!.~.!.!.!.} !.!.7 5 $ ",
"m X...!.!.9 !.!.!.!.!.!.!.!.!.!.R.l , < O X X . h h h h h h P.wX X4   > > ; > > 1 1 p c c 3 N.!.!.!.!.!.!.!.!.!.!.2X| 2X2X7 5 $ ",
"C X.9 E.E.9 !.!.~.!.!.!.!.!.!.!.n., < > X X X . , ; h h h l P.wX8X)   ; ; ; ; ; 1 1 p c c p D./.!.!.!.!.!.!.!.!.!.4X| 4X4X7 5 $ ",
"m o. .E.E.8 !.!.!.!.!.~.!.!.!.2X~.n % : o X . . + ; ; ; ; n }.qXqXU.l   ; > ; , ; 2 p c A B c.p.!.!.!.!.!.~.!.!.!.2X| 2X2X7 5 $ ",
"m  .| C.C.6 !.!.!.!.!.!.!.!.!.!.!.' % < O . . . o ; , , < ^ #X0XqX+X9.$ o # # # $ p p p p Q `.[.!.!.!.!.!.!.!.~.!.2X} ~.2X7 5 $ ",
"m m 3 E.E.7 !.!.~.!.!.!.!.!.!.!.v.*.: k % o   . + , o o t t. X1X8X7X_.R & @ @ @ @ $ p p h.G.H.!.!.!.!.!.!.!.!.!.!.!.0 !.!.@ @ $ ",
"C C C E.E.8 !.!.~.!.!.!.!.!.!.!.`.a.r 4 % O X   . + # l &.M.{.1X8X7X#Xk.3.I B N B G ) L.-XK.H.!.!.!.!.!.!.!.!.!.!.!.8 !.!.@ $ $ ",
"X.X.X.!.!.9 !.!.!.!.!.!.!.!.!.!.6Xp.j.{ l * O X = l E ,.a.M.#X1X0X9X*X{.F.y.y.S.D.H.K.].XXL.`.!.!.!.!.!.!.!.!.!.!.!.9 !.!.7 7 X.",
" ...| !.!.9 !.!.!.!.!.!.!.!.!.!.!.F.F.OXP.*.K *.,.5.5.5.a.M.#X1X0X8X*X.X`./.F.F./.H.J.).).D.[.!.!.!.!.!.!.!.!.!.!.E.8 E.E.7 7  .",
" .0 } !.!.9 !.!.!.!.!.!.!.!.!.!.!.@Xy.Y.L.8.5.e.M.t.w.e.5._..X1X7X1X=X=XoX_.(._.(.c.L.D.l.H.!.!.!.!.!.!.!.!.!.!.!.C.7 C.C.7 7 9 ",
"} 0  .!.!.9 !.!.!.!.2X!.!.!.!.!.!.!.y.j.U.e.5.e.u.u.y.t.t./.`.{.=X{.`.M.`.[._.(.(.H.K.h.7.c.!.!.!.!.!.!.!.!.!.!.!.A.6 N.Z.7 7 9 ",
" .} 0 !.!.9 !.!.!.!.!.!.!.!.!.!.!.!.).8.l.4.4.5.e.u.z.u._.t.=.a.t.t.w.K z.*X$X`.(.(.x.T h.!.!.!.!.!.!.!.!.!.!.2X!.C.7 C.C.7 7 } ",
" .} 0 !.!.0 !.!.!.!.!.!.!.!.!.!.!.!.6X4.Q T *.:.5.e.z..X#Xt.F g =.;.r.z.`.*X:XoX'.D.6.Q G.!.!.!.!.!.!.!.!.!.!.!.!.C.8 C.C.6 7 9 ",
"9 9 } !.!.9 !.!.!.!.!.!.!.!.2X!.!.!.!.-XG.J %.;.5.e./.*X=XF.&.y D F F 8.c.[.:X$X.Xx.-.6.Z.!.!.!.!.!.!.!.!.!.!.!.!.E.8 E.E.7 7 9 ",
"5 5 6 !.!.} !.!.2X!.!.!.!.!.!.!.!.!.!.!.!.Q g F %.5.[.&X&X_.F w t z w y -.l.x.l.'.l.W 3.h.!.!.!.!.!.!.!.!.!.!.!.!.!.8 !.!.7 7 5 ",
"$ $ $ 2X2X} !.!.!.!.!.!.!.!.!.!.!.!.!.~.!.0.g g g ;.].K.U.S.E w w D w y J 1.T T 1.7.-.;.G.!.!.!.!.!.!.!.!.!.!.!.!.!.9 !.!.@ @ % ",
"C m C 4X4X .!.~.!.!.!.!.!.!.!.!.!.!.!.!.!.Z.D g y J q.2.6.9.E D L 5.L F &.*.F K :.W T q.!.!.!.!.!.!.!.!.!.!.!.!.!.!.8 !.!.@ $ $ ",
"3 @.O.~.2X| ~.!.!.!.!.!.!.!.!.!.!.!.!.!.!.-XB f y g G S G K L F &.&.&.&.=.e.y.5.:.Q G W !.!.!.!.!.!.!.!.~.~.!.!.!.2X} 2X2X7 7 $ ",
"C O. .!.!.| !.!.!.2X!.!.!.!.!.!.!.!.!.!.!.!.U r y f S g F F L %.&.a.a.w.u./.(.J.h.Q f 0.!.!.!.!.!.2X!.~.!.!.!.!.!.2X} 2X2X7 5 $ ",
"m O.| !.!.} !.!.!.!.!.!.!.!.2X!.!.!.!.!.!.!.!.3 y f J J 1.y.t.u.t.a.a.w.l.x.D.x.c.Q d !.!.!.!.!.!.!.!.!.!.!.!.!.!.4X} 4X4X7 5 $ ",
"m O.} !.!.} !.!.!.!.!.!.!.!.!.!.!.!.!.!.!.!.!.Z.e B G -.5.e.e.r.5.D y g :.l.i.r.7.f H !.!.!.!.!.!.!.!.!.!.~.!.!.!.2X| -X2X7 5 $ ",
"3 O. .!.!.0 !.!.!.!.!.!.!.!.!.!.!.!.!.!.!.!.!.!.N.- r y K *.;.*.g w w D 4.x.x.4.Q u h.!.!.!.!.!.!.!.!.!.!.!.!.!.!.2X} 2X2X7 5 $ ",
"C O. .E.E.9 !.!.!.!.!.!.!.!.!.!.!.!.!.!.!.!.!.!.!.) * e y K ;.;.&.I ;.i.H.J.l.T g f c.!.!.!.!.!.!.!.!.!.!.!.!.!.!.!.8 !.!.7 5 $ ",
"3 o. .E.E.9 !.!.!.!.!.!.!.!.!.!.~.!.!.!.~.!.!.!.!.5Xd - - f :.j.i.q.l.l.l.h.Q f d Q '.!.!.!.!.!.!.!.!.!.!.!.!.!.!.!.9 !.!.7 5 $ ",
"C  .8 !.!.9 !.!.!.!.!.!.!.~.!.!.~.!.!.!.!.!.!.!.!.!.) - & e H W 6.1.3.3.Q g d & f c.c.XX!.!.!.!.!.!.!.!.!.!.!.!.!.!.9 !.!.5 5 $ ",
"3 M $ !.!.8 !.!.!.!.~.!.!.!.!.!.!.!.!.!.!.!.!.!.!.!.G.G u & - d B B g H d - & f h.c.c.'.].!.!.!.!.!.!.!.!.!.!.!.!.C.9 !.!.@ @ $ ",
"C 3 C !.!.9 [ !.!.!.!.!.!.!.!.!.!.!.!.!.!.!.!.!.!.!.Y.:.T f - & & * - & % - f h.l.c.K.'.].'.'.!.!.!.2X!.!.!.!.!.!.[ 9 !.!.@ $ $ ",
"O.O.O.!.!.[ 9 [ C.!.!.!.!.!.!.!.!.!.!.!.!.!.!.!.!.!.-X7.:.-.G d u t y f Q h.h.l.l.c.c.'.'.'.'.].!.!.!.!.!.!.!.C.[ 8 [ !.!.7 7 X.",
"0  .7 [ !.!.[ 8 9 9 [ C.!.!.!.!.!.!.!.!.!.!.!.!.!.!.!.!.!.!.!.!.!.!.!.!.!.!.E.!.!.!.!.!.!.!.!.!.!.!.!.!.C.N.9 8 9 [ C.!.[ 6 7 9 ",
" .0 0 7 [ !.!.!.C.[ 9 9 9 9 N.Q.!.!.!.!.!.!.!.!.!.2X!.!.!.!.!.!.!.~.!.!.!.!.!.!.!.!.!.OX!.!.!.!.C.[ 9 9 9 9 N.C.!.!.!.[ 7 7 7 6 ",
" .0 7 7 7 C [ !.!.!.!.!.C.[ 9 9 9 [ W.!.!.!.!.!.!.!.!.!.!.!.!.!.!.!.!.!.!.!.!.!.!.!.!.!.!.C.[ 9 8 9 [ C.!.!.!.!.!.[ C 7 7 7 9 } ",
"0 | 7 7 7 7 7 C [ !.!.!.!.!.!.Z.[ 8 9 9 [ C.!.!.!.!.!.!.!.!.!.!.!.!.~.!.!.!.!.!.!.!.C.[ 9 9 9 [ C.Q.!.!.!.!.[ C 7 7 7 7 7 8 9  .",
"8  .0  .8 7 8 7 7 7 7 C [ !.!.!.!.!.C.[ 9 9 9 [ C.!.!.~.!.!.!.!.!.!.!.!.!.!.!.E.[ 9 9 9 [ C.!.!.!.!.!.[ C 7 7 7 7 7 7 9 7  .9  .",
"8  .0 0 8 | | 8 7 7 7 7 7 7 A [ !.!.!.!.!.Z.[ 9 9 9 9 C.!.!.!.!.!.!.!.!.E.q 9 9 8 [ C.!.!.!.!.!.[ A 7 7 7 7 7 7 7 9  .9 7 8  .6 ",
"0 | 7  .8 8 } 8 9 0  .7 7 7 7 7 7 5 C [ !.!.!.!.!.C.[ 9 9 9 [ C.C.[ 9 9 9 [ C.!.!.!.!.!.[ C 5 $ $ $ 7 7 7 7  .7  .9  .9  .8  .9 ",
"6 6 6 6 6 6 6 6 6 6 6 6 6 6 6 6 5 5 @ @ % C [ !.!.!.!.!.Z.[ 8 9 9 8 [ C.!.!.!.!.[ C 6 6 6 5 5 @ $ $ 7 5 5 6 6 6 6 6 6 6 6 6 6 6 ",
"$ $ $ $ $ $ $ $ $ $ $ $ $ $ $ $ $ $ $ @ @ @ @ @ $ C [ !.!.!.!.!.!.!.!.!.!.[ A @ @ @ @ @ $ @ @ @ $ $ $ $ $ $ $ $ $ @ @ @ @ @ $ $ ",
"3 C 3 C 3 3 3 m m m m m C 3 3 3 3 $ $ $ $ $ $ $ @ @ @ @ @ C [ !.!.[ C $ @ @ @ @ @ $ $ $ $ $ $ $ $ 3 3 m m C m m m m t 3 c m m m ",
"C C C C C C C C C C C C C C C C C C C M 3 3 3 $ $ @ @ @ @ @ @ @ @ @ @ @ @ @ @ @ @ @ $ 3 3 3 m m C C C C C C C C C C C C C C C C "
};
