/* XPM */
static char *no_image[] = {
/* columns rows colors chars-per-pixel */
"64 64 190 2 ",
"   c #131313",
".  c gray8",
"X  c #151515",
"o  c #181818",
"O  c #191919",
"+  c gray10",
"@  c #1B1B1B",
"#  c gray11",
"$  c #1D1D1D",
"%  c #1E1E1E",
"&  c gray12",
"*  c #202020",
"=  c gray13",
"-  c #222222",
";  c #232323",
":  c gray14",
">  c #252525",
",  c gray15",
"<  c #272727",
"1  c #282828",
"2  c gray16",
"3  c #2A2A2A",
"4  c gray17",
"5  c #2C2C2C",
"6  c #2D2D2D",
"7  c gray18",
"8  c #2F2F2F",
"9  c gray19",
"0  c #313131",
"q  c #323232",
"w  c gray20",
"e  c #343434",
"r  c #353535",
"t  c gray21",
"y  c #373737",
"u  c gray22",
"i  c #393939",
"p  c #3A3A3A",
"a  c gray23",
"s  c #3C3C3C",
"d  c gray24",
"f  c #3F3F3F",
"g  c gray25",
"h  c #414141",
"j  c #434343",
"k  c #444444",
"l  c gray27",
"z  c gray28",
"x  c #484848",
"c  c #494949",
"v  c gray29",
"b  c #4C4C4C",
"n  c gray30",
"m  c #4E4E4E",
"M  c gray31",
"N  c #505050",
"B  c #515151",
"V  c #535353",
"C  c gray33",
"Z  c gray34",
"A  c #585858",
"S  c #5A5A5A",
"D  c #5B5B5B",
"F  c #5D5D5D",
"G  c gray37",
"H  c gray38",
"J  c gray39",
"K  c #646464",
"L  c #676767",
"P  c #686868",
"I  c DimGray",
"U  c #6A6A6A",
"Y  c gray42",
"T  c #6C6C6C",
"R  c #6D6D6D",
"E  c #6F6F6F",
"W  c #717171",
"Q  c gray45",
"!  c #747474",
"~  c gray46",
"^  c gray47",
"/  c gray48",
"(  c #7C7C7C",
")  c gray49",
"_  c #7E7E7E",
"`  c gray50",
"'  c #808080",
"]  c #818181",
"[  c gray51",
"{  c #848484",
"}  c gray52",
"|  c #868686",
" . c #898989",
".. c gray54",
"X. c #8B8B8B",
"o. c gray56",
"O. c #909090",
"+. c gray57",
"@. c #929292",
"#. c #939393",
"$. c gray58",
"%. c gray59",
"&. c #979797",
"*. c gray60",
"=. c gray61",
"-. c #9F9F9F",
";. c #A0A0A0",
":. c gray63",
">. c #A2A2A2",
",. c gray64",
"<. c #A4A4A4",
"1. c #A5A5A5",
"2. c gray65",
"3. c #A7A7A7",
"4. c gray66",
"5. c #A9A9A9",
"6. c #AAAAAA",
"7. c gray67",
"8. c #ACACAC",
"9. c gray68",
"0. c #AEAEAE",
"q. c #AFAFAF",
"w. c gray69",
"e. c #B1B1B1",
"r. c #B2B2B2",
"t. c gray70",
"y. c #B4B4B4",
"u. c gray71",
"i. c #B6B6B6",
"p. c #B7B7B7",
"a. c gray72",
"s. c #B9B9B9",
"d. c gray73",
"f. c #BBBBBB",
"g. c #BCBCBC",
"h. c gray74",
"j. c gray75",
"k. c #C0C0C0",
"l. c #C1C1C1",
"z. c gray76",
"x. c #C3C3C3",
"c. c gray77",
"v. c #C5C5C5",
"b. c #C8C8C8",
"n. c #CACACA",
"m. c #CBCBCB",
"M. c gray80",
"N. c #CDCDCD",
"B. c #CECECE",
"V. c #D0D0D0",
"C. c gray82",
"Z. c #D2D2D2",
"A. c LightGray",
"S. c gray83",
"D. c #D5D5D5",
"F. c gray84",
"G. c #D7D7D7",
"H. c #D8D8D8",
"J. c gray85",
"K. c #DADADA",
"L. c gray86",
"P. c #DDDDDD",
"I. c gray87",
"U. c #DFDFDF",
"Y. c gray88",
"T. c #E1E1E1",
"R. c #E2E2E2",
"E. c gray89",
"W. c #E4E4E4",
"Q. c gray90",
"!. c #E6E6E6",
"~. c #E7E7E7",
"^. c gray91",
"/. c #E9E9E9",
"(. c gray92",
"). c #ECECEC",
"_. c #EEEEEE",
"`. c #EFEFEF",
"'. c #F1F1F1",
"]. c gray95",
"[. c gray96",
"{. c #F6F6F6",
"}. c #F8F8F8",
"|. c #F9F9F9",
" X c gray98",
".X c #FBFBFB",
"XX c gray99",
"oX c #FDFDFD",
"OX c #FEFEFE",
"+X c white",
/* pixels */
"+X+X+X+X+X+X+X+X+X+X+X+X+X+X+X+X+X+X+X+X+X+X+X+X+X+X+X+X+X+X+X+X+X+X+X+X+X+X+X+X+X+X+X+X+X+X+X+X+X+X+X+X+X+X+X+X+X+X+X+X+X+X+X+X",
"+X+X+X+X+X+X+X+X+X+X+X+X+X+X+X+X+X+X+X+X+X+X+X+X+X+X+X+X+X+X+X+X+X+X+X+X+X+X+X+X+X+X+X+X+X+X+X+X+X+X+X+X+X+X+X+X+X+X+X+X+X+X+X+X",
"+X+X+X+X+X+X+X+X+X+X+X+X+X+X+X+X+X+X+X+X+X+X+X+X+X+X+X+X+X+X+X+X+X+X+X+X+X+X+X+X+X+X+X+X+X+X+X+X+X+X+X+X+X+X+X+X+X+X+X+X+X+X+X+X",
"+X+X+X+X+X+X+X+X+X+X+X+X+X+X+X+X+X+X+X+X+X+X+X+X+X+X+X+X+X+X+X+X+X+X+X+X+X+X+X+X+X+X+X+X+X+X+X+X+X+X+X+X+X+X+X+X+X+X+X+X+X+X+X+X",
"+X+X+X+X+X+X+X+X+X+X+X+X+X+X+X+X+X+X+X+X+X+X+X+X+X+X+X+X+X+X+X+X+X+X+X+X+X+X+X+X+X+X+X+X+X+X+X+X+X+X+X+X+X+X+X+X+X+X+X+X+X+X+X+X",
"+X+X+X+X+X+X+X+X+X+X+X+X+X+X+X+X+X+X+X+X+X+X+X+X+X+X+X+X+X+X+X+X+X+X+X+X+X+X+X+X+X+X+X+X+X+X+X+X+X+X+X+X+X+X+X+X+X+X+X+X+X+X+X+X",
"+X+X+X+X+X+X+X+X+X+X+X+X+X+X+X+X+X+X+X+X+X+X+X+X+X+X+X+X+X+X+X+X+X+X+X+X+X+X+X+X+X+X+X+X+X+X+X+X+X+X+X+X+X+X+X+X+X+X+X+X+X+X+X+X",
"+X+X+X+X+X+X+X+X+X+X+X+X+X+X+X+X+X+X+X+X+X+X+X+X+X+X+X+X+X+X+X+X+X+X+X+X+X+X+X+X+X+X+X+X+X+X+X+X+X+X+X+X+X+X+X+X+X+X+X+X+X+X+X+X",
"+X+X+X+X+X+X+X+X+X+X+X+X+X+X+X+X+X+X+X+X+X+X+X+X+X+X+X+X+X+X+X+X+X+X+X+X+X+X+X+X+X+X+X+X+X+X+X+X+X+X+X+X+X+X+X+X+X+X+X+X+X+X+X+X",
"+X+X+X+X+X+X+X+X+X+X+X+X+X+X+X+X+X+X+X+X+X+X+X+X+X+X+X+X+X+X+X+X+X+X+X+X+X+X+X+X+X+X+X+X+X+X+X+X+X+X+X+X+X+X+X+X+X+X+X+X+X+X+X+X",
"+X+X+X+X+X+X+X+X+X+X+X+X+X+X+X+X+X+X+X+X+X+X+X+X+X+X+X+X+X+X+X+X+X+X+X+X+X+X+X+X+X+X+X+X+X+X+X+X+X+X+X+X+X+X+X+X+X+X+X+X+X+X+X+X",
"+X+X+X+X+X+X+X+X+X+X+X+X+X+X+X+X+X+X+X+X+X+X+X+X+X+X+X+X+X+X+X+X+X+X+X+X+X+X+X+X+X+X+X+X+X+X+X+X+X+X+X+X+X+X+X+X+X+X+X+X+X+X+X+X",
"+X+X+X+X+X+X+X+X+X+X+X+X+X+X+X+X+X+X+X+X+X+X+X+X+X+X+X+X+X+X+X+X+X+X+X+X+X+X+X+X+X+X+X+X+X+X+X+X+X+X+X+X+X+X+X+X+X+X+X+X+X+X+X+X",
"+X+X+X+X+X+X+X+XOXOX+X+X+X+X+X+X+X+X+X+X+X+X+X+X+X+X+X+X+X+X+X+X+X+X+X+X+X+X+X+X+X+X+X+X+X+X+X+X+X+X+X+X+X+X+XOX+X+X+X+X+XOX+X+X",
"+X+X+X+X+X+X+X+X+X+X+X+X+X^.p.h.g.g.g.h.h.g.g.h.g.h.g.g.h.g.h.h.g.h.h.h.h.h.g.g.g.h.g.h.h.g.g.g.g.u.E.+X+X+X+X+X+X+X+X+X+X+X+X+X",
"+X+X+X+X+X+X+X+X+X+X+X+X+Xs.O = = & & * * * * & & & & & * & * * & * * * * * & & & * & * & & & * *   6.+X+X+X+X+X+X+X+X+X+X+X+X+X",
"+X+X+X+X+X+X+X+X+X+X+X+X+Xg.3 0.B.m.m.n.m.m.m.n.m.n.n.m.n.n.n.m.m.m.m.m.m.n.n.n.m.n.m.n.n.m.n.N.g.9 6.+X+X+X+X+X+X+X+X+X+X+X+X+X",
"+X+X+X+X+X+X+X+X+X+X+X+X+Xd.< _.+X+X+X+X+X+X+X+X+X+X+X+X+X+X+X+X+X+X+X+X+X+X+X+X+X+X+X+X+X+X+X+X+Xw 2.+X+X+X+X+X+X+X+X+X+X+X+X+X",
"+X+X+X+X+X+X+X+X+X+X+X+X+Xf.2 H.+X+X+X+X+X+X+X+X+X+X+X+X+X+X+X+X+X+X+X+X+X+X+X+X+X+X+X+X+X+X+X+X).w 4.+X+X+X+X+X+X+X+X+X+X+X+X+X",
"+X+X+X+X+X+X+X+X+X+X+X+X+Xf.2 H.+X+X+X+X+X+X+X+X+X+X+X+X+X+X+X+X+X+X+X+X+X+X+X+X+X+X+X+X+X+X+X+X).w 4.+X+X+X+X+X+X+X+X+X+X+X+X+X",
"+X+X+X+X+X+X+X+X+X+X+X+X+Xf.2 H.+X+X+X+X+X+X+X+X+X+X+X+X+X+X+X+X+X+X+X+X+X+X+X+X+X+X+X+X+X+X+X+X).w 4.+X+X+X+X+X+X+X+X+X+X+X+X+X",
"+X+X+X+X+X+X+X+X+X+X+X+X+Xf.2 H.+X+X+X+X+X+X+X.X@.J *.+X+X+X+X+X+X+X+X+X+X+X+X+X+X+X+X+X+X+X+X+X).w 4.+X+X+X+X+X+X+X+X+X+X+X+X+X",
"+X+X+X+X+X+X+X+X+X+X+X+X+Xf.2 H.+X+X+X+X+X+X+XX.. 6 X &.+X+X+X+X+X+X+X+X+X+X+X+X+X+X+X+X+X+X+X+X).w 4.+X+X+X+X+X+X+X+X+X+X+X+X+X",
"+X+X+X+X+X+X+X+X+X+X+X+X+Xf.2 H.+X+X+X+X+X+XoXb p M t N +X+X+X+X+X+X+X+X+X+X+X+X+X+X+X+X+X+X+X+X).w 4.+X+X+X+X+X+X+X+X+X+X+X+X+X",
"+X+X+X+X+X+X+X+X+X+X+X+X+Xf.2 H.+X+X+X+X+X+XOXE + j o / +X+X+X+X+X+X+X+X+XF.].+X+X+X+X+X+X+X+X+X).w 4.+X+X+X+X+X+X+X+X+X+X+X+X+X",
"+X+X+X+X+X+X+X+X+X+X+X+X+Xf.2 H.+X+X+X+X+X+X+X~.P u E _.+X+X+X+X+X+X+X+X[.> ..+X+X+X+X+X+X+X+X+X).w 4.+X+X+X+X+X+X+X+X+X+X+X+X+X",
"+X+X+X+X+X+X+X+X+X+X+X+X+Xf.2 H.+X+X+X+X+X+X+X+X+X!.+X+X+X+X+X+X+X+X+X+X( * 0 S.+X+X+X+X+X+X+X+X).w 4.+X+X+X+X+X+X+X+X+X+X+X+X+X",
"+X+X+X+X+X+X+X+X+X+X+X+X+Xf.1 H.+X+X+X+X+X+X+X+X+X+X+X+X+X+X+X+X+X+X+Xj.; m r b  X+X+X+X+X+X+X+X).w 4.+X+X+X+X+X+X+X+X+X+X+X+X+X",
"+X+X+X+X+X+X+X+X+X+X+X+X+Xf.1 H.+X+X+X+X+X|.+X+X+X+X+X+X+X+X+X+X+X+X'.h p m N , ' +X+X+X+X+X+X+X).w 4.+X+X+X+X+X+X+X+X+X+X+X+X+X",
"+X+X+X+X+X+X+X+X+X+X+X+X+Xf.2 H.+X+X+X+X+.x OX+X+X+X+X+X+X+X+X+X+X+X~ 1 B n m v , j.+X+X+X+X+X+X).w 4.+X+X+X+X+X+X+X+X+X+X+X+X+X",
"+X+X+X+X+X+X+X+X+X+X+X+X+Xf.2 H.+X+X+Xw.2 % ^ +X+X+X+X+X+X+X+X+X+Xd.; b n n n M a a `.+X+X+X+X+X).w 4.+X+X+X+X+X+X+X+X+X+X+X+X+X",
"+X+X+X+X+X+X+X+X+X+X+X+X+Xf.2 G.+X+Xp.2 h M ; -.+X+X+X+X+X+X+X+X).d d M n n n n B 4 Y +X+X+X+X+X).w 4.+X+X+X+X+X+X+X+X+X+X+X+X+X",
"+X+X+X+X+X+X+X+X+X+X+X+X+Xf.1 J.+Xx.3 f N m l < l.+X+X+X+X+X+X+XR 3 B n n n n n n m ; ,.+X+X+X+X).w 4.+X+X+X+X+X+X+X+X+X+X+X+X+X",
"+X+X+X+X+X+X+X+X+X+X+X+X+Xf.4 ).F.e s N n n N a e R.+X+X+X+X+Xe.; n n b n n b n b m j 8 L.+X+X+X).w 4.+X+X+X+X+X+X+X+X+X+X+X+X+X",
"+X+X+X+X+X+X+X+X+X+X+X+X+Xf.q I.W 5 B n b n n B 0 n  X+X+X+X^.y f m b b b n n b n b M q V +X+X+X).q 3.+X+X+X+X+X+X+X+X+X+X+X+X+X",
"+X+X+X+X+X+X+X+X+X+X+X+X+Xf.q H./ i n n n n n n B < Q +X+X+XT 4 B n n n n b n n n n n N ,  .+X+X(.w 4.+X+X+X+X+X+X+X+X+X+X+X+X+X",
"+X+X+X+X+X+X+X+X+X+X+X+X+Xf.w K._ p n n n n n n n m ; %.+Xq.: m n n n n n n n n n n n m c , c.+X(.w 4.+X+X+X+X+X+X+X+X+X+X+X+X+X",
"+X+X+X+X+X+X+X+X+X+X+X+X+Xf.w K._ p n n n n n n n m x s #.V h m n n n n n n n n n n n n M a g }.+X0 4.+X+X+X+X+X+X+X+X+X+X+X+X+X",
"+X+X+X+X+X+X+X+X+X+X+X+X+Xf.w K.) p n n n n n n n n M v e l B n n n n n n n n n n n n n n N 1 X.}.u 4.+X+X+X+X+X+X+X+X+X+X+X+X+X",
"+X+X+X+X+X+X+X+X+X+X+X+X+Xf.e I.Y # q q q q w w w q q w q q q w w q q q q w w q w w q q q w - x !.k 4.+X+X+X+X+X+X+X+X+X+X+X+X+X",
"+X+X+X+X+X+X+X+X+X+X+X+X+Xd.7 Q.v.*.1.1.1.1.1.1.1.1.1.1.1.1.1.1.1.1.1.1.1.1.1.1.1.1.1.1.1.1.=.s.{.a 3.+X+X+X+X+X+X+X+X+X+X+X+X+X",
"+X+X+X+X+X+X+X+X+XOX+X+X+Xd.$ S ( } [ [ [ [ [ ] [ ] [ [ ] [ [ [ [ [ [ [ ] [ [ [ [ [ [ [ ] [ { ` H @ 6.+X+X+X+X+X+X+X+X+X+X+X+X+X",
"+X+X+X+X+X+X+X+X+X+X+X+X+Xb.c z k l l l l l l l l l l l l l l l l l l l l l l l l l l l l l l k l j f.+X+X+X+X+X+X+X+X+X+X+X+X+X",
"+X+X+X+X+X+X+X+X+X+X+X+X+XOX.XXXXXXXXXXXXXXX.XXXXXXXXXXXXXXXXXXXXXXXXXXXXXXXXXXXXXXXXXXXXXXXXXXXXX.XoX+X+X+X+X+X+X+X+X+X+X+X+X+X",
"+X+X+X+X+X+X+X+X+X+X+X+X+X+X+X+X+X+X+X+X+X+X+X+X+X+X+X+X+X+X+X+X+X+X+X+X+X+X+X+X+X+X+X+X+X+X+X+X+X+X+X+X+X+X+X+X+X+X+X+X+X+X+X+X",
"+X+X+X+X+X+X+X+X+X+X+X+X+X+XP.).~.+X+X+XW.{.+X+X+X+X+X+X+X+X+X+X+X+X+X+X+X+X+X+XK.L.+X+XU.+X+XY.+X+X+X+X+X+X+X+X+X+X+X+X+X+X+X+X",
"+X+X+X+X+X+X+X+X+X+X+X+X+X+XR T z.l.6..XC.<.5.=.b.Z.9.D.;.V.t.g.OXV.,.N.C.B.e.y.>.>.z.e.$. .d.8.r.a.oX+X+X+X+X+X+X+X+X+X+X+X+X+X",
"+X+X+X+X+X+X+X+X+X+X+X+X+XXX;.Z L =.! Q.P.G ^ o.@.{ K / ( ( I ...X:.C ..W 9.D U &.*.} Y _ E | O.F | XX+X+X+X+X+X+X+X+X+X+X+X+X+X",
"+X+X+X+X+X+X+X+X+X+X+X+X+X.X~.V.f.M.t..X/.s.A.Q.J.r.p.e.A <.l.N.OXc.7.J.B.T.:.z.N.M.i.j.k.7.N.G.s.n.+X+X+X+X+X+X+X+X+X+X+X+X+X+X",
"+X+X+X+X+X+X+X+X+X+X+X+X+X+X+X+X+X+X+X+X+X+X+X+X+X+X+X'.q._.+X+X+X+X+X+X+X+X+X+X+X+X+X+X+X+X+X+X+X+X+X+X+X+X+X+X+X+X+X+X+X+X+X+X",
"+X+X+X+X+X+X+X+X+X+X+X+X+X+X+X+X+X+X+X+X+X+X+X+X+X+X+X+X+X+X+X+X+X+X+X+X+X+X+X+X+X+X+X+X+X+X+X+X+X+X+X+X+X+X+X+X+X+X+X+X+X+X+X+X",
"+X+X+X+X+X+X+X+X+X+X+X+X+X+X+X+X+X+X+X+X+X+X+X+X+X+X+X+X+X+X+X+X+X+X+X+X+X+X+X+X+X+X+X+X+X+X+X+X+X+X+X+X+X+X+X+X+X+X+X+X+X+X+X+X",
"+X+X+X+X+X+X+X+X+X+X+X+X+X+X+X+X+X+X+X+X+X+X+X+X+X+X+X+X+X+X+X+X+X+X+X+X+X+X+X+X+X+X+X+X+X+X+X+X+X+X+X+X+X+X+X+X+X+X+X+X+X+X+X+X",
"+X+X+X+X+X+X+X+X+X+X+X+X+X+X+X+X+X+X+X+X+X+X+X+X+X+X+X+X+X+X+X+X+X+X+X+X+X+X+X+X+X+X+X+X+X+X+X+X+X+X+X+X+X+X+X+X+X+X+X+X+X+X+X+X",
"+X+X+X+X+X+X+X+X+X+X+X+X+X+X+X+X+X+X+X+X+X+X+X+X+X+X+X+X+X+X+X+X+X+X+X+X+X+X+X+X+X+X+X+X+X+X+X+X+X+X+X+X+X+X+X+X+X+X+X+X+X+X+X+X",
"+X+X+X+X+X+X+X+X+XOX+X+X+X+X+X+X+X+X+X+X+X+X+X+X+X+X+X+X+X+X+X+X+X+X+X+X+X+X+X+X+X+X+X+X+X+X+X+X+X+X+X+X+X+X+X+X+X+X+X+X+X+X+X+X",
"+X+X+X+X+X+X+X+X+X+X+X+X+X+X+X+X+X+X+X+X+X+X+X+X+X+X+X+X+X+X+X+X+X+X+X+X+X+X+X+X+X+X+X+X+X+X+X+X+X+X+X+X+X+X+X+X+X+X+X+X+X+X+X+X",
"+X+X+X+X+X+X+X+X+X+X+X+X+X+X+X+X+X+X+X+X+X+X+X+X+X+X+X+X+X+X+X+X+X+X+X+X+X+X+X+X+X+X+X+X+X+X+X+X+X+X+X+X+X+X+X+X+X+X+X+X+X+X+X+X",
"+X+X+X+X+X+X+X+X+X+X+X+X+X+X+X+X+X+X+X+X+X+X+X+X+X+X+X+X+X+X+X+X+X+X+X+X+X+X+X+X+X+X+X+X+X+X+X+X+X+X+X+X+X+X+X+X+X+X+X+X+X+X+X+X",
"+X+X+X+X+X+X+X+X+X+X+X+X+X+X+X+X+X+X+X+X+X+X+X+X+X+X+X+X+X+X+X+X+X+X+X+X+X+X+X+X+X+X+X+X+X+X+X+X+X+X+X+X+X+X+X+X+X+X+X+X+X+X+X+X",
"+X+X+X+X+X+X+X+X+X+X+X+X+X+X+X+X+X+X+X+X+X+X+X+X+X+X+X+X+X+X+X+X+X+X+X+X+X+X+X+X+X+X+X+X+X+X+X+X+X+X+X+X+X+X+X+X+X+X+X+X+X+X+X+X",
"+X+X+X+X+X+X+X+X+X+X+X+X+X+X+X+X+X+X+X+X+X+X+X+X+X+X+X+X+X+X+X+X+X+X+X+X+X+X+X+X+X+X+X+X+X+X+X+X+X+X+X+X+X+X+X+X+X+X+X+X+X+X+X+X",
"+X+X+X+X+X+X+X+X+X+X+X+X+X+X+X+X+X+X+X+X+X+X+X+X+X+X+X+X+X+X+X+X+X+X+X+X+X+X+X+X+X+X+X+X+X+X+X+X+X+X+X+X+X+X+X+X+X+X+X+X+X+X+X+X",
"+X+X+X+X+X+X+X+X+XOX+X+X+X+X+X+X+X+X+X+X+X+X+X+X+X+X+X+X+X+X+X+X+X+X+X+X+X+X+X+X+X+X+X+X+X+X+X+X+X+X+X+X+X+X+X+X+X+X+X+X+X+X+X+X"
};
