/* XPM */
static char *seta[] = {
/* columns rows colors chars-per-pixel */
"97 125 16 1 ",
"  c black",
". c gray26",
"X c gray49",
"o c gray50",
"O c red",
"+ c green",
"@ c blue",
"# c #C0C0C0",
"$ c gray84",
"% c #D8D8D8",
"& c #DFDFDF",
"* c gray88",
"= c gray92",
"- c gray94",
"; c #F6F6F6",
": c white",
/* pixels */
"                                                                                                 ",
"                                                                                                 ",
"                                                                                                 ",
"                                                                                                 ",
"                                                                                                 ",
"                                                                                                 ",
"                                                                                                 ",
"                                                                                                 ",
"                                                                                                 ",
"                                                                                                 ",
"                                                                                                 ",
"                                                                                                 ",
"                                                                                                 ",
"                                                                                                 ",
"                                                                                                 ",
"                                                                                                 ",
"                                                                                                 ",
"                                                                                                 ",
"                                                                                                 ",
"                                                                                                 ",
"                                                                                                 ",
"                                                                                                 ",
"                                                                                                 ",
"                                                                                                 ",
"                                                                                                 ",
"                                                                                                 ",
"                                                                                                 ",
"                                                                                                 ",
"                                                                                                 ",
"                                                                                                 ",
"                                                                                                 ",
"                                                                                                 ",
"                                                                                                 ",
"                                                                                                 ",
"                                                                                                 ",
"                                                                                                 ",
"                                     .$**********************************&X                      ",
"                                    .;::::::::::::::::::::::::::::::::::::&                      ",
"                                   .;:+++++++++++++++++++++++++++++++++:::*                      ",
"                                  .;:+++++++++++++++++++++++++++++++++=:::*                      ",
"                                 .;:+++++++++++++++++++++++++++++++++=:=::*                      ",
"                                .;:+++++++++++++++++++++++++++++++++=:=@@:*                      ",
"                               .;:+++++++++++++++++++++++++++++++++=:=@@@:*                      ",
"                              .;:+++++++++++++++++++++++++++++++++=:=@@@@:*                      ",
"                             .;:+++++++++++++++++++++++++++++++++=:=@@@@@:*                      ",
"                            .;:+++++++++++++++++++++++++++++++++=:=@@@@@@:*                      ",
"                           .;:+++++++++++++++++++++++++++++++++=:=@@@@@@@:*                      ",
"                          .;:+++++++++++++++++++++++++++++++++=:=@@@@@@@@:*                      ",
"                         .;:+++++++++++++++++++++++++++++++++=:=@@@@@@@@@:*                      ",
"                        .;:+++++++++++++++++++++++++++++++++=:=@@@@@@@@@@:*                      ",
"                       .;:+++++++++++++++++++++++++++++++++=:=@@@@@@@@@@@:*                      ",
"                      .;:+++++++++++++++++++++++++++++++++=:=@@@@@@@@@@@@:*                      ",
"                      $::::::::::::::::::::::::::::::::::::=@@@@@@@@@@@@@:*                      ",
"                      *:%################################-:@@@@@@@@@@@@@@:*                      ",
"                      *:OOOOOOOOOOOOOOOOOOOOOOOOOOOOOOOOO#:@@@@@@@@@@@@@@:*                      ",
"                      *:OOOOOOOOOOOOOOOOOOOOOOOOOOOOOOOOO#:@@@@@@@@@@@@@@:*                      ",
"                      *:OOOOOOOOOOOOOOOOOOOOOOOOOOOOOOOOO#:@@@@@@@@@@@@@@:*                      ",
"                      *:OOOOOOOOOOOOOOOOOOOOOOOOOOOOOOOOO#:@@@@@@@@@@@@@@:*                      ",
"                      *:OOOOOOOOOOOOOOOOOOOOOOOOOOOOOOOOO#:@@@@@@@@@@@@@@:*                      ",
"                      *:OOOOOOOOOOOOOOOOOOOOOOOOOOOOOOOOO#:@@@@@@@@@@@@@@:*                      ",
"                      *:OOOOOOOOOOOOOOOOOOOOOOOOOOOOOOOOO#:@@@@@@@@@@@@@@:*                      ",
"                      *:OOOOOOOOOOOOOOOOOOOOOOOOOOOOOOOOO#:@@@@@@@@@@@@@@:*                      ",
"                      *:OOOOOOOOOOOOOOOOOOOOOOOOOOOOOOOOO#:@@@@@@@@@@@@@@:*                      ",
"                      *:OOOOOOOOOOOOOOOOOOOOOOOOOOOOOOOOO#:@@@@@@@@@@@@@@:*                      ",
"                      *:OOOOOOOOOOOOOOOOOOOOOOOOOOOOOOOOO#:@@@@@@@@@@@@@@:*                      ",
"                      *:OOOOOOOOOOOOOOOOOOOOOOOOOOOOOOOOO#:@@@@@@@@@@@@@@:*                      ",
"                      *:OOOOOOOOOOOOOOOOOOOOOOOOOOOOOOOOO#:@@@@@@@@@@@@@@:*                      ",
"                      *:OOOOOOOOOOOOOOOOOOOOOOOOOOOOOOOOO#:@@@@@@@@@@@@@@:*                      ",
"                      *:OOOOOOOOOOOOOOOOOOOOOOOOOOOOOOOOO#:@@@@@@@@@@@@@@:*                      ",
"                      *:OOOOOOOOOOOOOOOOOOOOOOOOOOOOOOOOO#:@@@@@@@@@@@@@@:*                      ",
"                      *:OOOOOOOOOOOOOOOOOOOOOOOOOOOOOOOOO#:@@@@@@@@@@@@@@:*                      ",
"                      *:OOOOOOOOOOOOOOOOOOOOOOOOOOOOOOOOO#:@@@@@@@@@@@@@@:*                      ",
"                      *:OOOOOOOOOOOOOOOOOOOOOOOOOOOOOOOOO#:@@@@@@@@@@@@@@:$                      ",
"                      *:OOOOOOOOOOOOOOOOOOOOOOOOOOOOOOOOO#:@@@@@@@@@@@@@:;.                      ",
"                      *:OOOOOOOOOOOOOOOOOOOOOOOOOOOOOOOOO#:@@@@@@@@@@@@@;.                       ",
"                      *:OOOOOOOOOOOOOOOOOOOOOOOOOOOOOOOOO#:@@@@@@@@@@@@;.                        ",
"                      *:OOOOOOOOOOOOOOOOOOOOOOOOOOOOOOOOO#:@@@@@@@@@@@;.                         ",
"                      *:OOOOOOOOOOOOOOOOOOOOOOOOOOOOOOOOO#:@@@@@@@@@@;.                          ",
"                      *:OOOOOOOOOOOOOOOOOOOOOOOOOOOOOOOOO#:@@@@@@@@@;.                           ",
"                      *:OOOOOOOOOOOOOOOOOOOOOOOOOOOOOOOOO#:@@@@@@@@;.                            ",
"                      *:OOOOOOOOOOOOOOOOOOOOOOOOOOOOOOOOO#:@@@@@@@;.                             ",
"                      *:OOOOOOOOOOOOOOOOOOOOOOOOOOOOOOOOO#:@@@@@@;.                              ",
"                      *:OOOOOOOOOOOOOOOOOOOOOOOOOOOOOOOOO#:@@@@@;.                               ",
"                      *:OOOOOOOOOOOOOOOOOOOOOOOOOOOOOOOOO#:@@@@;.                                ",
"                      *:OOOOOOOOOOOOOOOOOOOOOOOOOOOOOOOOO#:@@@;.                                 ",
"                      *:OOOOOOOOOOOOOOOOOOOOOOOOOOOOOOOOO#:@@;.                                  ",
"                      *:OOOOOOOOOOOOOOOOOOOOOOOOOOOOOOOOO%::;.                                   ",
"                      &::::::::::::::::::::::::::::::::::::;.                                    ",
"                      o&**********************************$.                                     ",
"                                                                                                 ",
"                                                                                                 ",
"                                                                                                 ",
"                                                                                                 ",
"                                                                                                 ",
"                                                                                                 ",
"                                                                                                 ",
"                                                                                                 ",
"                                                                                                 ",
"                                                                                                 ",
"                                                                                                 ",
"                                                                                                 ",
"                                                                                                 ",
"                                                                                                 ",
"                                                                                                 ",
"                                                                                                 ",
"                                                                                                 ",
"                                                                                                 ",
"                                                                                                 ",
"                                                                                                 ",
"                                                                                                 ",
"                                                                                                 ",
"                                                                                                 ",
"                                                                                                 ",
"                                                                                                 ",
"                                                                                                 ",
"                                                                                                 ",
"                                                                                                 ",
"                                                                                                 ",
"                                                                                                 ",
"                                                                                                 ",
"                                                                                                 ",
"                                                                                                 ",
"                                                                                                 ",
"                                                                                                 ",
"                                                                                                 "
};
