/* XPM */
static char *a730942ea47443edc1b9cc4bc6b7c88eb7SMmxlTtuW5sA5J[] = {
/* columns rows colors chars-per-pixel */
"64 64 39 1 ",
"  c #FB7D11",
". c #F75B27",
"X c #F6512D",
"o c #F44336",
"O c #FC810F",
"+ c #FC840C",
"@ c #FF9700",
"# c #FF9801",
"$ c #FF9B08",
"% c #FF9C09",
"& c #FF9E0F",
"* c #FF9E10",
"= c #FFA41D",
"- c #FFAB2E",
"; c #FFAD33",
": c #FFB13D",
"> c #FFB240",
", c #FFBC58",
"< c #FFBF62",
"1 c #FFC268",
"2 c #FFC672",
"3 c #FFCD82",
"4 c #FFD08B",
"5 c #FFD393",
"6 c #FFD493",
"7 c #FFDBA6",
"8 c #FFDCA8",
"9 c NavajoWhite",
"0 c #FFDEAE",
"q c #FFE0B3",
"w c #FFE2B8",
"e c #FFE5BF",
"r c #FFE7C4",
"t c #FFEACC",
"y c #FFEFD7",
"u c #FFF2E0",
"i c #FFF7EB",
"p c #FFFBF5",
"a c white",
/* pixels */
"aaaaaaaaaaaaaaaaaaaaaaaaaaaaaaaaaaaaaaaaaaaaaaaaaaaaaaaaaaaaaaaa",
"aaaaaaaaaaaaaaaaaaaaaaaaaaaaaaaaaaaaaaaaaaaaaaaaaaaaaaaaaaaaaaaa",
"aaaaaaaaaaaaaaaaaaaaaaaaaaaaaaaaaaaaaaaaaaaaaaaaaaaaaaaaaaaaaaaa",
"aaaaaaaaaaaaaaaaaaaaaaaaaaaaaaaaaaaaaaaaaaaaaaaaaaaaaaaaaaaaaaaa",
"aaaaaaaaaaaaaaaaaaaaaaaaaaaaaaaaaaaaaaaaaaaaaaaaaaaaaaaaaaaaaaaa",
"aaaaaaaaaaaaaaaaaaaaaaaaaaaaaaaaaaaaaaaaaaaaaaaaaaaaaaaaaaaaaaaa",
"aaaaaaa>>>>>>:>>:>>:>>:>>:>>>:>>>>:>>:>>:>>:>>:>>:>>>:>>>6aaaaaa",
"aaaaaaa#O     +#########################################@2aaaaaa",
"aaaaaaa#Xooooo.##########################################1aaaaaa",
"aaaaaaa#Xooooo.##########################################2aaaaaa",
"aaaaaaa#Xooooo.##########################################2aaaaaa",
"aaaaaaa#Xooooo.##########################################2aaaaaa",
"aaaaaaa#Xooooo.##########################################2aaaaaa",
"aaaaaaa#Xooooo.##########################################1aaaaaa",
"aaaaaaa#@@@@@@@##########################################2aaaaaa",
"aaaaaaa##################################################1aaaaaa",
"aaaaaaa##################################################1aaaaaa",
"aaaaaaa###########2uuuuuy#############8uuuuuq############2aaaaaa",
"aaaaaaa###########3aaaaap#############eaaaaat############2aaaaaa",
"aaaaaaa###########3aaaaap#############eaaaaat############2aaaaaa",
"aaaaaaa###########3aaaaap#############eaaaaat############2aaaaaa",
"aaaaaaa###########3aaaaap#############eaaaaat############1aaaaaa",
"aaaaaaa###########3aaaaap#############eaaaaat############2aaaaaa",
"aaaaaaa###########,999997#############3999994############1aaaaaa",
"aaaaaaa##################################################2aaaaaa",
"aaaaaaa##################################################2aaaaaa",
"aaaaaaa##################################################2aaaaaa",
"aaaaaaa#####################=555555%#####################1aaaaaa",
"aaaaaaa#####################;aaaaaa*#####################1aaaaaa",
"aaaaaaa#####################;aaaaaa*#####################2aaaaaa",
"aaaaaaa#####################;aaaaaa*#####################2aaaaaa",
"aaaaaaa#####################;aaaaaa&#####################2aaaaaa",
"aaaaaaa#####################;aaaaaa&#####################1aaaaaa",
"aaaaaaa#####################-iiiiii&#####################2aaaaaa",
"aaaaaaa##################################################2aaaaaa",
"aaaaaaa##################################################2aaaaaa",
"aaaaaaa##################################################2aaaaaa",
"aaaaaaa###############################-:::::;############1aaaaaa",
"aaaaaaa###########<eeeeew#############eaaaaat@###########2aaaaaa",
"aaaaaaa###########3aaaaap#############eaaaaat############1aaaaaa",
"aaaaaaa###########3aaaaap#############eaaaaat############2aaaaaa",
"aaaaaaa###########3aaaaap#############eaaaaat############2aaaaaa",
"aaaaaaa###########3aaaaap#############eaaaaat############2aaaaaa",
"aaaaaaa###########3aaaaap#############eaaaaat############1aaaaaa",
"aaaaaaa###########1tttttr#############$%%%%%$############1aaaaaa",
"aaaaaaa##################################################2aaaaaa",
"aaaaaaa##################################################2aaaaaa",
"aaaaaaa##################################################2aaaaaa",
"aaaaaaa##################################################1aaaaaa",
"aaaaaaa##################################################2aaaaaa",
"aaaaaaa##################################################2aaaaaa",
"aaaaaaa##################################################2aaaaaa",
"aaaaaaa##################################################2aaaaaa",
"aaaaaaa##################################################1aaaaaa",
"aaaaaaa##################################################2aaaaaa",
"aaaaaaa##################################################1aaaaaa",
"aaaaaaa@###################@###@###################@###@#2aaaaaa",
"aaaaaaa221122221122221122212221221122221122221122212221229aaaaaa",
"aaaaaaaaaaaaaaaaaaaaaaaaaaaaaaaaaaaaaaaaaaaaaaaaaaaaaaaaaaaaaaaa",
"aaaaaaaaaaaaaaaaaaaaaaaaaaaaaaaaaaaaaaaaaaaaaaaaaaaaaaaaaaaaaaaa",
"aaaaaaaaaaaaaaaaaaaaaaaaaaaaaaaaaaaaaaaaaaaaaaaaaaaaaaaaaaaaaaaa",
"aaaaaaaaaaaaaaaaaaaaaaaaaaaaaaaaaaaaaaaaaaaaaaaaaaaaaaaaaaaaaaaa",
"aaaaaaaaaaaaaaaaaaaaaaaaaaaaaaaaaaaaaaaaaaaaaaaaaaaaaaaaaaaaaaaa",
"aaaaaaaaaaaaaaaaaaaaaaaaaaaaaaaaaaaaaaaaaaaaaaaaaaaaaaaaaaaaaaaa"
};
