/* XPM */
static char *_1a96aed60b645fdf693035acedef3b2Ei3UVN34wryx0p9e[] = {
/* columns rows colors chars-per-pixel */
"64 63 191 2 ",
"   c #202020",
".  c gray13",
"X  c #222222",
"o  c #232323",
"O  c gray14",
"+  c #252525",
"@  c gray15",
"#  c #272727",
"$  c #282828",
"%  c gray16",
"&  c #2A2A2A",
"*  c gray17",
"=  c #2C2C2C",
"-  c #2D2D2D",
";  c gray18",
":  c #2F2F2F",
">  c gray19",
",  c #313131",
"<  c #323232",
"1  c gray20",
"2  c #343434",
"3  c #353535",
"4  c gray21",
"5  c #373737",
"6  c gray22",
"7  c #393939",
"8  c #3A3A3A",
"9  c gray23",
"0  c #3C3C3C",
"q  c gray24",
"w  c #3E3E3E",
"e  c #3F3F3F",
"r  c gray25",
"t  c #414141",
"y  c gray26",
"u  c #434343",
"i  c #444444",
"p  c gray27",
"a  c #464646",
"s  c gray28",
"d  c #484848",
"f  c #494949",
"g  c gray29",
"h  c #4B4B4B",
"j  c #4C4C4C",
"k  c gray30",
"l  c #4E4E4E",
"z  c gray31",
"x  c #505050",
"c  c #515151",
"v  c gray32",
"b  c #535353",
"n  c gray33",
"m  c #555555",
"M  c #565656",
"N  c gray34",
"B  c #585858",
"V  c gray35",
"C  c #5A5A5A",
"Z  c #5B5B5B",
"A  c gray36",
"S  c #5D5D5D",
"D  c gray37",
"F  c #5F5F5F",
"G  c #606060",
"H  c gray38",
"J  c #626262",
"K  c gray39",
"L  c #646464",
"P  c #656565",
"I  c gray40",
"U  c #676767",
"Y  c #686868",
"T  c DimGray",
"R  c #6A6A6A",
"E  c gray42",
"W  c #6C6C6C",
"Q  c #6D6D6D",
"!  c gray43",
"~  c #6F6F6F",
"^  c gray44",
"/  c #717171",
"(  c #727272",
")  c gray45",
"_  c #747474",
"`  c gray46",
"'  c #767676",
"]  c #777777",
"[  c gray47",
"{  c #797979",
"}  c gray48",
"|  c #7B7B7B",
" . c #7C7C7C",
".. c gray49",
"X. c #7E7E7E",
"o. c gray50",
"O. c #808080",
"+. c #818181",
"@. c gray51",
"#. c #838383",
"$. c #848484",
"%. c gray52",
"&. c #868686",
"*. c gray53",
"=. c #888888",
"-. c #898989",
";. c gray54",
":. c #8B8B8B",
">. c gray55",
",. c #8D8D8D",
"<. c #8E8E8E",
"1. c gray56",
"2. c #909090",
"3. c gray57",
"4. c #929292",
"5. c #939393",
"6. c gray58",
"7. c #959595",
"8. c gray59",
"9. c #979797",
"0. c #989898",
"q. c gray60",
"w. c #9A9A9A",
"e. c #9B9B9B",
"r. c gray61",
"t. c #9D9D9D",
"y. c gray62",
"u. c #9F9F9F",
"i. c #A0A0A0",
"p. c gray63",
"a. c #A2A2A2",
"s. c gray64",
"d. c #A4A4A4",
"f. c #A5A5A5",
"g. c gray65",
"h. c #A7A7A7",
"j. c gray66",
"k. c #A9A9A9",
"l. c #AAAAAA",
"z. c gray67",
"x. c #ACACAC",
"c. c gray68",
"v. c #AEAEAE",
"b. c #AFAFAF",
"n. c gray69",
"m. c #B1B1B1",
"M. c #B2B2B2",
"N. c gray70",
"B. c #B4B4B4",
"V. c gray71",
"C. c #B6B6B6",
"Z. c #B7B7B7",
"A. c gray72",
"S. c #B9B9B9",
"D. c gray73",
"F. c #BBBBBB",
"G. c #BCBCBC",
"H. c gray74",
"J. c gray",
"K. c gray75",
"L. c #C0C0C0",
"P. c #C1C1C1",
"I. c gray76",
"U. c #C3C3C3",
"Y. c gray77",
"T. c #C5C5C5",
"R. c #C6C6C6",
"E. c gray78",
"W. c #C8C8C8",
"Q. c gray79",
"!. c #CACACA",
"~. c #CBCBCB",
"^. c gray80",
"/. c #CDCDCD",
"(. c #CECECE",
"). c gray81",
"_. c #D0D0D0",
"`. c gray82",
"'. c #D2D2D2",
"]. c LightGray",
"[. c gray83",
"{. c #D5D5D5",
"}. c gray84",
"|. c #D7D7D7",
" X c #D8D8D8",
".X c gray85",
"XX c #DADADA",
"oX c gray86",
"OX c gainsboro",
"+X c #E4E4E4",
"@X c #E7E7E7",
/* pixels */
"7 7 7 7 7 7 7 7 7 7 7 7 7 0 7 7 0 7 3 * + * * + 7 7 7 7 3 3 3 > 3 3 > 3 7 7 7 7 7 7 7 7 7 7 7 7 7 7 7 7 7 7 7 7 7 7 7 7 7 7 7 7 ",
"n n n n n n n B n n n n n n n n n n s           n n n n h h h h h h h h n n n n n n n n n n n n n B n n n n n n n n n b n n n n ",
"@.OXOXOX`.`.`.`.[.`.`.`.`.`.[.`.`.`.`.`.H.2.b   A Y L.).oX[.oX[.oX[.[.`.j.;.b 3 z b e.A.OXOX[.Q.B.j.h.8.,.$. . . . . .} ) ) ~ Y ",
"@.OXOXOXL.L.H.H.L.L.L.L.L.L.L.L.L.H.L.H.h.~ r   ) h.oXoX).).).).).).`.).L.h.I 7 z n A.OXOXOXOXOXOXoXOXoXOXOXOXoXOXOXoX`.L.L.v.e.",
"@.oXQ.B.e.u.e.u.h.h.u.u.h.h.e.a.e.e.e.u.@.b r   ) M.R.j.8.a.e.e.a.u.e.h.2.) h 7 z b oXOXv.u.8.u.e.j.M.L.H.H.L.Q.R.H.L.R.R.H.L.Q.",
"@.oXA.h.j.h.@.;.h.h.u.h.u.h.a.8.u.;.@.;.;.b s   _ B.v.,.e.e.u.,.u.,.h.h.@.K z 3 h b oXOX,.;.u.,.,.,.8.h.,.,.8.h.u.,.8.h.u.,.8.h.",
") B.M.2.a.8.e.,.8.,.8.e.2.;.$.8.e.u.2.u.$._ s   _ B.B.u.e.j.8.u.2.u.2.e.;.K h 3 z b OX[.u.;.;.,.8.8.8.,.8.u.2.$.e.e.2.;.e.u.8.2.",
") M.M.8.h.h.8.h.,.,.2.8.8.,.$.e.u.;.,.;.;. .r   _ B.M.;.h.h.2.,.;.;.8.j. .I h 7 h b oX).u.,.,.,.u.h.,.,.8.;.a.e.u.,.a.8.u.,.a.8.",
"Y ;.v.,.2.,.8.,.e.2.e.2.u.8.8.8.,.2.8.;.2.$.s   _ B.M.e.u.2.,.,. . .e.;.$.I h 7 z b oX).2.$.,.2.u.,.,.8. .@.u.u.e.h.u.u.e.j.;.e.",
"I ,.v.;.2.e.,.,.,.,.,.,.2.,.8.j.,.e.8.,.8.,.r   _ B.B.h.8.,.,.,. . .,.;. .I h 3 h b [.).$. .2.e.u.,.;.,.$.;.8.h.8.h.8.h.2.j.,.8.",
"3 I B.u.8.2.a.e.2.2.u.e.,.8.;.e.u.e.2.2.;.;.s   _ B.v.,.e.e.;.2.8.8.;. .$.I z 7 h b oX`.2.a.e.e.2.u.2.2.2.u.8.;.$.$. .} } } } ) ",
"> b v.,.8.,.u.,.2.e.u.,.,.,.$.8.u.,.8.,.,.,.r   _ B.v.,.u.,.@.,.u.,.$.@.,.K h 3 z b oX).8.h.2.a.;.$.,.8.;.$.2.$.~ ~ I K b b b b ",
"7 b ,.Y @.@._ } @.$.2.8.e.e.u.e.8.;.e.u.2.$.r   ) B.B.u.2.e.8.u.2.$.e.e. .n s = h b [.Q.;.} ~ K A B B n b b z z s s r 0 7 3 3 = ",
"r b Y b b b b b I ~ } } 8.a.e.$.e.;.a.a.$.} r   Y B.M.;.,.,.2.,.e. .u.,.@.n s = z b `.H.Y I b b b b b b z b s s 3 3 *           ",
"0 =     + = 3 3 r r r r r r r r r r r r r r +   ~ B.M.e.2.u.2.8.e.8.,.2.) b s = h z ) B 0 0 = = +             * + = = = * = 3 7 ",
"b 0 + + +       = = * = = * * * * = = = = = +   Y M.B.h.,.;.;.e.8.h.,.,.~ b s * s s >   +   + +   + +   +   * = 3 7 7 7 0 r n B ",
"M.j.u.;. .) B z 7 0 7 7 > 3 > * * +         7 7 Y B.M.2.,.$.e.2.,.$.,.2.A n r = h z n n b b I ) 2.8.e.8.2.;.I s b n ~ _ a.M.Q.Q.",
"OXOX[.L.A.v.2.$.A K K K B n b s s 0 > = = + 3 3 ~ M.B.e.$.@.8.,.;. .$.e.K n r = z n n B A K @.8.Q.oXoX[.).A._ 7 n B ,.u.).@X@X@X",
"L.L.).).oXoXOXOXoXoXOXoXOXOXOXoXoXOXR.B._ z * 7 ~ M.A.j.2.2.e.e.;.@.,.2.B n 7 = h b ;.H.L.L.B.L.B.M.e.e.8.;.h 7 ~ e.`.[.R.H.j.h.",
"h.j.H.H.Q.`.oXoXoXoX[.oXoX[.[.oX[.[.B.h.I b * 3 ~ B.B.h.e.,.u.,.,.,.8.,.n n 3 = z b B.OXH.h.8.h.8.h.;.;.u.,.h 7 ) j.[.).H.A.a.M.",
"e.e.e.e.8.e.j.h.a.a.v.M.u.u.u.e.h.a.e.e.n n + * Y B.M.2.a.u.;.e.8.e.2.e.n n 3 = h n OXOX,.2.a.2.2.2.2.a.,.,.h 3 } L.`.A.e.8.8.e.",
"u.;.;.,.8.j.8.,.8.;.h.a.2.8.u.,.a.h.2.h.n n + = ~ B.B.e.u.h.$.;.2.;.,.;.n n > = h b oXOX,.e.a.e.8.,.8.h.,.;.h 3 _ L.[.A.,.e.;.;.",
",.e.e.;.a.u.a.e.u.a.e.2.8.;.e.,.8.2.,.8.n n   + Y B.B.h.e.e.8.,. . .2.,.n n * * z b B.OX2.,.8.,.2.2.e.2.e.2.s   } `.R.e.8.e.e.e.",
"8.h.u.,.u.8.u.;.e.h.a.8.,.,.2.,.u.,.2.e.n n     ~ B.A.h.2.a.,.,.@. .,.,.n n   * h b v.OX2.,.,.,.8.,.e.;.u.8.r   } OXR.,.e.h.u.8.",
"e.e.,.e.2.2.u.2.2.e.e.2.u.,.;.;.e.2.8.j.n n *   K M.v.,.2.$.;.2.2.u.,.,.n n + * h b $.OX,.8.8.2.8.e.,.,.e.8.s   } oXR.e.e.e.2.2.",
";.u.@.@.2.$.u.8.8.h.8.e.e.;.,.,.e.;.2.a.n n +   K M.M.2.e.@.@.;.8.a.;. .n n + = z b } oX,.e.e.;.,.u.$.$.8.,.r   } oXA.;.8.2.2.2.",
"n n n n A K ~ Y ~ Y Y ~ Y ~ ~ Y Y Y Y K b n *   K B.M.8.e.8.,.$.8.;.e.,.n n   = z b Y v.) _ Y K n s s r r s 7   ~ H. .K n n n n ",
"z h h z z z z b z z z z z b z z b b z z z b +   K B.v.,.u.2.,.;.e.,.e.,.n n + = z n B  .h h z z s > 3 3 > 3 >   A 8.I z z h h z ",
"        + * = * * * * * * * * * * * * * * * +   A B.B.u.e.8.2.8.,.2.8.2.b z   = h b 0 = = > = = + * + + = = > =                 ",
"* + +   +                                       K B.B.a.u.,.8.h.2.e.2.$.b s + = z n s 0 0 0 0 0 > 3 3 > 0 0 0 0 * + * + +   * * ",
"b n z h r 0 0 7 7 7 7 3 3 3 7 3 7 7 7 3 =   = > ~ B.v.$.e.2.8.,.,.;.) B h r + 3 h b B I ,.e.j.j.j.j.j.j.j.j.j.j.h.j.a.8.~ > s b ",
"b b B K A K K K K A K K K K K K K A K K s   7 0 ) M.M.2.e.2.2.,.@._ B z 0 > * 3 z b I } B.R.OXOXOXOXOXOXOXOXOXOXOXOX).H._ = r n ",
"z z h.Q.`.OXOXOXOXOXOXOXoXoXoXoXOXoX`.H.I   r n _ B.M.8.;.e.$._ n z 7 *     3 h n n ,.Q.[.Q.B.j.v.j.M.A.j.j.M.A.v.A.8.$.z + 7 n ",
"z h A.OX[.[.[.`.`.`.).`.`.).`.).`.).L.u.b   r n _ B.v.,.@.2.@.K z r =   * * s b n n u.oX`.A.u.2.,.;.8.h.,.;.e.h.2.h.@.Y 0   7 n ",
"b s `.OXa.h.e.j.a.h.8.h.e.;.e.u.2.,.@.A 7   r n _ B.B.u.,.8. .n 7 * 3 r ;.j.h.e.b b R.OXB.2.2.8.e.,.2.,.8.u.8.2.e.,.} n >   > n ",
"z s OXoX8.h.8.a.h.a.8.h.8.2.2.h.2.2.} b 7   s n _ B.B.h.,.,.} n =   z ~ B.oX).B.b b ).OXv.e.,.,.e.,.,.,.e.h.,.2.u.2.} b >   > n ",
"b s OXOX8.e.8.u.2.8.2.2.8.8.;.,.u.u._ n >   r n _ B.B.a.;._ Y n +   a.OXv.A.a.$.b b oXOX2.a.2.8.2.h.e.8.,.,.2.u.e.8.@.n >   > n ",
"z s oX`.,.8.8.a.,.8.,.,.2.;.2.2.u.8. .n >   r n _ B.B.a.@.~ A z     B.`.e.h.2.~ b b OXOX8.h.8.e.8.h.a.e.,.,.,.8.2.,.@.n >   > n ",
"z h h.@.} } 8.,.2.;.e.;.e.;.u.8.e.,. .n >   r n _ B.M.2.@.I h 7 7 Y Q.j.e.8._ 7 b s OXOXe.,.2.2.2.8.e.u.a.a.u.u.8.2.;.n >   > n ",
"z s ;.Y Y I ;.2.8.,.e.,.u.2.e.;.e.;.) n >   r n _ M.M.e._ K h 3 h 8.R.a.e.8.~ > z h OXOXu.2.,.,.2.8.8.2.h.a.h.a.e.2.;.n >   3 n ",
"z h r s = = A ~ Y I I I I ~ K I I I b h =   r n _ B.u.) n n 7 + B [.u.a.e.2.h   b s OXOXa.j.e.;.a.8.u.u.8.u.u.u.8.u.} n >   > n ",
"z h 0 0 +   s z z z z z z z z z z z h s =   r n _ B.8.K b z =   K OX8.h.e.8.r   z s OXOXa.h.u.2.u.2.a.a.8.a.e.a.2.8. .b >   > n ",
"b n n n s >   + * + + * + + * * + * + +     r n ) j.A r 7 =     I e.h.a.2.8.r   z s OXOX,.2.8.2.,.8.;.,.;.,.2.8.,.,.) b >   > n ",
"n n n n z r + +   +       +       +   + +   s n I ,.s 3 > * + + B I ,.;. .;.r   z h oX`.,.$.$.@.@. .@. .@. .@.;. .@.K b >   > n ",
"n b h z b b h h h h h h h h s h s h h s h h s 0 > * +   + > s z z s +   * = *   b s B.a.) B r r 0 r r r r r r r r r r r >   > n ",
"B K I I ~ ~ Y K B B b b b n b b b b b b b z h 0 3 * * * > 7 b b b z = = + *     b r ,.} n h > 3 3 > 3 > > > 3 > > 3 > > =   7 n ",
"_ B.[.[.[.[.).Q.H.H.A.A.8.$.K b n n b h u.B.B.B.B.B.B.B.B.B.B.B.$.} A h r s s s h 3 3 *                                 + > r n ",
"} L.OXOXoX[.oXoX[.oXoXoXA.h.@.Y b z z h L.OX[.[.[.oX[.[.[.[.[.[.v.a.@.~ Y K n b h 3 0 3 +   +     +   + +   + +   + + + = 7 s n ",
"} L.oX`.h.u.e.u.h.M.v.h.a.M.2.} h 7 z s [.R.a.v.u.v.j.a.e.a.h.e.v.a.R.R.R.A.h.a.B s h r z h h z r r r r r r h r r r r r s r r = ",
"_ L.`.L.2.;.2.2.e.h.u.8.2.a. .I h 7 b s [.L.8.j.e.u.a.8.8.u.e.2.e.,.M.M.B.B.B.M.} K 0 > z n n A K K K K A K I K K K A K K K s   ",
"} L.H.,.e.u.2.2.8.e.,.;.e.;.@.K s + z h `.L.8.e.e.a.e.u.2.8.,.8.$.8.2.a.a.,.2.,.,. .r   0 n  .u.).).).).).).).).).).).).Q.A.h   ",
"} H.H.8.u.j.2.,.8.8.2.8.e.,.} K 0   z h [.L.,.8.8.a.2.u.,.2.;.;.,.e.8.u.u.2.,.,.$.Y s   r n e.A.[.).Q.).R.R.Q.).Q.R.Q.).L.M.r   ",
"_ L.R.h.a.e.2.8.2.2.2.2.e.,.Y n >   B A [.L.;.,.8.;.,.;.2.e.,.,.h.e.8.u.a.h.8.8.@.n s   r n A.OXB.2.u.2.;.,.8.h.e.a.2.2.e.;.r   ",
"} L.H.a.u.8.8.8.2.,.2.;.u.;.Y n =   B Y [.L.2.,.,.,.,.,.2.,.;.2.a.u.8.h.h.u.e.2.} n r   r b A.OXj.8.u.2.,.8.8.u.2.j.,.,.e.8.s   ",
"} L.L.a.,.8.2.,.8.8.e.a.,.8.K b + * Y ,.`.L.;.;.2.a.2.;.;. .@.,.e.2.u.2.e.8.u.,.B n 3   h b A.OX2.e.8.h.8.2.,.,.8.2.u.,.u.2.r   ",
"_ L.L.a.8.2.,.,.2.2.2.u.8.8.A z + = ~ u.[.L.$.,.e.a.8.8.$.@.,.2.2.2.u.8.8.e.u.8.n n =   z n A.`.2.8.2.h.8.,.2.8.8.2.e.,.e. .s   ",
"} L.A.,.2.8.,.,.,.,.,.;.2.;.b h + 7 } `.Q.v.8.h.8.h.,.2.2.,.2.e.8.2.8.2.u.2.8.2.n n >   b n u.;.~ Y ~ ~ ~ ~ ~ ) ~ ~ Y ) I B s   ",
"_ L.H.8.2.8.,.;.,.8.,.,.2.8.z r * 3 } oXA.8.@.2.@.,. .} @. . .$.@. .@. .$. .@. .n n =   n n ;.) A K A A A K A A A A K A B n 7   ",
"} L.A.2.,.;.e.,.8.2.h.h.@.) h 3 = s ~ B.) B n n b b b b n n n n b n n n n b n n z 0 + * z 0 3 * * * * * * * * * = * * * * * +   ",
"_ B.v.@. .@.;.@.$. .2.8._ A h 7 = z B  .b r s r r s s s r s r s s r s r s s r s 0 = + > h 3 =                                   ",
"B K ~ h z z s r r r r r r 0 7 = > n 0                                               + 7 b b 7 3 > 3 3 3 3 3 3 3 3 3 3 3 > 3 0 z ",
"z r z 7 0 0 3 > > > > = > > = * > n r = + + + + + + +     + + + + + + +   +   + + + > r b n r r r r r r r r r r r r r r r r s b ",
"r                               > b z h 3 = = = = = = = = = = = * = = = = = = = = = r n b n n n n n n n n n n n n n n n n n b b "
};
