/* XPM */
static char *_ba68ffe60fe4b23b8ff3ce12ea258e7qbT02GeskQmttoqq[] = {
/* columns rows colors chars-per-pixel */
"64 64 115 2 ",
"   c black",
".  c #020202",
"X  c #040404",
"o  c gray2",
"O  c #070707",
"+  c #090909",
"@  c gray4",
"#  c #0B0B0B",
"$  c #0C0C0C",
"%  c #0E0E0E",
"&  c gray6",
"*  c #101010",
"=  c gray7",
"-  c #131313",
";  c gray8",
":  c #151515",
">  c gray9",
",  c #181818",
"<  c gray10",
"1  c #1B1B1B",
"2  c gray11",
"3  c #1D1D1D",
"4  c #1E1E1E",
"5  c gray12",
"6  c #202020",
"7  c gray13",
"8  c #222222",
"9  c #232323",
"0  c gray14",
"q  c #252525",
"w  c gray15",
"e  c #272727",
"r  c #282828",
"t  c gray16",
"y  c #2A2A2A",
"u  c gray17",
"i  c #2C2C2C",
"p  c #2D2D2D",
"a  c gray18",
"s  c #2F2F2F",
"d  c gray19",
"f  c #313131",
"g  c #323232",
"h  c gray20",
"j  c #343434",
"k  c #353535",
"l  c gray21",
"z  c #373737",
"x  c gray22",
"c  c #393939",
"v  c #3A3A3A",
"b  c gray23",
"n  c #3C3C3C",
"m  c gray24",
"M  c #3E3E3E",
"N  c #3F3F3F",
"B  c gray25",
"V  c #414141",
"C  c gray26",
"Z  c #434343",
"A  c #444444",
"S  c gray27",
"D  c #464646",
"F  c gray28",
"G  c #484848",
"H  c #494949",
"J  c gray29",
"K  c #4B4B4B",
"L  c #4C4C4C",
"P  c gray30",
"I  c #4E4E4E",
"U  c gray31",
"Y  c #505050",
"T  c #515151",
"R  c gray32",
"E  c #535353",
"W  c gray33",
"Q  c #555555",
"!  c #565656",
"~  c gray34",
"^  c #585858",
"/  c gray35",
"(  c #5A5A5A",
")  c #5B5B5B",
"_  c gray36",
"`  c #5D5D5D",
"'  c gray37",
"]  c #5F5F5F",
"[  c #606060",
"{  c gray38",
"}  c #626262",
"|  c gray39",
" . c #646464",
".. c #656565",
"X. c gray40",
"o. c #676767",
"O. c #686868",
"+. c DimGray",
"@. c gray42",
"#. c #6C6C6C",
"$. c #6D6D6D",
"%. c gray43",
"&. c #6F6F6F",
"*. c gray44",
"=. c #717171",
"-. c #727272",
";. c gray45",
":. c #747474",
">. c gray46",
",. c #777777",
"<. c gray47",
"1. c #797979",
"2. c gray48",
"3. c #7B7B7B",
"4. c #7C7C7C",
/* pixels */
"i i i i i i i i i i i i i i i i i i i i i i i i i i i i i i i i i i i i i i i i i i i i i i i i i i i i i i i i i i i i i i i i ",
"i i i i i i i i i i i i i i i i i i i i i i i i i i i i i i i i i i i i i i i i i i i i i i i i i i i i i i i i i i i i i i i i ",
"4.4.4.4.4.4.4.4.4.4.4.4.4.4.4.4.4.4.4.4.T d   0 C [ 4.4.3.:.:.3.3.3.#.O.A 1   0 i N I 3.4.4.4.#.#._ W C C G G G A G G G A 6 6 i ",
"4.4.4.4.4.4.4.4.4.4.4.4.4.4.4.4.4.4.4.4.i i   0  .3.4.-.#.-.-.-.-.#.-.-. .C   0 i / #.4.4.4.4.4.4.4.4.4.4.4.4.4.4.4.4.4.-.% * i ",
"4.4.O.T / W _  .[ [ / [ [ T / T / W / T i i   0 4.3.[ T [ W _ [ _ T  ./ d 0   1 i #.4.O.[ W T I I O.O.O.#.#.#.:.-.#.#.I N @ % i ",
"4.4. . .W x T  .[ W [ T  . ./  .A x T  .i i   0 3.-.G W W [ G _ G [  .I 6 6   1 i -.4.T G _ _ G G G T I G G T  ._ G T k y o % i ",
":.4.W  .W / I / I I T I A x W T W G W G d i   6 3.-./ T  .T / I _ G T / 6 6   1 i #.4.O._ G G W T / W I T W I T W T T d i @ % i ",
":.4./  ._ G _ G G G W W A x /  .G G G G x d   1 4.-.G [  ./ G G G G  .I 6 6   1 i #.3. ._ G G T / I G T T _ _ [ _ [ [ d i o * i ",
"/ 4.G T T _ I / W / W _ T T I G I W I W N i   1 4.-.T _ T G A N x / G I 6 6   1 i -.3.T I A G [ _ G G N N W / T W A A k i @ % i ",
"/ 4.G G T G G G G G I W G G _ G W W G W G d   1 4.-. .W G G G x x A G G 6 6   1 i #.:.T A A I [ _ G G x N G T I T I I d i o % i ",
"G 4.W I W  ./ T T / W G I A W / W I I G G k   1 4.-.G T _ G T T T T x I 6 6   1 i #.3.I I / / G I T T G I T T G I G G k i o * i ",
"G 4.I W T  .G G /  .G G C x /  .I W G G G d   5 4.-.G [ A N G [ G G x _ 6 6   1 i -.:.T T I T I G G I G G T I N x x x x k @ % i ",
"N  .N T G C C x I W W T W / / T G T W T A d   * 4.-._ I _ I _ W C I / T 6 6   1 i O.-./ I N x k k k k k k k d y 0 y y 5 5 o % i ",
"d x i i y y y 5 d x C T  . .T [ T [ _ G x d     4.-.G A G T G _ x _ G T 6 6   1 i _  .C k y i y i i i y i i i 6 6 6 5 o     * i ",
"        > > > 5 5 5 5 5 5 5 5 5 5 5 5 5 5 5     4.-.T G _ I W / T G T A 6 6   1 i N x 6 5 > > > > > >                       % i ",
"                                                4.:. .I A N W G  .I G N 6 6   1 i @                                         * i ",
"0 0 5 % % % * % * % * % * % % * @               4.-.I T A / T T A G I k 6 o   1 i i i i i k x C A G G A A x d y i 6 5 5 1 5 5 1 ",
"i i i i i i i i i i i i i i i i 5               4.-.T G x T G A x x W k 6 o   1 i i i i i C T 3.4.4.4.4.:./ x 0 i @             ",
"N N N N N N C N G G _ [ 3.3.4.4.3.4.O.T %       4.-. .I T T _ I N C T d 6 o   1 i 6 k #.-.O.#.#.#._ _ W I d 5 0 x  .-.4.4.4.4.4.",
"4.4.4.4.4.4.4.3.4.4.4.4.3.3.4.4.3.4.T i 5 o     4.-. ./ A [ G G A T G 0 6 o   1 i I [ -.#.I T I T I G [ _ i 5 0 N 3.4.4.4.4.4.4.",
"O.#.#.#.-.-.#.#.#.#.#. ._ / [  ._ [ A i 6 o     4.-.I _ / A _ I _ I / y 6 o   1 i -.4.T G [ _ I I G I G G d 5 0 A 4.4.[ / T W _ ",
"G G I W _ W I W T [ _ G /  ./  .[ W T i 6 o     4.-.T W  .N G W G G G 0 6 o   1 i #.4.T I [ [ W T G T I G d 5 6 G 4.4.T G G G G ",
"W / T / [  ._ _ / T T / I T I T I A C i 6 o     4.-. ._ T / G x x I G y 6 o   1 i _ #.W G / W I I T T T T d 5 1 N 4.-.I I T W W ",
" . ./  ./  .I W  . .T G I W T  .G G A i 6 o     4.-. .I  .I G N x A G 0 6 o   5 i I [ _ T G G T T [ / [ [ k 5   y 4.#.T /  .[ W ",
"W W W I T T G G _ [ W  .G G G T I G T i 6 o   1 4.-.G T A A T G T G W y 6 o   5 i 6 N T G I T T T G G T T d 5   y 3.-.T T I I G ",
"[ W I W T  .T G _ W /  .G G T  .G G T i 6 o   1 4.-.G _ x x A G  .I x 0 6 o   1 y @ y T I [ _ G T I G [ _ d 5   y 3.#.[ [ W W W ",
"i i d k x N N N N C C N N N N N N C i i 6 o   1 4.-._ W _ T N I G T G 0 6 o   1 i o 5 G G C x i y y y 0 0 5 >   0 / G i i i i i ",
"i i i i i i y y y i i y i i y y y i i i 6 o   1 4.:.G _ G G A [ G [ G y 6 o   1 i o 1 x k y i i y 5 5 5 >       6 C k i i i i i ",
"> > > > * > > > > > > > * > > > > > > >       1 4.-.T T _ T G G G I T y 6 o   1 i * @                                           ",
"                                              5 4.-. . .G G [ I W W G 0 6 o   1 i 6 >                                           ",
"y 0 @                                     % 6 0 4.-.N I T W G T I A y 6     @ 6 i i y i d N N N N N N N N N N N N N C x 0 * 5 i ",
"y i 5                                     0 i i 4.-.A [ G T G G x i 6 6     6 y i i i A T :.4.4.4.4.4.4.4.4.4.4.4.4.4.O.A   % i ",
"d N -.:.4.4.4.4.4.4.4.4.4.4.4.4.4.4.O.T   1 i i 4.-._ A _ T A d y 6 >     @ 6 y i k G 3.3.:.:.-.#.-.#.-.-.#.-.-.-.#. .C 0   * i ",
"C  .3.4.4.4.4.4.4.4.4.4.4.4.4.4.4.4.T i   1 i i 4.-.G N G G x 0 6 6       5 i i i C / 4.4.O._ W W W / W W W / W / / T y >   % i ",
"C :.:. .[ _ _ T _ I [ [ T [ W [ W [ i y   1 i i 4.-.T G _ / y 6 > o % 1 A G G d i [ -.:. .I W / W / W I I / / W T I N 6 >   * i ",
"A 4.#.G _ G  . ._ W [ T I W [ W I W y 6   1 i i 4.-. .I G G 6 6     i I 4.4.4.x i -.4.O.[ I I [ [ G G T W I I [ [ G N 6 >   % i ",
"G 4.-./ W W W T T _ I I W G I T W G y 5   1 i i 4.-.T T A C 6 o   d 4.#.:.:.I 0 i #.4.T I I I G T T T G I I W W W W A 0 >   % i ",
"G 4.#.G W W _ G T G I W G G T [ T G y 6   1 i i 4.-. .I x i 6 o   A 4.T  . .x 0 i -.4.T T / W I T  .[ G G G I W T W G 6 *   * i ",
"A :.I N T _ I I T / I T T / _ / G T 0 6   1 i i 4.-.I I k 6 > o 1 O. .[ W T   5   O.4./ T / W W / W / _ / T T W W [ T 6 >   % i ",
"N  .i y x T I W /  ./ [ /  ./  .G G y 6   1 i i 4.-.W G i 6     G :. ./ W G   1    .4.O./ G G W W W W [  . . ./ T [ T 6 >   * i ",
"o   > > 1 0 T T C A C A T A C A N d y 6   1 i i :.:.I k 6 6     4.-./ _ I d   1   O.4./ / W T [ [ / / _ / _ _ _ _ I N 6 >   % i ",
">       @ 5 i i y y i i i i i y i i 0 5   1 i i -.3.x 0 6 6     4.T  .W W k   1    .4.O. . .[ [ [ [  .W / / / / W G C 0 >   % i ",
"i i y 0 o   @ > > > > > > > > > > > > >   1 i i #.I 6 6 > o   %  . ./ W I d   1   O.4.T G I T I T T T G G T I I I T A 6 >   * i ",
"i i i i >                                 1 i i W k 6 6       0 x _  .I W d   1    .4.T G T T G G G G G G G I G G d i 0 >   % i ",
"i i i i y 0 % * * % * % % * * * % * % * % 6 y 6 @ % @     % * 0 *         1   1    .-.I C y y 0 y y 0 y y y 0 y 0 y 0 o     % i ",
"i i i i y i i i i i i i i i i i i i i i i i 6 6 5 5 5 o   0 i i i @           1   _ O.N d 6 6 6 6 6 6 6 6 6 6 6 6 6 >       % i ",
" .:.:.:.-.#._ / I A A N x k i i i i i x N x x N x N N x N x N k i i 5 o   @ @ 5                                             * i ",
":.4.4.4.4.4.4.4.4.4.:. .T G k i i i x  .#.-.#.-.-.-.#.-.#.-.-. .G d       1 6 6                                             % i ",
":.4.3.#.#.O.#.#.:.:.#.#.-.O.A i % i N #.4.:.:.#.:.:.#.#.-.:.O.-.#.-.3.#.[ G 0 1   1 6 * * * *             % @             1 1 5 ",
":.4.-.W G G G G  . .T G _ G 0 i * i x -.4.O. .I  . .W G W [ G [ G _ -.4.4.3.-.T     % y i i i @           0 5                   ",
":.3.I I T T _ _ / T G T G G 0 i % i x -.4./ [ _ T / T / _ G _ A I G T [ G /  .O._ 5 @ 1 0 i x  .#.#.#.#.#.#.#.#.#.#.#.#.#.N 6   ",
":.3.I W / G G G T G T  .G G 0 i % y N -.4.T W G  .I  .I G G G N W G  . .G G G G W d 1 5 0 x A 3.4.4.4.4.4.4.4.4.4.4.4.4.4.x 5   ",
":.4._ T _ _ T / I G / T G k 5   % i N #.4.T G / G G G G W G G _ [ _ G T  .T I T i i 5 1 0 / #.4.-.T W I A G T / / G I W I d 5   ",
":.4. . .T G T G G G T [ N i 5   * i x -.4.T G T G G G G T I G [ W G  . . .W W W i i 5 1 0 _ #.4.O.[ _ G G G T I T I G [ / d 5   ",
":.4.T T T / T / T _ T T C 0 5   * i I :.:./ G C T W G I x x T W _ / / _ I [ G d y y 1 1 0 _ #.T T I T T T T I I T T T T W d 5   ",
":.4./ G T G G G T G _ G C 5 5   * i [ 4.[ C G G  ./ G G x x G T G [ G W W [ G d i 6 > 1 0 _ #.T I G T W T G G T T [ / [ _ d 5   ",
":.4.I _ I T G G A G I _ N 6 5   @ 5 -.3. .I / _ T G / I G / W I / W _ W / T / k i 6 > 1 6 _  .G A A A G I A G A A A A I N i 5   ",
":.4.G G T G G A G G G G N y 5       3.3.[ I [ I  .I G T G G W T G W G _ G T G d i 6 > 1 0 _ W k x x x k x x x k x x x k d i 5   ",
"-.3.W G G T G I / T W G C i >       O.T y y 0 y y y y y y 0 y y y y 0 y 0 y y y y @   0 0 0 6 > > > > > > > > > > > > > > > %   ",
"-.#.G G T  .I T T  ._ G 0 y >       T i 6 6 6 6 5 5 6 6 6 6 6 6 6 6 6 6 6 6 6 5 6 o   0 5                                       ",
"T O.y 0 y 0 y y y y 0 y y y %   5                                                   o 0 6                                   o % ",
"x W 6 6 6 5 6 6 5 6 6 6 5 5     5                                                   % y y o                                 % i ",
"* > > * * > > * * > * > * > * > i y y y y y y 0 y y y 0 y 0 y y y 0 y y 0 y y y y 0 y d d d i y y y y 0 y 0 y y y 0 y y 0 y i d ",
"x x x x x x x x x k x x x x x k x x k x x k x x k x x x x x k x x x x x x x x k x x k x x x x x k x x x x x k x x x x x x x x x "
};
