/* XPM */
static char *welton[] = {
/* columns rows colors chars-per-pixel */
"64 64 223 2 ",
"   c #0E0C19",
".  c #14121E",
"X  c #150E1B",
"o  c #161421",
"O  c #191624",
"+  c #1C1A25",
"@  c #1D1C29",
"#  c #211D26",
"$  c #221E2B",
"%  c #1E202E",
"&  c #202020",
"*  c #25212C",
"=  c #2A242D",
"-  c #2C2C2C",
";  c #2A2225",
":  c #342A2D",
">  c #252331",
",  c #2B2532",
"<  c #2D2A34",
"1  c #2D2A39",
"2  c #332C34",
"3  c #342C3A",
"4  c #3A2E37",
"5  c #34323C",
"6  c #3B323D",
"7  c #383838",
"8  c #3C3233",
"9  c #400000",
"0  c #4C0000",
"q  c #580000",
"w  c #561518",
"e  c #640000",
"r  c #6A0405",
"t  c #700000",
"y  c #7C0000",
"u  c #750A07",
"i  c #6F1312",
"p  c #42363D",
"a  c #473A37",
"s  c #4D3732",
"d  c #543C1C",
"f  c #585400",
"g  c #706C00",
"h  c #4C413B",
"j  c #574639",
"k  c #54422D",
"l  c #654A39",
"z  c #6A5239",
"x  c #725937",
"c  c #7F603E",
"v  c #3B3441",
"b  c #393844",
"n  c #423B44",
"m  c #463A44",
"M  c #513D45",
"N  c #484848",
"B  c #4A4247",
"V  c #56494D",
"C  c #564747",
"Z  c #5B5049",
"A  c #4C4955",
"S  c #554B52",
"D  c #5B4C53",
"F  c #514A55",
"G  c #545454",
"H  c #55525C",
"J  c #5B555D",
"K  c #5E5353",
"L  c #644C44",
"P  c #695648",
"I  c #755948",
"U  c #645455",
"Y  c #65565A",
"T  c #6C5B5C",
"R  c #6B5855",
"E  c #755D55",
"W  c #7B6348",
"Q  c #776256",
"!  c #6F6758",
"~  c #5D5C62",
"^  c #5A5763",
"/  c #635D63",
"(  c #69656A",
")  c #776867",
"_  c #6E6A72",
"`  c #746E74",
"'  c #717171",
"]  c #7C7C7C",
"[  c #7A7577",
"{  c #880000",
"}  c #980000",
"|  c #A40000",
" . c #B00000",
".. c #BC0000",
"X. c #C80000",
"o. c #D40000",
"O. c #E00000",
"+. c #EC0000",
"@. c #FC0000",
"#. c #FC2020",
"$. c #8D7135",
"%. c #957633",
"&. c #8E702F",
"*. c #865E47",
"=. c #876549",
"-. c #8A7149",
";. c #876B57",
":. c #8A7359",
">. c #9B7C5C",
",. c #977756",
"<. c #97714C",
"1. c #A67D5A",
"2. c #A86840",
"3. c #856D65",
"4. c #89756A",
"5. c #967A68",
"6. c #867B77",
"7. c #947E75",
"8. c #909000",
"9. c #9D8137",
"0. c #A7873A",
"q. c #B0913D",
"w. c #CCC400",
"e. c #FCF400",
"r. c #E4D800",
"t. c #9E885B",
"y. c #AB8845",
"u. c #B18D49",
"i. c #B99748",
"p. c #A4835D",
"a. c #A98657",
"s. c #B28B58",
"d. c #B89659",
"f. c #AF905F",
"g. c #9C8467",
"h. c #9A8579",
"j. c #888275",
"k. c #AD8B64",
"l. c #A78667",
"z. c #B38C64",
"x. c #AE9469",
"c. c #B4936A",
"v. c #BD9B6C",
"b. c #B89465",
"n. c #A58C76",
"m. c #A7927A",
"M. c #B89977",
"N. c #B38E73",
"B. c #BEA26D",
"V. c #BDA376",
"C. c #C49C59",
"Z. c #C8A35A",
"A. c #C29B62",
"S. c #C29E69",
"D. c #C29F78",
"F. c #C4A26A",
"G. c #C8A668",
"H. c #C5A474",
"J. c #CCAC75",
"K. c #CDAD7D",
"L. c #C7A678",
"P. c #CDB377",
"I. c #D3B578",
"U. c #D1AC73",
"Y. c #E88C58",
"T. c #837D82",
"R. c #8B8584",
"E. c #898889",
"W. c #9D8D84",
"Q. c #938986",
"!. c #99928D",
"~. c #989898",
"^. c #979494",
"/. c #938E90",
"(. c #A28D86",
"). c #A79488",
"_. c #A59A94",
"`. c #B49E8E",
"'. c #BAA288",
"]. c #AAA29C",
"[. c #B7A697",
"{. c #A9A9A9",
"}. c #A7A5A5",
"|. c #B2AEAB",
" X c #B6AAA4",
".X c #BAB2AB",
"XX c #AFAFB0",
"oX c #B5B5B5",
"OX c #B9B7B4",
"+X c #BAB9B6",
"@X c #BBBAB9",
"#X c #B0AFB0",
"$X c #C7AA85",
"%X c #CDB288",
"&X c #D4B585",
"*X c #D5B98A",
"=X c #CCB295",
"-X c #D5BA93",
";X c #D7BA97",
":X c #CCAE8C",
">X c #C1BCB5",
",X c #CFBAA4",
"<X c #DBC398",
"1X c #D6C28F",
"2X c #E2C99C",
"3X c #DCC6A6",
"4X c #C1C0BE",
"5X c #E2CBA4",
"6X c #E3CDAB",
"7X c #E9CEAC",
"8X c #E8D2AB",
"9X c #EAD4B4",
"0X c #E9D7B9",
"qX c #E8D2B6",
"wX c #C0C0C0",
"eX c #C9C6C0",
"rX c #D0D0D0",
"tX c #EDDCC2",
"yX c #EEDEC9",
"uX c #F0DDC0",
"iX c #EFE3CB",
"pX c #F1E3C9",
"aX c #F4E9D2",
/* pixels */
"7 7 7 7 7 7 7 7 7 7 7 7 7 7 7 7 7 7 7 7 7 7 7 7 7 7 7 7 7 7 7 7 7 7 7 7 7 7 7 7 7 7 7 7 7 7 7 7 7 7 7 7 7 7 7 7 7 7 7 7 7 7 7 7 ",
"G 7 G N N N N N G N N N N N N G N 7 N N N N N N N G G G G G G N N N N N N N N N G G G G G G G N N N N 7 7 7 N N G G N N N N N 7 ",
"7 +.+.o.o.o.o.o.o.o.o.o.| N N G +.+.o.o.o.o.o.o.o.o.o.o.o.o.o.o.o.o.o.o.| N 7 G +.+.+.+.O.O.O.O.O.O.o.o.o.o.o.X.X.X.X.......| N ",
"N e.X. . .o.{ } o.{ X.| e - N G +...{ ..{ ..{ ..y ..} ..} ..y ..y ..X.| t - N 7 o.} X. .X. . .X.t X.y X. .X.{  .| y X.} X.| e.- ",
"r.w.8.XXoXXXoXoXoXoXoXoXoXoXoXoXoXoXoXoXoXoXoX#XoXoXoXXXoXoXoXXXoXXXoXoXoXoXoXXXoXoXoXoX#XoX#X#XoXoXoXoXoXoXoXoXoXoXoXoXoXw.w.g ",
"2.8.f ' ' ] ] ] ] ] [ ] ] ] ] [ ] ] ] ] [ [ T.T.] ] ] ] ] ] ] ] ] ] ] ] ] ] ] ] ] ] ] ] T.] T.T.] ] ] ] ] [ ] ] ] ] ' ' ' g Y.f ",
"N k | ] ] ] ] ~.~.~.~.~.~.~.~.~.~.~.~.~.~.~.~.~.~.~.~.~.~.~.~.~.~.~.~.~.~.~.~.~.~.~.~.~.~.~.~.~.^.~.~.~.~.~.~.~.~.] ' [ ] q 2.- ",
"N X.y ~.] #.| 9 9 G t t t t t t t t t t t r u y t t t t t t t t t t t t t t t t t t t t t r u u t t |  .@.o.] 9 9 9 ] wX' q 9 - ",
"N ..| {.] | oXoXoXoXoXoX@XoXoXoXoXoXoXoX@XoXoXoXoXoXoXOXoXoX#X>XoXoXoXoX@XoXoXoX@XoXoXoXoXoXoX@XoX+XoXoXoXXXoXoXoX~.#.] ' q 9 - ",
"N y e oX~.9 oX@XoXoXoXoXoXoX@XoXoX@XoXoXoXoXoXoXoXoXOX@XoX@XoX>XoXoXoXoXoX@XoXoXoXoXoXoXoXoXoXoXoXoXoXoXoXoXoXoXoXrX} ' ] 9 9 - ",
"N N - rX{.9 oXoXoXoXoXoX@XoXoXoXoXoXoXoXoXoXoXoXoXoX>X.X].(.`.`.}.OX|.].>X X}.#XoX@X@XoX@XoXoXoXoX@XoXoXoXoXoX@XoX] 9 ] ~.& & - ",
"G 7 7 rXoXG oXoXoXoXoXoXoXoXoXoXoXoXoX@X@XoX@XoX#X X[.T.).T.T.[.`.(.h._.T.Y D T.T. XoXoXoXoXoXoXoXoXoXoXoXoXoXoXoX( G E.{.& - - ",
"+.o.o.oXrX9 @XoXoXoXoXoXoX@XoXoXoXoX@XOX@X@X>X:XT.`.T.N.T.5.T.T.6.) T.T.3.U M D 3.3.(.>X@XoXoXoXoXoXoXoXoXoXoXoXoX] 9 ~.{.q q o.",
" .{ { oXrXr oXoXoXoXoXoXoXoXoXoXoXoXoXoXoX,X[.T.T.N.3.3.Y ) 3.R D ) E U U U Y D D D 3.T.>XoXoXoXoXoXoX@XoXoX@XoXoX] 9 {.oXq q  .",
"{ | { oXrX| oXoX@XoXoX@X@XoX@XoXoX@X@X.X X`.T.N.3.Y M D T T M m M Y D R `.[.T.U F F m D T.>XoXoXoXoXoXoX@XoXoXoXoXE.t {.oXq q } ",
"t | | XXoX} oXoXoXoXoXoXoXoXoXoXOX>X.X[.N.T.T.T.M D D T D m 3 m m M M T.yXyX7X=X3.D 1 , U `.>X#X@XoXoXoXoXoXoXoX@XE.t }.oXq q y ",
"| { { oXoX{ oXoXoXoXoXoXoXoXoXoXOX[.`.h.3.(.6.U D Y Y M 3 = , v 4 m m ,XtX3XqXtX6X) * $ 2 T [.OXoXoXoXoXoX@XoXoX@XE.t {.oXq q y ",
"t | q oXoXt oXoX@XoXoX@X@XoXoXoX,X[.n.4.).h.E / D M m , * 3 v n v p n.=X=X3XqXtXtX'.a + # 6 6.|.oXoXoXoXoXoXoXoX@X~.t oXoXq q { ",
"t  .e oXoXt oXoXoXoXoXoXoXoXoXOX=Xn.6.).(.T M m 3 , $ v v v 4 3 p 7.,X=X3X3X0XyXtX6X3.* @ > V _.oXoX@XoXoXoXoX@XoX{.r oXoXq q t ",
"9 0 0 oXoXt oXoXoXoXoX@XoXoXoX.XQ.) n.).3.M m m m 3 v m 3 3 , 4 7.,X,X3XtXtXtXtXtX0X).2 O % 3 ) oXoXoXoXoXoXoXoXoX{.t oXXX9 q 9 ",
"- - - oXoXt oXoXoXoXoXoX@XoXoX}.;.7.).h.T m M V m 4 v v , > 8 3.$X:X3XtXyXyXyX0XuX0X$X4 . # , B _.@XoX@XoXoXoXoXoX{.t oXoX& & - ",
"G G N oXoXt oXoXoXoXoXoXoXoX|.W.3.n.5.Y M U Y M m 4 4 , < a :.N.D.:X3XqXaXaXaXyX0X8X:Xa O + * 3 [ oXoXoXoXoXoXoXoX}.t oXoX& - - ",
"G +.+.wXwXy oXoXoXoXoXoXoXoX_.4.5.7.Q T Y Y B 6 4 3 $ 4 P ,.z.z.1.5.3.3.3.7.).[.3X6X$XB O O # , Y {.oXoXoXoX@XoXoX{.t oXoXq q - ",
"G +.{ rXrX} oXoXoXoXoXoXoXoXR.5.n.4.T 4 3 1 $ # # # $ s =.a.f.a.,.L m 4 = : p C E '.:XP + O + , A }.@XoXoXoXoXoXoX{.y XXoXq 9 - ",
"7 +. .wXwX{ oXoXoXoXoXoXoXoXQ.).) 4 # 4 7 7 k P ! G z P -.p.f.x.<.I L L L P E :.I ! $XE . . + * b ~.@XoX@XoXoXoXoX{.y oXoXq 9 - ",
"N ..e oXoXy oXoXoXoXoXoXoXXX_.) m D 6.[ ! t.t.t.V.V.t.,.-.t.&X$X<.*.=.L z W *.>.n.5.M.3.# # + # v /.oXoXoXoXoX@XoXoX{ oXXXq 9 - ",
"N .. .oXoXt oXoXoXoX@XoXoX{.!.) N n.Q ; Z W Z h 8 7 j x t.1X0X2XN.:.Q P h a Z P :.n.m.g.: o + # 3 R.XXoXoXoXoXoXoXwX} wXwXq 9 - ",
"G ..t }.{.r oXoXoXoXoXoXoX}.h.4 X j.Z h ! j k z s h C k t.<X0X5XH.=.s a a 8 V L I l.x.V.R   O * 3 ] XXoX@XoXoXoXoXrX} rXrXq 9 - ",
"N X.| {.}.e oXoXXXoXoXoXoX/.) 1   & h W c W y.t.y.-.=.g.v.;X0X3X$X$X:.I I I <.M.=X-Xv.x.Z   O 2 n T.oXoXoXoXoXoXoXwX} wXwXq 9 - ",
"N | } ~.~.0 oXoXoXoXoXoXoX] V 2 .   K a.x.Z.B.B.V.L.%X-Xc.9XaXqXH.;X5X$Xx.N.V.3X9X;Xx.x.a   @ 3 m #XoXoXoXoXoXoXoXwX{ @XwXq 9 - ",
"N N 7 {.{.q oXoXoXoXoXoXoX{.^.K +   I 1X1X1X5X2X3X8X9X;X;XiXaXiX<X;X9X9X9X9X9X9X3XV.L.%XC X , , F >XoXoXoXoXoXoXoXoXy oXoX& & - ",
"G G G {.}.e oXoXoXoXoXoXoXoX#X4.- o 5.<X5X8X0X0X8X5X-X-X0XaXiXaX9X=X-X3XqXtXtX9X*XL.;X-XI O , + / oXoXoXoXoXoXoXoXoXt oXoX& - - ",
"......oXoXt oXoXoXoXoXoXoXoXoXW.= # M.8X8X8X5X2X<XH.;X0X7X;X*X;X7X0X:XD.;X7X7X;XK.*X;X;X;.$ * = Q.oXoXoXoXoXoXoXoXoXt oXoXq q ..",
"|  .} oXoXt oXoXoXoX+XoXoXoXOX[.n a *X8X8X8X<XI.G.S.L.n.a.s.s.1.l.D.&X1.S.:X&XK.&X2X<X-X5.< > N eXoXoXoX@XoXoXoXoX{.q {.{.q q | ",
"| y { oXoXt oXoXoXoXoXoXoXoX+XW.T T 5X8X5X2X1XG.A.U.1.l l *.2.*.s l 1.D.1.s.G.U.&X<X;X*X3.3 + E.wXoXoXoXoXoXoXoXoX~.q ~.~.q q t ",
"{ y | oXoXt oXoXoXoXoXoX+XoX+Xh.T g.8X2X2X1XI.G.J.5X;Xc.c *.*.L I 5.;X2XU.A.A.U.&X1X;X%Xl.C 2 |.@XoXoXoXoX@XoXoXoX/.0 E./.q q t ",
"| { y oXXXr oXoXoXoXoXoXoXoX+Xh.3.=X6X5X1XI.I.I.*X3X'.5.L L ;.M p :.'.;X&XG.A.G.J.&X*X%Xm.U j.+XoXoX@XoXoXoXoX@XoX~.q ~.~.q q { ",
"| { y oXoXy oXoXoXoXoXoXoXoXoX>X).'.3X<X1XP.I.H.N.7.5.3.*.*.<.I M E 3.7.l.N.G.S.H.L.$X*Xn.Z |.+XoXoXoXoXoXoXoXoXoX~.e ~.~.q q t ",
"t t { oXoXy oXoXoXoXoXoXoX@XoX@X.X).=X&XK.U.$X3.T 5.1.1.1.z.1.1.1.<.l.;.*.5.S.A.S.H.L.%Xn.B |.oX@XoXoXoXoX@XoXoXoX{.e {.{.q q t ",
"9 9 0 oXoX{ oXoXXXoXoXoXoXoXoXoX4X[.'.L.H.U.D.L s L *.*.*.<.<.*.*.*.=.I s I b.S.b.M.L.$X:.B ].oXoXoXoXoXoXoXoXoXoXoXe XXoXq q 9 ",
"- - - wXwX{ oXoXoXoXoXoXoXoX@XoX+X!.'.V.M.P.v.W x -.>.z.z.1.1.1.1.1.1.*.z *.s.F.c.k.M.M.R S |.oXoXoXoXoXoXoXoXoXoXoXt oXXX& & - ",
"G N G rXrX| oX@XoX@XoXoXoXoXoXoX+X].m.M.x.F.S.s.B.U.U.S.A.1.s.z.S.U.U.U.d.<.S.S.z.g.l.h.Z J |.oXoXoX@XoX@XoX@XoXoXoXt oXoX& - - ",
"7 +.o.@XwX} oXoXoXoXoXoX@XoXoXoX+XoX4.x.x.B.F.G.I.P.F.1.*.l s z 2.C.H.U.H.d.v.v.p.>.5.T 6 _ oXoXoXoXoXoXoXoXoXoXoXwX{ wXwXq q - ",
"G o.| oXoX} oX@X@XoX@XoXoXoX@XoX+XoX] 4.c.v.F.P.P.B.s.1.I 3 1 p I 1.A.L.S.f.d.b.p.;.Q p 5 _.oXoXoX@XoXoX@XoXoXoXoXwX{ wXwXq 9 - ",
"N o.| oXoX{ oXoX@XoXoXoXoX@XoXoXoXOXQ.6.5.b.F.P.$XH.v.L.l.P j E 1.D.S.v.v.k.l.p.>.E C b B ].oXoXoXoXoX@XoX@XoXoXoXrX} rXrXq 9 - ",
"N o.{ oXoX{ oXoX@XoXoXoXoXoXoXoXoX+X+X` Q g.>.M.M.M.v.L.v.p.p.z.L.L.J.S.b.l.>.;.W Z ) V B 6 oXoXoXoXoXoXoX@X4XoXoXwX} wXwXq 9 - ",
"7 X.| oXoXy oXoXoXoX@XoXoXoXoX+X@X~.6.j.B :.R Q g.7.4.>.>.;.=.t.z.k.c.l.>.Q I P P Q m.V ( > 3 }.@XoXoXoXoXoX@XoXoXwX{ wXwXq 9 - ",
"G o.| {.{.t @XoXoXoXoXoXoXoX@X|.G * R.E.v U h a C Z Z h C C B P =.R Q T B a p 6 C M.h.B _ / 5 . ~.@XoXoXoXoXoXoXoXoXt oXoXq 9 - ",
"7 X.| {.{.t oXoXoXoXoXoXXXT.A O o ^ ^./.6 B P p 5 < - + @ * * < 5 = 7 5 = 5 5 8 ;.;XV G ( A * < n oXoXoXoXoX+XoXoXoXt oXXXq 9 - ",
"G | e oXoXt oXoXoXoX#X~.~ b v v v E.E.R.B : g.h ; + + O . . . o + + @ * # = 2 I &Xh.b J J 5 + H H ' +XoXoXoXoXoXoXoXt oXoX9 9 - ",
"7 B - oXXXt oXoXoX{._ A ^ ( A A b ( ] j.A o n.g.2 O o o . o o o o o @ @ O @ Z B.&XC A ^ A @ 1 ^ _ N E.].@X+XoXoXoX~.r oXoX& & - ",
"G 7 G oXoXt ] oX{.[ _ ] /.T.% b > ` ' ] J + P 1X:.8 & o . o o o o o @ @ s z a.I.;.1 H H 1 > A H ~ 7 ~ [ Q.>X@XoXoX] t oXoX& - - ",
"o.o.o.oXoX] t ] ~.oXoX/._ ] v @ @ ( _ ] ^ * - K.J.-.s : & + * & ; & 8 z <.d.G.p.- b ^ N * F ^ A G ~ B ( _ !.>X~.] t ] oXXXq q ..",
"y | q ] oXoX] t t t ] ~.oX}._ % + ~ ( R./ > X g.I.d.-.z k k k k z x $.0.u.Z.C.k @ F ^ % b ] ^ b A [ n _ !./.t t t ] ~.oX] q q t ",
"| y y q ] XXoXoX~.] t t t t E.}.E.T.[ E.Y 1 . j G.B.y.&.&.&.&.&.%.%.%.u.C.Z.P o b H b > ( E.A b _ ( w t t t E.~.oXXXoX] q q q 0 ",
"| y q q q G ] oXoXXXoXoX~.] t r t ] }.~.' 1 . ; f.C.d.0.%.%.9.9.0.%.q.i.G.W o % A A , b ] T.H i r t 6.~.oXoXoXoXoX] G q q q t { ",
"y } q q q q q G ] oXoXoXXXoXoX~.] t t t ] E.~ % z d.d.u.0.9.0.0.q.q.i.Z.,.& o b H b b _ i r t [ ~.XXoXoXoXoX] G q q q q q e t | ",
"e | y | e q e q q q q G ] oXXXoXoXoX~.] t t t [ [ n.u.q.q.q.q.q.q.i.i.,.- . , ~ ~ r t t ] ~.oXoXoXoXoX] G q q q q q q t q | t | ",
"e | y y e } } e q q q q q q G ] XXoXoXoXoX~.] t t t u n.u.0.q.i.i.i.t.: b w r r r ] ~.oXoXoXoXoX] G q q q q q q q t | t q e | 0 ",
"y } q | e e { e y y | q q q q q q 9 G ] XXoXoXoXoX~.] t u i g.d.C.g.w t t ] ~.oXoXoXXXoX] G 9 - - - q q q q | q | t | t | e | t ",
"0 0 0 0 0 0 0 0 0 0 0 0 0 0 0 0 9 9 & & - G ] oXoXoXoXoX~.] t u u t ] ~.oXoXoXoX] G 0 0 0 9 9 & - - q 9 9 0 0 0 0 0 0 9 0 0 0 0 ",
"- - - - - - - - - - - - - - - - - - - & & & & & - G ] #XXXoXoXoXXXoXoXXXoX] G & & & & & - & & & - - - - - - - - - & & & & & - - ",
"7 G 7 G 7 7 7 N N N N N G 7 7 7 7 - - - - - - - & & & & & G ] oXoX] G - & & & & & - - - - - - - - 7 7 N N G N N N N n 7 n N N N ",
"G G G G G G G G G G G G G G G G G G G N 7 7 7 - - & & & & & & & & & & & & & & & & & - 7 7 7 N N G G G G G G G G G G G G G G G G "
};
