/* XPM */
static char *weapon2[] = {
/* columns rows colors chars-per-pixel */
"64 64 227 2 ",
"   c #0A0B0B",
".  c #0E1212",
"X  c #031F1F",
"o  c #091F1F",
"O  c #111A1A",
"+  c #101311",
"@  c #220404",
"#  c #002D2D",
"$  c #072223",
"%  c #132222",
"&  c #142B2C",
"*  c #003232",
"=  c #003B3B",
"-  c #0F3535",
";  c #1E3838",
":  c #2C2C2E",
">  c #590707",
",  c #7C0101",
"<  c #770707",
"1  c #670D0D",
"2  c #612B2B",
"3  c #324239",
"4  c #003D40",
"5  c #034545",
"6  c #1B4645",
"7  c #005353",
"8  c #005E5E",
"9  c #0D5555",
"0  c #1C5352",
"q  c #17514F",
"w  c #285456",
"e  c #304C4B",
"r  c #006464",
"t  c #006A6A",
"y  c #056566",
"u  c #017676",
"i  c #196565",
"p  c #246868",
"a  c #366C6C",
"s  c #2E7777",
"d  c #3A7B7B",
"f  c #794040",
"g  c #467878",
"h  c #5B7E7E",
"j  c #850101",
"k  c #8C0000",
"l  c #820D0D",
"z  c #8E0B0B",
"x  c #930000",
"c  c #9C0000",
"v  c #940C0C",
"b  c #8A1515",
"n  c #951818",
"m  c #A40101",
"M  c #AB0000",
"N  c #AA0B0B",
"B  c #B40101",
"V  c #BC0000",
"C  c #B60D0D",
"Z  c #BA1010",
"A  c #B31818",
"S  c #872B2B",
"D  c #933434",
"F  c #922C2C",
"G  c #B62929",
"H  c #B53535",
"J  c #A33434",
"K  c #C40101",
"L  c #CB0000",
"P  c #D50101",
"I  c #DB0202",
"U  c #D90B0C",
"Y  c #C21313",
"T  c #C41818",
"R  c #CB1010",
"E  c #E40000",
"W  c #EB0000",
"Q  c #E10B0A",
"!  c #F60000",
"~  c #FC0404",
"^  c #FD0C0C",
"/  c #E7181A",
"(  c #FD1313",
")  c #F41D1C",
"_  c #F81818",
"`  c #CB3D3D",
"'  c #C82D2D",
"]  c #F72121",
"[  c #FD3B3D",
"{  c #F33939",
"}  c #EA2F2E",
"|  c #9A4141",
" . c #8E4B4B",
".. c #B74545",
"X. c #AB5959",
"o. c #BA5353",
"O. c #B25959",
"+. c #B35151",
"@. c #A34B4B",
"#. c #895A64",
"$. c #8E6C67",
"%. c #A36161",
"&. c #BD6060",
"*. c #C44343",
"=. c #C64444",
"-. c #D74F4F",
";. c #C95656",
":. c #EB4C4D",
">. c #FC4949",
",. c #F94E51",
"<. c #E9585C",
"1. c #FC5454",
"2. c #FE555A",
"3. c #FE5C5B",
"4. c #F3545B",
"5. c #EE4851",
"6. c #F85F67",
"7. c #CC6A6A",
"8. c #CC7272",
"9. c #D87171",
"0. c #FE656B",
"q. c #FD6D6E",
"w. c #FB6567",
"e. c #FD6A74",
"r. c #FE7A7C",
"t. c #FD7475",
"y. c #FC786D",
"u. c #7F837B",
"i. c #FF9871",
"p. c #FFAD74",
"a. c #FFD459",
"s. c #FCFE4D",
"d. c #FCFC47",
"f. c #FCFF5D",
"g. c #FCFA55",
"h. c #FCED5B",
"j. c #FCD969",
"k. c #FDCB7A",
"l. c #FDD479",
"z. c #FCCD6F",
"x. c #FCE569",
"c. c #FDFD6C",
"v. c #FCFE63",
"b. c #FCE676",
"n. c #FDFD74",
"m. c #FCF879",
"M. c #E3E564",
"N. c #3E7C81",
"B. c #FD7C86",
"V. c magenta",
"C. c #0A8F8F",
"Z. c #3A8181",
"A. c #2F8787",
"S. c #458B8B",
"D. c #4B9393",
"F. c #439898",
"G. c #579898",
"H. c #588E8E",
"J. c #649697",
"K. c #778B87",
"L. c #5BA5A5",
"P. c #4BA3A3",
"I. c #62A5A5",
"U. c #69ACAC",
"Y. c #66AEAE",
"T. c #6DB5B5",
"R. c #76B9B9",
"E. c #72A9A9",
"W. c #7DC3C3",
"Q. c #869C96",
"!. c #919FA2",
"~. c #81A9A2",
"^. c #B8ACA0",
"/. c #F8888B",
"(. c #FD8993",
"). c #FC9495",
"_. c #FE979C",
"`. c #E28181",
"'. c #FDBA89",
"]. c #FDA58B",
"[. c #FCA9A7",
"{. c #FCB4A6",
"}. c #FCB2AC",
"|. c #FCA9B3",
" X c #FDB5B7",
".X c #FCDC83",
"XX c #FFC697",
"oX c #DCE09E",
"OX c #FCE482",
"+X c #FCE289",
"@X c #FDFC8A",
"#X c #FCFD9A",
"$X c #EAED9B",
"%X c #FCD2A7",
"&X c #DCE4A0",
"*X c #FCFBA3",
"=X c #FEFEAC",
"-X c #FDEDB7",
";X c #FFFFB4",
":X c #FEFEBB",
">X c #CBCFB4",
",X c #88CFCF",
"<X c #93CCCC",
"1X c #99DADA",
"2X c #8DD2D2",
"3X c #ABE4E4",
"4X c #A6D7D7",
"5X c #D4D7CA",
"6X c #FCC8C7",
"7X c #FCD9CA",
"8X c #FCD7D6",
"9X c #E7E9CA",
"0X c #FCE6CB",
"qX c #FCFCCA",
"wX c #FDFEDC",
"eX c #FDFBD6",
"rX c #D9DAE1",
"tX c #FCDEE7",
"yX c #C6FAFA",
"uX c #DCEEF1",
"iX c #FDFEE3",
"pX c #FDFDEA",
"aX c #F7F9EC",
"sX c #FDFEF2",
"dX c #FDFDFD",
"fX c #F6FAF9",
"gX c #E9F0EC",
/* pixels */
"V.V.V.V.V.V.V.V.V.V.V.V.V.V.V.V.V.V.V.V.V.V.V.V.V.V.V.V.V.V.V.V.V.V.V.V.V.V.V.V.V.V.V.V.V.V.V.V.V.V.V.V.V.V.V.V.V.V.V.V.V.V.V.V.",
"V.V.V.V.V.V.V.V.V.V.V.V.V.V.V.V.V.V.V.V.V.V.V.V.V.V.V.V.V.V.V.V.V.V.V.V.V.V.V.V.V.V.V.V.V.V.V.V.V.V.V.V.V.V.V.V.V.V.V.V.V.V.V.V.",
"V.V.V.V.V.V.V.V.V.V.V.V.V.V.V.V.V.V.V.V.V.V.V.V.V.V.V.V.V.V.V.V.V.V.V.V.V.V.V.V.V.V.V.V.V.V.V.V.V.V.V.V.V.V.V.V.V.V.V.V.V.V.V.V.",
"V.V.V.V.V.V.V.V.V.V.V.V.V.V.V.V.V.V.V.V.V.V.V.V.V.V.V.V.V.V.V.V.V.V.V.V.V.V.V.V.V.V.V.V.V.V.V.V.V.V.V.V.V.V.V.V.V.V.V.V.V.V.V.V.",
"V.V.V.V.V.V.V.V.V.V.V.V.V.V.V.V.V.V.V.V.V.V.V.V.V.V.V.V.V.V.V.V.V.V.V.V.V.V.V.V.V.V.V.V.V.V.V.V.V.V.V.V.V.V.V.V.V.V.V.V.V.V.V.V.",
"V.V.V.V.V.V.V.V.V.V.V.V.V.V.V.V.V.V.V.V.V.V.V.V.V.V.V.V.V.V.V.V.V.V.V.V.V.V.V.V.V.V.V.V.V.V.V.V.V.V.V.V.V.V.V.V.V.V.V.V.V.V.V.V.",
"V.V.V.V.V.V.V.V.V.V.V.V.V.V.V.V.V.V.V.V.V.V.V.V.V.V.V.V.V.V.V.V.V.V.V.V.V.V.V.V.V.V.V.V.V.V.V.V.V.V.V.V.V.V.V.V.V.V.V.V.V.V.V.V.",
"V.V.V.V.V.V.V.V.V.V.V.V.V.V.V.V.V.V.V.V.V.V.V.V.V.V.V.V.V.V.V.V.V.V.V.V.V.V.V.V.V.V.V.V.V.V.V.V.V.V.V.V.V.V.V.V.V.V.V.V.V.V.V.V.",
"V.V.V.V.V.V.V.V.V.V.V.V.V.V.V.V.V.V.V.V.V.V.V.V.V.V.V.V.V.V.V.V.V.V.V.V.V.V.V.V.V.V.V.V.V.V.V.V.V.V.V.V.V.V.V.V.V.V.V.V.V.V.V.V.",
"V.V.V.V.V.V.V.V.V.V.V.V.V.V.V.V.V.V.V.V.V.V.V.V.V.V.V.V.V.V.V.V.V.V.V.V.V.V.V.V.V.V.V.V.V.V.V.V.V.V.V.V.V.V.V.V.V.V.V.V.V.V.V.V.",
"V.V.V.V.V.V.V.V.V.V.V.V.V.V.V.V.V.V.V.V.V.V.V.V.V.V.V.V.V.V.V.V.V.V.V.V.V.V.V.V.V.V.V.V.V.V.V.V.V.V.V.V.V.V.V.V.V.V.V.V.V.V.V.V.",
"V.V.V.V.V.V.V.V.V.V.V.V.V.V.V.V.V.V.V.V.V.V.V.V.V.V.V.V.V.V.V.V.V.V.V.V.V.V.V.V.V.V.V.V.V.V.V.V.V.V.V.V.V.V.V.V.V.V.V.V.V.V.V.V.",
"V.V.V.V.V.V.V.V.V.V.V.V.V.V.V.V.V.V.V.V.V.V.V.V.V.V.V.V.V.V.V.V.V.V.V.V.V.V.V.V.V.V.V.V.V.V.V.V.V.V.V.V.V.V.V.V.V.V.V.V.V.V.V.V.",
"V.V.V.V.V.V.V.V.V.V.V.V.V.V.V.V.V.V.V.V.V.V.V.V.V.V.V.V.V.V.V.V.V.V.V.V.V.V.V.V.V.V.V.V.V.V.V.V.V.V.V.V.V.V.V.V.V.V.V.V.V.V.V.V.",
"V.V.V.V.V.V.V.V.V.V.V.V.V.V.V.V.V.V.V.V.V.V.V.V.V.V.V.V.V.V.V.V.V.V.V.V.V.V.V.V.V.V.V.V.V.V.V.V.V.V.V.V.V.V.V.V.V.V.V.V.V.V.V.V.",
"V.V.V.V.V.V.V.V.V.V.V.V.V.V.V.V.V.V.V.V.V.V.V.V.V.V.V.V.V.V.V.V.V.V.V.V.V.V.V.V.V.V.V.V.V.V.V.V.V.V.V.V.V.V.V.V.V.V.V.V.V.V.V.V.",
"V.V.V.V.V.V.V.V.V.V.V.V.V.V.V.V.V.V.V.V.V.V.V.V.V.V.V.V.V.V.V.V.V.V.V.V.V.V.V.V.V.V.V.V.V.V.V.V.V.V.V.V.V.V.V.V.V.V.V.V.V.V.V.V.",
"V.V.V.V.V.V.V.V.V.V.V.V.V.V.V.V.V.V.V.V.V.V.V.V.V.V.V.V.V.V.V.V.V.V.V.V.V.V.V.V.V.V.V.V.V.V.V.V.V.V.V.V.V.V.V.V.V.V.V.V.V.V.V.V.",
"V.V.V.V.V.V.V.V.V.V.V.V.V.V.V.V.V.V.V.V.V.V.V.V.V.V.V.V.V.V.V.V.V.V.V.V.V.V.V.V.V.V.V.V.V.V.V.V.V.V.V.V.V.V.V.V.V.V.V.V.V.V.V.V.",
"V.V.V.V.V.V.V.V.V.V.V.V.V.V.V.V.V.V.V.V.V.V.V.V.V.V.V.V.V.V.V.V.V.V.V.V.V.V.V.V.V.V.V.V.V.V.V.V.V.V.V.V.V.V.V.V.V.V.V.V.V.V.V.V.",
"V.V.V.V.V.V.V.V.V.V.V.V.V.V.V.V.V.V.V.V.V.V.V.V.V.V.V.V.V.V.V.V.V.V.V.V.V.V.V.V.V.V.V.V.V.V.V.V.V.V.V.V.V.V.V.V.V.V.V.V.V.V.V.V.",
"V.V.V.V.V.V.V.V.V.V.V.V.V.V.V.V.V.V.V.V.V.V.V.V.V.V.V.V.V.V.V.V.V.V.V.V.V.V.V.V.V.V.V.V.V.V.V.V.V.V.V.V.V.V.V.V.V.V.V.V.V.V.V.V.",
"V.V.V.V.V.V.V.V.V.V.V.V.V.V.V.V.V.V.V.V.V.V.V.V.V.V.V.V.V.V.V.V.V.V.V.V.V.V.V.V.V.V.V.V.V.V.V.V.V.V.V.V.V.V.V.V.V.V.V.V.V.V.V.V.",
"V.V.V.V.V.V.V.V.V.V.V.V.V.V.V.V.V.V.V.V.V.V.V.V.V.V.V.V.V.V.V.V.V.V.V.V.V.V.V.V.V.V.V.V.V.V.V.V.V.V.V.V.V.V.V.V.V.V.V.V.V.V.V.V.",
"V.V.V.V.V.V.V.V.V.V.V.V.V.V.V.V.V.V.V.V.V.V.V.V.V.V.V.V.V.V.V.V.V.V.V.V.V.V.V.V.V.V.V.V.V.V.V.V.V.V.V.V.V.V.V.V.V.V.V.V.V.V.V.V.",
"V.V.V.V.V.V.V.V.V.V.V.V.V.V.V.V.V.V.V.V.V.V.V.V.V.V.V.V.V.V.V.V.V.V.V.V.V.V.V.V.V.V.V.V.V.V.V.V.V.V.V.V.V.V.V.V.V.V.V.V.V.V.V.V.",
"V.V.V.V.V.V.V.V.V.V.V.V.V.V.V.V.V.V.V.V.V.V.V.V.V.V.V.V.V.V.V.V.V.V.V.V.V.V.V.V.V.V.V.V.V.V.V.V.V.V.V.V.V.V.V.V.V.V.V.V.V.V.V.V.",
"V.V.V.V.V.V.V.V.V.V.V.V.V.V.V.V.V.V.V.V.V.V.V.V.V.V.V.V.V.V.V.V.V.V.V.V.V.V.V.V.V.V.V.V.V.V.V.V.V.V.V.V.V.V.V.V.V.V.V.V.V.V.V.V.",
"V.V.V.V.V.V.V.V.V.V.V.V.V.V.V.V.V.V.V.V.V.V.V.V.V.V.V.V.V.V.V.V.V.V.V.V.V.V.V.V.V.V.V.V.V.V.V.V.V.V.V.V.V.V.V.V.V.V.V.V.V.V.V.V.",
"V.V.V.V.V.V.V.V.V.V.V.V.V.V.V.V.V.V.V.V.V.V.V.V.V.V.V.V.V.V.V.V.V.V.V.V.V.V.V.V.V.V.V.V.V.V.V.V.V.V.V.V.V.V.V.V.V.V.V.V.V.V.V.V.",
"V.V.V.V.V.V.V.V.V.V.V.V.V.V.V.V.V.V.V.V.V.V.V.V.V.V.V.V.V.V.V.V.V.V.V.V.V.V.V.V.V.V.V.V.V.V.V.V.V.V.V.V.V.V.V.V.V.V.V.V.V.V.V.V.",
"V.V.V.V.V.V.V.V.V.V.V.V.V.V.V.V.V.V.V.V.V.V.V.V.V.V.V.V.V.V.V.V.V.V.V.V.V.V.V.V.V.V.V.V.V.V.V.V.V.V.V.V.V.V.V.V.V.V.V.V.V.V.V.V.",
"V.V.V.V.V.V.V.V.V.V.V.V.V.V.V.V.V.V.V.V.V.V.V.V.V.V.V.V.V.V.V.V.V.V.V.V.V.V.V.V.V.V.V.V.V.V.V.V.V.V.V.V.V.V.V.V.V.V.V.V.V.V.V.V.",
"V.V.V.V.V.V.V.V.V.V.V.V.V.V.V.V.V.V.V.V.V.V.V.V.V.V.V.V.V.V.V.X.V.V.V.V.V.V.V.V.V.V.V.V.V.V.V.V.V.V.V.V.V.V.V.V.V.V.V.V.V.V.V.V.",
"V.V.V.V.V.V.V.V.V.V.V.V.V.V.V.V.V.V.V.V.V.V.V.V.V.V.V.V.V.V.X.k o.V.V.V.V.V.V.V.V.V.V.V.V.V.V.V.V.V.V.V.V.V.V.V.V.V.V.V.V.V.V.V.",
"V.V.V.V.V.V.V.V.V.V.V.V.V.V.V.V.V.V.V.V.V.V.V.V.V.V.V.V.V.V., K , V.V.V.V.V.V.V.V.V.V.V.V.V.V.V.V.V.V.V.V.V.V.V.V.V.V.V.V.V.V.V.",
"V.V.V.V.V.V.V.V.V.V.V.V.V.V.V.V.V.V.V.V.V.V.V.V.V.V.V.V.V.-.m ( k V.V.V.V.V.V.V.V.V.V.V.V.V.V.V.V.V.V.V.V.V.V.V.V.V.V.V.V.V.V.V.",
"V.V.V.V.V.V.V.V.V.V.V.V.V.V.V.V.V.V.V.V.V.V.V.V.V.V.V.V.*.c _ 1.Z j ;.V.V.V.V.V.V.V.V.V.V.V.V.V.V.V.V.V.V.V.V.V.V.V.V.V.V.V.V.V.",
"V.V.V.V.V.V.V.V.V.V.V.V.V.V.V.V.V.V.V.V.V.V.V.V.V.V.V.+.z Z 3.t.1.Z j *.V.V.V.V.V.V.V.V.V.V.V.V.V.V.V.V.V.V.V.V.V.V.V.V.V.V.V.V.",
"V.V.V.V.V.V.V.V.V.V.V.V.V.V.V.V.V.V.V.V.V.V.V.V.V.V.X.1 M _ /.|.r._ V b o.V.V.V.V.` S S @.V.V.V.V.V.V.V.V.V.V.V.V.V.V.V.V.V.V.V.",
"V.V.V.V.V.V.V.V.V.V.V.V.V.V.V.V.V.V.V.V.V.V.V.V.V.X.z B / t.}.b.[.q./ V b o.V.O.+.A B c S V.V.V.V.V.V.V.V.V.V.V.V.V.V.V.V.V.V.V.",
"V.V.V.V.V.V.V.V.V.V.V.V.V.V.` ` -.V.V.V.V.V.V.*.*.k K ] e.{.b.@XOX{.0.) K v *.k V E W V n V.V.V.V.V.V.V.V.V.V.V.V.V.V.V.V.V.V.V.",
"V.V.V.V.V.V.V.V.V.V.V.V.V.X., x N V.V.V.V.V.=.< x K ] e.{.OXc.qXc.+X{.0._ L k A ] ^ E T 8.V.V.V.V.V.V.V.V.V.V.V.V.V.V.V.V.V.V.V.",
"V.V.V.V.V.V.V.V.V.V.V.V.V.O.x K L x j 7.V.&.j Y I _ q.}.OXf.*XdX:Xv.OX[.e.] R 1.w.] K +.V.V.V.V.V.V.V.V.V.V.V.V.V.V.V.V.V.V.V.V.",
"V.V.V.V.V.V.V.V.V.V.V.V.V.7.N I ~ ~ I x m B T >.^ t.|.b.f.#XiXfXiX#Xf.b. X).3.1.1./ m | V.V.V.V.V.V.V.V.V.V.V.V.V.V.V.V.V.V.V.V.",
"V.V.V.V.V.V.V.V.V.V.V.V.V.V.*.c ^ ,.1.( E K P ^ ,.).x.s.n.:XdXdXdXqX@Xv.b. X).3.( L x < b < l < V.V.V.V.V.V.V.V.V.V.V.V.V.V.V.V.",
"V.V.V.V.V.V.V.V.V.V.V.V.V.V.V.<.I 3.[.t.,.) ! ^ t.|.x.f.@XqXdXdXdXqX*Xn.g.b.|.3.Q L I / <.E m , V.V.V.V.V.V.V.V.V.V.V.V.V.V.V.V.",
"V.V.V.V.V.V.V.V.V.V.V.V.V.V.V.V.L ] /.j.'.B.1.>.[.b.g.m.*XqXdXdXdXqX*Xn.s.g.b.y.4.:.w.i.a.2.U , 8.V.V.V.V.V.V.V.V.V.V.V.V.V.V.V.",
"V.V.V.V.V.V.V.V.V.V.V.V.V.V.V.V.c W 3..X7X7X'.B. Xg.v.=XwXsXdXdXdXpXwX=Xv.d.g.]._. X6X-Xk.{ m o.V.V.V.V.V.V.V.V.V.V.V.V.V.V.V.V.",
"V.V.V.V.V.V.V.V.V.V.V.V.V.V.V.V., P >./.tXiX-X6X%Xn.;XaXrX!.g J.S.J.rXpX;Xc.c.7X8XfXiX-X/.B X.V.V.V.V.V.V.V.V.V.V.V.V.V.V.V.V.V.",
"V.V.V.V.V.V.V.V.V.V.V.V.V.V.V.V.k I ,.q.6XdXdXsX;X$XK.w 5 * 7 t t 8 9 N.E.oXqXsXdXdXiXXX-.l V.V.V.V.V.V.V.V.V.V.V.V.V.V.V.V.V.V.",
"V.V.V.V.V.V.V.V.V.V.V.V.V.V.V.V.B ~ >./.tXfXdXdXgXe 4 5 # # a <XU.9 7 t t w 5XiXpXdX8Xt.) m k > > %.V.V.V.V.V.V.V.V.V.V.V.V.V.V.",
"V.V.V.V.V.V.V.V.V.V.V.F l l v N K ~ q.[.0XwXpXgX3 X 7 = % w Y.3X1XG.q r u 8 q >XiXwX#Xj.B.! ! P B B v > 2 V.V.V.V.V.V.V.V.V.V.V.",
"V.V.V.V.V.V.*.S F G ' K I E / 5.w.B.|.j.*XiX9X3   6 ~.w & Z.L.T.R.U.Z.D.W.s 5 0 9XiX#Xd.j._.B.e.5.{ / I V ' G S 2 $.V.V.V.V.V.V.",
"V.V.| D ..=.Y V K E W { 1.r.p.a.x.x.b.#XiXdXu.  6 Y.yXR.p D.U.R.W.R.L.3XfX1Xa $ Q.dXeX@Xg.m.x.x.XX(.w.2.{ W W P V C ..D  .f V.V.",
"V.V.*.` 8.9.G M K P I } [ 1.i.z..XOXs.@XeXaX: O G.T.,XL.p p s s s A.S.2XyX2XR.- e aXaX=Xg..Xl.z.p.B.1.[ } I L K M A 7.` @.%.V.V.",
"V.V.V.V.V.V.V.X.H k k B P E / 4.e.|.b.s.*X^.  e T.u.6 # % % $ r 7 X o 5 a J.2Xa % 5X;Xn.f.|.B.2.{ } U L m k ..X.%.;.V.V.V.V.V.V.",
"V.V.V.V.V.V.V.V.V.D D H H H T P ( ).|.j.XX#.  6 = .   .     o * # o O     O w g & oXm.h.j.).[ ! P Z H J D D V.V.V.V.V.V.V.V.V.V.",
"V.V.V.V.V.V.V.V.V.V.V.V.V.V.<.Z ( q.r.1.w. .      $ $ O $ # * # * = # o % O   O : M.k.(.).q.^ R n ` V.V.V.V.V.V.V.V.V.V.V.V.V.V.",
"V.V.V.V.V.V.V.V.V.V.V.V.V.V.V.V.P ^ 1./ K > . O . $ = 7 8 5 i T.L.y r r = o % O O $.3.] ,.~ K V.V.V.V.V.V.V.V.V.V.V.V.V.V.V.V.V.",
"V.V.V.V.V.V.V.V.V.V.V.V.V.V.V.V.V.P z m x @ O O # u C.8 # 6 I.<X<XJ.q r u u * % O : R L ^ B , V.V.V.V.V.V.V.V.V.V.V.V.V.V.V.V.V.",
"V.V.V.V.V.V.V.V.V.V.V.V.V.V.V.V.V.V.B `.$.% % X 5 C.u $ ; D.G.U.Y.I.H.i u C.u = % + $.9.x N V.V.V.V.V.V.V.V.V.V.V.V.V.V.V.V.V.V.",
"V.V.V.V.V.V.V.V.V.V.V.V.V.V.V.V.V.V./.V.h o O % G.uX4X; d D.I.U.R.U.L.G.R.yXR.6 o O g V.o.j V.V.V.V.V.V.V.V.V.V.V.V.V.V.V.V.V.V.",
"V.V.V.V.V.V.V.V.V.V.V.V.V.V.V.V.V.V.V.V.e   & d L.3X3Xs s Z.F.P.P.D.Z.S.3XfX1XG.6   e V.V.X.V.V.V.V.V.V.V.V.V.V.V.V.V.V.V.V.V.V."
};
