/* XPM */
static char *weapon3[] = {
/* columns rows colors chars-per-pixel */
"64 64 221 2 ",
"   c #0A0B0B",
".  c #0E1212",
"X  c #031F1F",
"o  c #091F1F",
"O  c #111B1C",
"+  c #1F2B19",
"@  c #353A1B",
"#  c #121E22",
"$  c #002323",
"%  c #0C2223",
"&  c #012B2B",
"*  c #0C2C2C",
"=  c #132222",
"-  c #122B2B",
";  c #1A2628",
":  c #013434",
">  c #013B3B",
",  c #0C3234",
"<  c #153737",
"1  c #263231",
"2  c #7E0000",
"3  c #314234",
"4  c #034B4B",
"5  c #015656",
"6  c #045A5A",
"7  c #184444",
"8  c #214848",
"9  c #245152",
"0  c #265C5C",
"q  c #284F52",
"w  c #176666",
"e  c #006E6E",
"r  c #276969",
"t  c #346A6A",
"y  c #287B7B",
"u  c #377878",
"i  c #4E5B5C",
"p  c #517476",
"a  c #840505",
"s  c #9A0A0A",
"d  c #960202",
"f  c #8C1A1A",
"g  c #961C1C",
"h  c #AC0101",
"j  c #A40000",
"k  c #B30202",
"l  c #BC0101",
"z  c #B30C0B",
"x  c #BA0909",
"c  c #B51A1A",
"v  c #BD1818",
"b  c #A41919",
"n  c #9E2929",
"m  c #9B3D3D",
"M  c #A42425",
"N  c #B72626",
"B  c #BD3535",
"V  c #C50101",
"C  c #CB0000",
"Z  c #C80B0B",
"A  c #D40202",
"S  c #DC0101",
"D  c #D70C0D",
"F  c #C31717",
"G  c #D81919",
"H  c #D11009",
"J  c #E20101",
"K  c #EB0101",
"L  c #E2090B",
"P  c #F40000",
"I  c #FB0101",
"U  c #F40B0B",
"Y  c #E31919",
"T  c #EA1717",
"R  c #F71819",
"E  c #F50D11",
"W  c #ED1E2E",
"Q  c #C62627",
"!  c #D32626",
"~  c #D23C3C",
"^  c #D83F3F",
"/  c #E62626",
"(  c #F42A2A",
")  c #FA2929",
"_  c #EB3B3B",
"`  c #EA333A",
"'  c #FE3334",
"]  c #FC3939",
"[  c #F4383D",
"{  c #F92D31",
"}  c #F6533C",
"|  c #F93F48",
" . c #9D4545",
".. c #A84848",
"X. c #BF4343",
"o. c #AC5555",
"O. c #B55B5B",
"+. c #BC5454",
"@. c #926874",
"#. c #C64848",
"$. c #D84646",
"%. c #CA5252",
"&. c #EA4445",
"*. c #F74749",
"=. c #FE4B53",
"-. c #F74B56",
";. c #E8585A",
":. c #F45454",
">. c #FE5756",
",. c #F35144",
"<. c #CC655A",
"1. c #F7634F",
"2. c #EF5D68",
"3. c #FC5B67",
"4. c #CE6C6C",
"5. c #C66767",
"6. c #D46D6B",
"7. c #D86868",
"8. c #D27474",
"9. c #E86969",
"0. c #FE6363",
"q. c #FD6C6E",
"w. c #F96564",
"e. c #FD6A74",
"r. c #FD7579",
"t. c #E17878",
"y. c #76856A",
"u. c #898C3A",
"i. c #F0CC38",
"p. c #A3A174",
"a. c #FE945A",
"s. c #F7B85C",
"d. c #FCB84A",
"f. c #D68660",
"g. c #FC877D",
"h. c #FD9878",
"j. c #FDAC63",
"k. c #FCB66C",
"l. c #FEA77D",
"z. c #FDB77B",
"x. c #FDD659",
"c. c #FCFE4A",
"v. c #FCFE46",
"b. c #FAE759",
"n. c #FCFD52",
"m. c #FDFD5A",
"M. c #FCF458",
"N. c #FCC767",
"B. c #FCD675",
"V. c #FCF561",
"C. c #FCFD64",
"Z. c #FCF96B",
"A. c #FCE679",
"S. c #FEFE73",
"D. c #F5E870",
"F. c #FD7A87",
"G. c magenta",
"H. c #4C8C8C",
"J. c #478686",
"K. c #558B8B",
"L. c #4D9090",
"P. c #549494",
"I. c #599B9B",
"U. c #6A8382",
"Y. c #6E9898",
"T. c #5AA5A5",
"R. c #47A1A1",
"E. c #65A5A5",
"W. c #6CACAC",
"Q. c #69A4A4",
"!. c #70AFAF",
"~. c #74B3B3",
"^. c #79BABA",
"/. c #60BBBB",
"(. c #FE8384",
"). c #F88C88",
"_. c #FC939A",
"`. c #FC9994",
"'. c #FC8F91",
"]. c #FCAA8B",
"[. c #FD9CAA",
"{. c #FC98A2",
"}. c #FCA9A9",
"|. c #FCB8AA",
" X c #FCADB5",
".X c #BFC69F",
"XX c #FCC78A",
"oX c #FDD788",
"OX c #FDD39A",
"+X c #FCC89E",
"@X c #FFE58B",
"#X c #FCFE84",
"$X c #FDE395",
"%X c #FEFE9B",
"&X c #FEF898",
"*X c #FCC5A7",
"=X c #FDD4AE",
"-X c #FFFBA6",
";X c #F9F9BA",
":X c #AEBBC5",
">X c #88C6C6",
",X c #94D3D3",
"<X c #B7C6C8",
"1X c #BAD0D3",
"2X c #B5EDED",
"3X c #B2E3E3",
"4X c #A5E4E4",
"5X c #D6DBDC",
"6X c #DADFCC",
"7X c #FCFCC3",
"8X c #FDFDCB",
"9X c #FCFDD7",
"0X c #E4E6DB",
"qX c #D3F6F7",
"wX c #E9EDEA",
"eX c #FEFEEB",
"rX c #FCFCE1",
"tX c #EAFBFF",
"yX c #FDFDFE",
"uX c #FBFAF4",
"iX c #EBEEF1",
/* pixels */
"G.G.G.G.G.G.G.G.G.G.G.G.G.G.G.G.G.G.G.G.G.G.G.G.G.G.G.G.G.G.G.G.G.G.G.G.G.G.G.G.G.G.G.G.G.G.G.G.G.G.G.G.G.G.G.G.G.G.G.G.G.G.G.G.",
"G.G.G.G.G.G.G.G.G.G.G.G.G.G.G.G.G.G.G.G.G.G.G.G.G.G.G.G.G.G.G.G.G.G.G.G.G.G.G.G.G.G.G.G.G.G.G.G.G.G.G.G.G.G.G.G.G.G.G.G.G.G.G.G.",
"G.G.G.G.G.G.G.G.G.G.G.G.G.G.G.G.G.G.G.G.G.G.G.G.G.G.G.G.G.G.G.G.G.G.G.G.G.G.G.G.G.G.G.G.G.G.G.G.G.G.G.G.G.G.G.G.G.G.G.G.G.G.G.G.",
"G.G.G.G.G.G.G.G.G.G.G.G.G.G.G.G.G.G.G.G.G.G.G.G.G.G.G.G.G.G.G.G.G.G.G.G.G.G.G.G.G.G.G.G.G.G.G.G.G.G.G.G.G.G.G.G.G.G.G.G.G.G.G.G.",
"G.G.G.G.G.G.G.G.G.G.G.G.G.G.G.G.G.G.G.G.G.G.G.G.G.G.G.G.G.G.G.G.G.G.G.G.G.G.G.G.G.G.G.G.G.G.G.G.G.G.G.G.G.G.G.G.G.G.G.G.G.G.G.G.",
"G.G.G.G.G.G.G.G.G.G.G.G.G.G.G.G.G.G.G.G.G.G.G.G.G.G.G.G.G.G.G.G.G.G.G.G.G.G.G.G.G.G.G.G.G.G.G.G.G.G.G.G.G.G.G.G.G.G.G.G.G.G.G.G.",
"G.G.G.G.G.G.G.G.G.G.G.G.G.G.G.G.G.G.G.G.G.G.G.G.G.G.G.G.G.G.G.G.G.G.G.G.G.G.G.G.G.G.G.G.G.G.G.G.G.G.G.G.G.G.G.G.G.G.G.G.G.G.G.G.",
"G.G.G.G.G.G.G.G.G.G.G.G.G.G.G.G.G.G.G.G.G.G.G.G.G.G.G.G.G.G.G.G.G.G.G.G.G.G.G.G.G.G.G.G.G.G.G.G.G.G.G.G.G.G.G.G.G.G.G.G.G.G.G.G.",
"G.G.G.G.G.G.G.G.G.G.G.G.G.G.G.G.G.G.G.G.G.G.G.G.G.G.G.G.G.G.G.G.G.G.G.G.G.G.G.G.G.G.G.G.G.G.G.G.G.G.G.G.G.G.G.G.G.G.G.G.G.G.G.G.",
"G.G.G.G.G.G.G.G.G.G.G.G.G.G.G.G.G.G.G.G.G.G.G.G.G.G.G.G.G.G.G.G.G.G.G.G.G.G.G.G.G.G.G.G.G.G.G.G.G.G.G.G.G.G.G.G.G.G.G.G.G.G.G.G.",
"G.G.G.G.G.G.G.G.G.G.G.G.G.G.G.G.G.G.G.G.G.G.G.G.G.G.G.G.G.G.G.G.G.G.G.G.G.G.G.G.G.G.G.G.G.G.G.G.G.G.G.G.G.G.G.G.G.G.G.G.G.G.G.G.",
"G.G.G.G.G.G.G.G.G.G.G.G.G.G.G.G.G.G.G.G.G.G.G.G.G.G.G.G.G.G.G.G.G.G.G.G.G.G.G.G.G.G.G.G.G.G.G.G.G.G.G.G.G.G.G.G.G.G.G.G.G.G.G.G.",
"G.G.G.G.G.G.G.G.G.G.G.G.G.G.G.G.G.G.G.G.G.G.G.G.G.G.G.G.G.G.G.G.G.G.G.G.G.G.G.G.G.G.G.G.G.G.G.G.G.G.G.G.G.G.G.G.G.G.G.G.G.G.G.G.",
"G.G.G.G.G.G.G.G.G.G.G.G.G.G.G.G.G.G.G.G.G.G.G.G.G.G.G.G.G.G.G.G.G.G.G.G.G.G.G.G.G.G.G.G.G.G.G.G.G.G.G.G.G.G.G.G.G.G.G.G.G.G.G.G.",
"G.G.G.G.G.G.G.G.G.G.G.G.G.G.G.G.G.G.G.G.G.G.G.G.G.G.G.G.G.G.G.G.G.G.G.G.G.G.G.G.G.G.G.G.G.G.G.G.G.G.G.G.G.G.G.G.G.G.G.G.G.G.G.G.",
"G.G.G.G.G.G.G.G.G.G.G.G.G.G.G.G.G.G.G.G.G.G.G.G.G.G.G.G.G.G.G.G.G.G.G.G.G.G.G.G.G.G.G.G.G.G.G.G.G.G.G.G.G.G.G.G.G.G.G.G.G.G.G.G.",
"G.G.G.G.G.G.G.G.G.G.G.G.G.G.G.G.G.G.G.G.G.G.G.G.G.G.G.G.G.G.G.G.G.G.G.G.G.G.G.G.G.G.G.G.G.G.G.G.G.G.G.G.G.G.G.G.G.G.G.G.G.G.G.G.",
"G.G.G.G.G.G.G.G.G.G.G.G.G.G.G.G.G.G.G.G.G.G.G.G.G.G.G.G.G.G.G.G.G.G.G.G.G.G.G.G.G.G.G.G.G.G.G.G.G.G.G.G.G.G.G.G.G.G.G.G.G.G.G.G.",
"G.G.G.G.G.G.G.G.G.G.G.G.G.G.G.G.G.G.G.G.G.G.G.G.G.G.G.G.G.G.G.G.G.G.G.G.G.G.G.G.G.G.G.G.G.G.G.G.G.G.G.G.G.G.G.G.G.G.G.G.G.G.G.G.",
"G.G.G.G.G.G.G.G.G.G.G.G.G.G.G.G.G.G.G.G.G.G.G.G.G.G.G.G.G.G.G.G.G.G.G.G.G.G.G.G.G.G.G.G.G.G.G.G.G.G.G.G.G.G.G.G.G.G.G.G.G.G.G.G.",
"G.G.G.G.G.G.G.G.G.G.G.G.G.G.G.G.G.G.G.G.G.G.G.G.G.G.G.G.G.G.G.G.G.G.G.G.G.G.G.G.G.G.G.G.G.G.G.G.G.G.G.G.G.G.G.G.G.G.G.G.G.G.G.G.",
"G.G.G.G.G.G.G.G.G.G.G.G.G.G.G.G.G.G.G.G.G.G.G.G.G.G.G.G.G.G.G.G.G.G.G.G.G.G.G.G.G.G.G.G.G.G.G.G.G.G.G.G.G.G.G.G.G.G.G.G.G.G.G.G.",
"G.G.G.G.G.G.G.G.G.G.G.G.G.G.G.G.G.G.G.G.G.G.G.G.G.G.G.G.G.G.G.G.G.G.G.G.G.G.G.G.G.G.G.G.G.G.G.G.G.G.G.G.G.G.G.G.G.G.G.G.G.G.G.G.",
"G.G.G.G.G.G.G.G.G.G.G.G.G.G.G.G.G.G.G.G.G.G.G.G.G.G.G.G.G.G.G.G.G.G.G.G.G.G.G.G.G.G.G.G.G.G.G.G.G.G.G.G.G.G.G.G.G.G.G.G.G.G.G.G.",
"G.G.G.G.G.G.G.G.G.G.G.G.G.G.G.G.G.G.G.G.G.G.G.G.G.G.G.G.G.G.G.G.G.G.G.G.G.G.G.G.G.G.G.G.G.G.G.G.G.G.G.G.G.G.G.G.G.G.G.G.G.G.G.G.",
"G.G.G.G.G.G.G.G.G.G.G.G.G.G.G.G.G.G.G.G.G.G.G.G.G.G.G.G.G.G.G.G.G.G.G.G.G.G.G.G.G.G.G.G.G.G.G.G.G.G.G.G.G.G.G.G.G.G.G.G.G.G.G.G.",
"G.G.G.G.G.G.G.G.G.G.G.G.G.G.G.G.G.G.G.G.G.G.G.G.G.G.G.G.G.G.G.G.G.G.G.G.G.G.G.G.G.G.G.G.G.G.G.G.G.G.G.G.G.G.G.G.G.G.G.G.G.G.G.G.",
"G.G.G.G.G.G.G.G.G.G.G.G.G.G.G.G.G.G.G.G.G.G.G.G.G.G.G.G.G.G.G.G.G.G.G.G.G.G.G.G.G.G.G.G.G.G.G.G.G.G.G.G.G.G.G.G.G.G.G.G.G.G.G.G.",
"G.G.G.G.G.G.G.G.G.G.G.G.G.G.G.G.G.G.G.G.G.G.G.G.G.G.G.G.G.G.G.G.G.G.G.G.G.G.G.G.G.G.G.G.G.G.G.G.G.G.G.G.G.G.G.G.G.G.G.G.G.G.G.G.",
"G.G.G.G.G.G.G.G.G.G.G.G.G.G.G.G.G.G.G.G.G.G.G.G.G.G.G.G.G.G.G...%.G.G.G.G.G.G.G.G.G.G.G.G.G.G.G.G.G.G.G.G.G.G.G.G.G.G.G.G.G.G.G.",
"G.G.G.G.G.G.G.G.G.G.G.G.G.G.G.G.G.G.G.G.G.G.G.G.G.G.G.G.G.G.%.z s +.G.G.G.G.G.G.G.G.G.G.G.G.G.G.G.G.G.G.G.G.G.G.G.G.G.G.G.G.G.G.",
"G.G.G.G.G.G.G.G.G.G.G.G.G.G.G.G.G.G.G.G.G.G.G.G.G.G.G.G.G.G.N V k +.G.G.G.G.G.G.G.G.G.G.G.G.G.G.G.G.G.G.G.G.G.G.G.G.G.G.G.G.G.G.",
"G.G.G.G.G.G.G.G.G.G.G.G.G.G.G.G.G.G.G.G.G.G.G.G.G.G.G.G.G.~ F K J ! 9.G.G.G.G.G.G.G.G.G.G.G.G.G.G.G.G.G.G.G.G.G.G.G.G.G.G.G.G.G.",
"G.G.G.G.G.G.G.G.G.G.G.G.G.G.G.G.G.G.G.G.G.G.G.G.G.G.G.G.G.s A E E C N G.G.G.G.G.G.G.G.G.G.G.G.G.G.G.G.G.G.G.G.G.G.G.G.G.G.G.G.G.",
"G.G.G.G.G.G.G.G.G.G.G.G.G.G.G.G.G.G.G.G.G.G.G.G.G.G.G.G.G.Z D 1.} D Q G.G.G.G.G.G.G.G.G.G.G.G.G.G.G.G.G.G.G.G.G.G.G.G.G.G.G.G.G.",
"G.G.G.G.G.G.G.G.G.G.G.G.G.G.G.G.G.G.G.G.G.G.G.G.G.G.G.G.k S | x.s.[ S h G.G.G.G.G.G.G.G.G.G.G.G.G.G.G.G.G.G.G.G.G.G.G.G.G.G.G.G.",
"G.G.G.G.G.G.G.G.G.G.G.G.G.G.G.G.G.G.G.G.G.G.G.G.G.G.G.x S I 0.D.N.=.K h z G.G.G.G.G.G.G.G.G.G.G.G.G.G.G.G.G.G.G.G.G.G.G.G.G.G.G.",
"G.G.G.G.G.G.G.G.G.G.G.G.G.G.G.G.G.G.G.G.G.G.G.G.G.9.v S I >.[.A.N.3.) A h c G.G.G.G.G.G.G.G.G.G.G.G.G.G.G.G.G.G.G.G.G.G.G.G.G.G.",
"G.G.G.G.G.G.G.G.G.G.G.G.G.G.G.G.G.G.G.G.G.G.G.G.~ M l J ' }.oXm.M.k.3.( A h G.G.G.G.G.G.G.G.G.G.G.G.G.G.G.G.G.G.G.G.G.G.G.G.G.G.",
"G.G.G.G.G.G.G.G.G.G.G.G.G.G.G.G.G.G.G.G.G.G.G.G.+.h D ( w.oXn.c.c.M.k.>.( A #.G.G.G.G.G.G.G.G.G.G.G.G.G.G.G.G.G.G.G.G.G.G.G.G.G.",
"G.G.G.G.G.G.G.G.G.G.G.G.G.G.G.G.G.G.G.G.G.G.G.G.B A R q.`.n.c.#XS.c.V._.>.U l #.G.G.G.G.6.4.G.G.G.G.G.G.G.G.G.G.G.G.G.G.G.G.G.G.",
"G.G.G.G.G.G.G.G.G.G.G.G.G.G.G.G.G.G.G.G.G.G.G.M k L ' '.*Xn.Z.rX9XV.V.+Xq.R A h B G.G.l d 2 $.G.G.G.G.G.G.G.G.G.G.G.G.G.G.G.G.G.",
"G.G.G.G.G.G.G.G.G.G.G.G.G.G.G.G.G.G.G.G.G.G.G.! A R 3.h.c.n.9XyXyX8Xc.M.).>.T C k k k S K j ~ G.G.G.G.G.G.G.G.G.G.G.G.G.G.G.G.G.",
"G.G.G.G.G.G.G.G.G.G.G.G.G.G.G.G.G.O.a s x Z Z Z A [ _.*Xn.n.9XyXyX7Xc.M.|.q.R K S S J I I V 8.G.G.G.G.G.G.G.G.G.G.G.G.G.G.G.G.G.",
"G.G.G.G.G.G.G.G.G.G.G.G.G.G.G.G.G.o.k K P P P P P [ _.|.n.c.9XyXyX7Xv.n.V.h.*.E L =.*.' ] Z 8.G.G.G.G.G.G.G.G.G.G.G.G.G.G.G.G.G.",
"G.G.G.G.G.G.G.G.G.G.G.G.G.G.G.G.G.$.l D ' ' ] { ) =.].V.m.7XuXyXyXeX;Xn.c.].F.*.,.r.e.q.>.V 4.G.G.G.G.G.G.G.G.G.G.G.G.G.G.G.G.G.",
"G.G.G.G.G.G.G.G.G.G.G.G.G.G.G.G.G.G.^ A 0._.F.0.:.r.z.c.n.uXyXyXyXyXrXc.c.|.{.F.e.g.N.g.( ;.G.G.G.G.G.G.G.G.G.G.G.G.G.G.G.G.G.G.",
"G.G.G.G.G.G.G.G.G.G.G.G.G.G.G.G.G.G.G.&.,.$XXX]._.[.XXn.-XuXyXyXyXyXeX&XV.A.|.].j.k.A.).A G.G.G.G.G.G.G.G.G.G.G.G.G.G.G.G.G.G.G.",
"G.G.G.G.G.G.G.G.G.G.G.G.G.G.G.G.G.G.G.G.H i.v.=X=X*XoX%XtXtX<XuXiX1XtXtX-Xv.oX$XC.Z. Xq.k G.G.G.G.G.G.G.G.G.G.G.G.G.G.G.G.G.G.G.",
"G.G.G.G.G.G.G.G.G.G.G.G.G.G.G.G.G.G.G.G.A z x.rX-Xm.-X:Xu u w y y w H.J.5X%Xn.;X9XM. XL v G.G.G.G.G.G.G.G.G.G.G.G.G.G.G.G.G.G.G.",
"G.G.G.G.G.G.G.G.G.G.G.G.G.G.G.G.G.G.G.G.J *.|.uXyX5Xp & 4 6 > & & 4 e 6 4 y.wXyX;XV.}.L G.G.G.G.G.G.G.G.G.G.G.G.G.G.G.G.G.G.G.G.",
"G.G.G.G.G.G.G.G.G.G.G.G.G.G.G.G.G.8.Q / ] >.b.eX<X1 . , I.,X9 O O 0 4XE.$ $ q 5X8XM.}.L v N N 6.G.G.G.G.G.G.G.G.G.G.G.G.G.G.G.G.",
"G.G.G.G.G.G.G.G.G.G.G.G.G. ...B X.Z L { =.r.c..X=   - H.,X2XP., 7 T.2X,XJ.o $ 9 0X7XA.>.` J Y _ $.X.#.X.G.G.G.G.G.G.G.G.G.G.G.G.",
"G.G.G.G.G.G.G.G.G.%.5.7.$.k F ! G ` 3.h.d.N.-X3 . = u W.~.^.P.r r I.~.~.W.0 > & p eXv.}.F.=.*.) K A V C $.6.5.O.O.O.G.G.G.G.G.G.",
"G.G.G.G.G.G.%.t.).z l L T ( 0.q.(.l.XX&X%X-X<X. O % I.^.~.E.L.y y L.Q.^.^.J.: X , 6X%XoXz.k.h.3.) I P S j d s o.o.o.G.G.G.G.G.G.",
"G.G.G.G.G.G.M Q / Z G ~ | } w.0.).s.i.A.eXyXi . 8 H.H.t < : : : : > > 0 L.~.Q.* X <XyX#Xm.m.oX{.:.P K k n m ~ G.G.G.G.G.G.G.G.G.",
"G.G.G.G.G.G.G.G.G...f b c v S S S S W a.S.iX- < t 1 . . O     % . . # X % < K.J.X Y.yXuXZ.OX(.( S Y c g G.G.G.G.G.G.G.G.G.G.G.G.",
"G.G.G.G.G.G.G.G.G.G.G.G.G.G.k h S S ;.OXS.wX< = .   . = = = = & X % $ $ X .   < & p.yXV.n.OX2.S / G.G.G.G.G.G.G.G.G.G.G.G.G.G.G.",
"G.G.G.G.G.G.G.G.G.G.G.G.G.G.G.G./ ` k.m.n.D.;   O = = $ > 4 5 4 5 5 > & X = = . . p S.n.n.m.XX2./ G.G.G.G.G.G.G.G.G.G.G.G.G.G.G.",
"G.G.G.G.G.G.G.G.G.G.G.G.G.G.G.;.-.s.@X$Xn.u.. O = = : y T.w : > : 4 R./.w & o = . 1 ;Xm.n.c.m.N.:.&.G.G.G.G.G.G.G.G.G.G.G.G.G.G.",
"G.G.G.G.G.G.G.G.G.G.G.G.G.G.6.T r.z.f.<.s.+ % . O o t ~.qX>X7 o < P.2X3XQ.q X % #   p.-Xj.B.oXOX'._ 9.G.G.G.G.G.G.G.G.G.G.G.G.G.",
"G.G.G.G.G.G.G.G.G.G.G.G.G.6.V ( _ &.Z Q @.% .   . r P.P.E.!.H.* u I.Q.E.Q.L.- o = # @ 6.` e.[.}.}.(.T t.G.G.G.G.G.G.G.G.G.G.G.G.",
"G.G.G.G.G.G.G.G.G.G.G.G.G.a C C / ` ` ).K..     & L.I.E.E.E.K.6 u P.I.!.!.E.0 & $ . ; M A T *.:.:.;.&.h 5.G.G.G.G.G.G.G.G.G.G.G.",
"G.G.G.G.G.G.G.G.G.G.G.G.G.f g c G.G.G.G.i     . 9 P.L.p t y r 6 w w r u P.T.H.0 $ . ; G.#.G Y Y G c v g f ^ G.G.G.G.G.G.G.G.G.G."
};
