/* XPM */
static char *_[] = {
/* columns rows colors chars-per-pixel */
"22 34 21 1 ",
"  c black",
". c #090909",
"X c #0B0B0B",
"o c #0C0C0C",
"O c gray6",
"+ c gray8",
"@ c #191919",
"# c gray12",
"$ c gray13",
"% c #232323",
"& c gray14",
"* c #282828",
"= c #414141",
"- c #565656",
"; c #686868",
": c #A4A4A4",
"> c #B1B1B1",
", c gray83",
"< c #EAEAEA",
"1 c gray96",
"2 c white",
/* pixels */
"                      ",
"       o@%**%@o       ",
"     o&********&o     ",
"    O************O    ",
"   X***-><22<>-***X   ",
"   $**;12222221;**$   ",
"  .**=1222222221=**.  ",
"  +**:2222,,2222:**+  ",
"  #**,222:**:222,**#  ",
"  ***2222****2222***  ",
"  ***2222****2222***  ",
"  ***2222****2222***  ",
"  ***2222****2222***  ",
"  ***2222****2222***  ",
"  ***2222****2222***  ",
"  ***2222****2222***  ",
"  ***2222****2222***  ",
"  ***2222****2222***  ",
"  ***2222****2222***  ",
"  ***2222****2222***  ",
"  ***2222****2222***  ",
"  ***2222****2222***  ",
"  ***2222****2222***  ",
"  ***2222****2222***  ",
"  ***2222****2222***  ",
"  #**,222:**:222,**#  ",
"  +**:2222,,2222:**+  ",
"  .**=1222222221=**.  ",
"   $**;12222221;**$   ",
"   X***-><22<>-***X   ",
"    O************O    ",
"     o&********&o     ",
"       o@%**%@o       ",
"                      "
};
