/* XPM */
static char *_[] = {
/* columns rows colors chars-per-pixel */
"22 34 14 1 ",
"  c black",
". c #010101",
"X c gray2",
"o c #070707",
"O c #0B0B0B",
"+ c gray8",
"@ c #1D1D1D",
"# c gray12",
"$ c #222222",
"% c #282828",
"& c #52512A",
"* c #72712B",
"= c #C8C630",
"- c #F0ED33",
/* pixels */
"                      ",
"                      ",
"                      ",
"     o#%%%%%%#o       ",
"    .$%%%%%%%%#       ",
"    O%*------&%X      ",
"    O%*------&%X      ",
"    O%*------&%X      ",
"    .$%%%=---&%X      ",
"     o#%%=---&%X      ",
"       @%=---&%X      ",
"       @%=---&%X      ",
"       @%=---&%X      ",
"       @%=---&%X      ",
"       @%=---&%X      ",
"       @%=---&%X      ",
"       @%=---&%X      ",
"       @%=---&%X      ",
"       @%=---&%X      ",
"       @%=---&%X      ",
"       @%=---&%X      ",
"       @%=---&%X      ",
"       @%=---&%X      ",
"       @%=---&%X      ",
"       @%=---&%X      ",
"       @%=---&%X      ",
"       @%=---&%X      ",
"       @%=---&%X      ",
"       @%=---&%X      ",
"       @%=---&%X      ",
"       +%%%%%%#       ",
"        +#%%%#o       ",
"                      ",
"                      "
};
