/* XPM */
static char *_[] = {
/* columns rows colors chars-per-pixel */
"22 34 16 1 ",
"  c black",
". c #010101",
"X c #090909",
"o c #0B0B0B",
"O c #0E0E0E",
"+ c gray7",
"@ c #191919",
"# c gray10",
"$ c gray12",
"% c #232323",
"& c #282828",
"* c #565656",
"= c #797979",
"- c #A4A4A4",
"; c #EAEAEA",
": c white",
/* pixels */
"                      ",
"          X@%&&$O     ",
"         X&&&&&&&O    ",
"         #&&&&&&&$    ",
"      O$&&&&;::&&&    ",
"     +&&&&&-:::&&&    ",
"    .&&&&*-::::&&&    ",
"    o&&=:::::::&&&    ",
"    o&&=:::::::&&&    ",
"    o&&=:::::::&&&    ",
"    .&&&&&&::::&&&    ",
"     +&&&&&::::&&&    ",
"      O$&&&::::&&&    ",
"        &&&::::&&&    ",
"        &&&::::&&&    ",
"        &&&::::&&&    ",
"        &&&::::&&&    ",
"        &&&::::&&&    ",
"        &&&::::&&&    ",
"        &&&::::&&&    ",
"        &&&::::&&&    ",
"        &&&::::&&&    ",
"        &&&::::&&&    ",
"        &&&::::&&&    ",
"        &&&::::&&&    ",
"        &&&::::&&&    ",
"        &&&::::&&&    ",
"        &&&::::&&&    ",
"        &&&::::&&&    ",
"        &&&::::&&&    ",
"        $&&&&&&&&$    ",
"        O&&&&&&&&O    ",
"         O$&&&&$O     ",
"                      "
};
