/* XPM */
static char *_[] = {
/* columns rows colors chars-per-pixel */
"22 34 40 1 ",
"  c black",
". c #010101",
"X c gray1",
"o c #060606",
"O c #070707",
"+ c #090909",
"@ c gray4",
"# c #0B0B0B",
"$ c #0C0C0C",
"% c #0E0E0E",
"& c gray6",
"* c #101010",
"= c gray7",
"- c #131313",
"; c gray8",
": c #151515",
"> c gray9",
", c #181818",
"< c gray10",
"1 c gray11",
"2 c #1D1D1D",
"3 c gray12",
"4 c #202020",
"5 c gray13",
"6 c gray14",
"7 c #272727",
"8 c #282828",
"9 c #414141",
"0 c #565656",
"q c #686868",
"w c #797979",
"e c gray59",
"r c #A4A4A4",
"t c #B1B1B1",
"y c gray74",
"u c gray79",
"i c gray83",
"p c gray88",
"a c gray96",
"s c white",
/* pixels */
"                      ",
"       O;38884>+      ",
"     o>8888888885#    ",
"    @7888888888888&   ",
"   X6888eissspr9888#  ",
"   ;889psssssssaq885  ",
"  .888isssssssssa988+ ",
"  #88wsssspipssssr88; ",
"  ;88rsssr888tsssi883 ",
"  288isss98880ssss888 ",
"  288isss88888ssss888 ",
"  288isss88888ssss888 ",
"  288isss8888wsssi883 ",
"  ;8888888888tssst88: ",
"  X6888888889asssw88$ ",
"   X;3888888usssi888. ",
"       3888yssssw88;  ",
"      1888ysssst888X  ",
"     >888yssssi888=   ",
"    $888tssssp9881    ",
"    688essssp9886X    ",
"   &880asssp9887@     ",
"   688ysssp9887@      ",
"  +880sssa0887222;O   ",
"  -88rsssr888888888>  ",
"  ,88ysssw8888888888O ",
"  288issspiiiiiiie88* ",
"  288isssssssssssr88- ",
"  288isssssssssssr88- ",
"  288isssssssssssr88- ",
"  ;88888888888888888+ ",
"  X6888888888888888<  ",
"   X;3888888888883%   ",
"                      "
};
