/* XPM */
static char *_[] = {
/* columns rows colors chars-per-pixel */
"22 34 40 1 ",
"  c black",
". c #010101",
"X c #020202",
"o c #040404",
"O c gray2",
"+ c #070707",
"@ c #090909",
"# c #0C0C0C",
"$ c gray6",
"% c #111111",
"& c #131313",
"* c gray8",
"= c #151515",
"- c gray9",
"; c #181818",
": c #191919",
"> c #1B1B1B",
", c gray11",
"< c #1D1D1D",
"1 c gray12",
"2 c #202020",
"3 c #222222",
"4 c #232323",
"5 c #252525",
"6 c #282828",
"7 c #3F3F29",
"8 c #52512A",
"9 c #63622A",
"0 c #72712B",
"q c #817F2C",
"w c #8E8C2D",
"e c #9B992D",
"r c #A7A52E",
"t c #B2B02F",
"y c #BDBB2F",
"u c #C8C630",
"i c #D3D031",
"p c #DDDA32",
"a c #E6E432",
"s c #F0ED33",
/* pixels */
"                      ",
"                      ",
"                      ",
"    o,5666666664:X    ",
"   +56666666666662o   ",
"   26qassssssssp96,   ",
"  %69sssssssssssa76@  ",
"  >6ysssssssssssse6&  ",
"  46pssp666668ssst6;  ",
"  56assp666668sssu6<  ",
"  66sssp64 O68sssu6<  ",
"  1666666: O68sssu6<  ",
"  +16664:X O68sssu6<  ",
"           O68sssu6<  ",
"           O68sssu6<  ",
"         .*368sssy6>  ",
"        %3660isssr6=  ",
"      $2660ussssa86#  ",
"    #1669ysssssi96<   ",
"   #668tssssspw662o   ",
"  +66rsssssae666-     ",
"  %6wssssse666:+      ",
"  >6ysssr766,@        ",
"  46pssp661@          ",
"  66sssp64            ",
"  66sssp6666666661*   ",
"  66sssp66666666666*  ",
"  66sssssssssssssu6<  ",
"  66sssssssssssssu6<  ",
"  66sssssssssssssu6<  ",
"  16666666666666666*  ",
"  +166666666666661*   ",
"                      ",
"                      "
};
