/* XPM */
static char *_[] = {
/* columns rows colors chars-per-pixel */
"22 34 40 1 ",
"  c black",
". c #010101",
"X c #040404",
"o c #060606",
"O c #070707",
"+ c #090909",
"@ c gray4",
"# c #0B0B0B",
"$ c #0C0C0C",
"% c gray5",
"& c gray6",
"* c #101010",
"= c gray7",
"- c gray8",
"; c #151515",
": c gray9",
"> c #191919",
", c gray11",
"< c #1D1D1D",
"1 c gray12",
"2 c #202020",
"3 c gray13",
"4 c #232323",
"5 c gray14",
"6 c #272727",
"7 c #282828",
"8 c #414141",
"9 c #565656",
"0 c #686868",
"q c #797979",
"w c #888888",
"e c gray59",
"r c #A4A4A4",
"t c #B1B1B1",
"y c gray74",
"u c gray83",
"i c gray88",
"p c #EAEAEA",
"a c gray96",
"s c white",
/* pixels */
"                      ",
"       +:2774>&       ",
"     @3777777775$     ",
"    &777777777777:    ",
"   o6778risspy9777$   ",
"   :770pssssssae775   ",
"  X777issssssssa977$  ",
"  %77wssssuusssst77:  ",
"  ;77tsssr77rsssi772  ",
"  <77usss7777ssss777  ",
"  <77usss7777ssss777  ",
"  -77errr7777ssss777  ",
"  O7777777778sssi772  ",
"   :77777777rssst77:  ",
"    O*;77tuisssa877$  ",
"      <77ussssu0773   ",
"      <77ussssp0773   ",
"      <77usssssa877+  ",
"    $;<77779isssr77-  ",
"   ,777777770sssu771  ",
"  $7777777777ssss777  ",
"  ;77tuuu7777ssss777  ",
"  <77usss7777ssss777  ",
"  <77usss7777ssss777  ",
"  <77usss7778ssss777  ",
"  -77rsssr77rsssu771  ",
"  #77qssssuussssr77-  ",
"  .777issssssssa977+  ",
"   :779pssssssaq775   ",
"   o6778risspy9777$   ",
"    $777777777777=    ",
"     @3777777775$     ",
"       +:2774>&       ",
"                      "
};
