/* XPM */
static char *_[] = {
/* columns rows colors chars-per-pixel */
"22 34 29 1 ",
"  c black",
". c #010101",
"X c gray1",
"o c #070707",
"O c #090909",
"+ c #0C0C0C",
"@ c #0E0E0E",
"# c #111111",
"$ c gray8",
"% c #191919",
"& c gray11",
"* c #1D1D1D",
"= c gray12",
"- c gray13",
"; c gray14",
": c #282828",
"> c #414141",
", c #565656",
"< c #797979",
"1 c #888888",
"2 c gray59",
"3 c #B1B1B1",
"4 c gray74",
"5 c gray79",
"6 c gray83",
"7 c gray88",
"8 c #EAEAEA",
"9 c gray96",
"0 c white",
/* pixels */
"                      ",
"          @=::::=@    ",
"         &::::::::@   ",
"        +:::::::::=   ",
"        -::30000:::   ",
"       O::>90000:::   ",
"       %::200000:::   ",
"      .:::800000:::   ",
"      #::<000000:::   ",
"      ;::5000000:::   ",
"     +::,0000000:::   ",
"     -::30000000:::   ",
"    O::>90040000:::   ",
"    %::2000<0000:::   ",
"   .:::8007:0000:::   ",
"   #::<0002:0000:::   ",
"   ;::5009>:0000:::   ",
"  +::,0003::0000:::   ",
"  -::3000,::0000:::X  ",
" o::>9006:::0000:::;X ",
" $::20001:::0000::::$ ",
" *::60006666000066::= ",
" *::60000000000000::: ",
" *::60000000000000::: ",
" *::60000000000000::: ",
" $::::::::::0000::::= ",
" X;:::::::::0000::::@ ",
"  X$=:::::::0000:::@  ",
"         :::0000:::   ",
"         :::0000:::   ",
"         =::::::::=   ",
"         @::::::::@   ",
"          @=::::=@    ",
"                      "
};
