/* XPM */
static char *_[] = {
/* columns rows colors chars-per-pixel */
"22 34 31 1 ",
"  c black",
". c gray1",
"X c #040404",
"o c #070707",
"O c #090909",
"+ c gray5",
"@ c gray6",
"# c #101010",
"$ c #111111",
"% c #131313",
"& c gray8",
"* c gray9",
"= c gray11",
"- c gray12",
"; c #202020",
": c #222222",
"> c #252525",
", c #282828",
"< c #3F3F29",
"1 c #63622A",
"2 c #72712B",
"3 c #817F2C",
"4 c #8E8C2D",
"5 c #9B992D",
"6 c #A7A52E",
"7 c #B2B02F",
"8 c #BDBB2F",
"9 c #C8C630",
"0 c #D3D031",
"q c #E6E432",
"w c #F0ED33",
/* pixels */
"                      ",
"                      ",
"                      ",
"      X=>,,,-o        ",
"      =,,,,,,-        ",
"      >,qwww<,.       ",
"     O,1www9,-        ",
"     *,5www5,&        ",
"     ;,0www1,O        ",
"    X,<wwwq,>         ",
"    @,3www6,=O%-,-O   ",
"    =,7www3,;,,,,,,O  ",
"    >,qwww<,,156w5,%  ",
"   O,1www0,;,4www5,%  ",
"   *,5www5,*,4www5,%  ",
"   ;,0www1,#,4www5,%  ",
"  X,<wwwq,>#,4www5,%  ",
"  +,3www8,=#,4www5,%  ",
"  =,6www3,$#,4www5,%  ",
"  >,qwww<,X#,4www5,%  ",
" O,1www0,,,,,4www5,,-o",
" %,5www5,,,,,4www5,,,:",
" %,5wwwwwwwwwwwwwwww2,",
" %,5wwwwwwwwwwwwwwww2,",
" %,5wwwwwwwwwwwwwwww2,",
" O,,,,,,,,,,,4www5,,,:",
"  O-,,,,,,,,,4www5,,-o",
"           #,4www5,%  ",
"           #,4www5,%  ",
"           #,4www5,%  ",
"           o,,,,,,,O  ",
"            o-,,,-O   ",
"                      ",
"                      "
};
