/* XPM */
static char *_[] = {
/* columns rows colors chars-per-pixel */
"22 34 29 1 ",
"  c black",
". c #020202",
"X c #040404",
"o c gray2",
"O c #070707",
"+ c #090909",
"@ c #111111",
"# c #131313",
"$ c gray9",
"% c #191919",
"& c #1B1B1B",
"* c gray11",
"= c #1D1D1D",
"- c gray12",
"; c #202020",
": c #232323",
"> c #252525",
", c #282828",
"< c #52512A",
"1 c #63622A",
"2 c #817F2C",
"3 c #8E8C2D",
"4 c #9B992D",
"5 c #BDBB2F",
"6 c #C8C630",
"7 c #D3D031",
"8 c #DDDA32",
"9 c #E6E432",
"0 c #F0ED33",
/* pixels */
"                      ",
"                      ",
"                      ",
"  O-,,,,,,,,,,,,,-+   ",
"  -,,,,,,,,,,,,,,,,+  ",
"  ,,00000000000004,#  ",
"  ,,00000000000004,#  ",
"  ,,00000000000004,#  ",
"  ,,0008,,,,,,,,,,,+  ",
"  ,,0008,,,,,,,,,-+   ",
"  ,,0008,:            ",
"  ,,0008,:            ",
"  ,,0008,:            ",
"  ,,0008,,,,,,,,-O    ",
"  ,,0008,,,,,,,,,,O   ",
"  ,,0000000000003,>X  ",
"  ,,00000000000002,$  ",
"  ,,00000000000007,;  ",
"  -,,,,,,,,,,,6000,,  ",
"  O-,,,,,,,,,,6000<,o ",
"            =,6000<,o ",
"            =,6000<,o ",
"  O-,,,:%.  =,6000<,o ",
"  -,,,,,,%  =,6000<,o ",
"  ,,0008,:  =,6000<,o ",
"  ,,0008,,,,,,6000<,o ",
"  :,8008,,,,,,6000,,  ",
"  &,50000000000007,;  ",
"  @,10000000000002,$  ",
"   ;,290000000003,>X  ",
"   O>,,,,,,,,,,,,,O   ",
"    X*>,,,,,,,,,-O    ",
"                      ",
"                      "
};
