/* XPM */
static char *_[] = {
/* columns rows colors chars-per-pixel */
"22 34 44 1 ",
"  c black",
". c #010101",
"X c #060606",
"o c #070707",
"O c gray3",
"+ c #090909",
"@ c gray4",
"# c #0B0B0B",
"$ c #0C0C0C",
"% c #0E0E0E",
"& c gray6",
"* c #101010",
"= c #111111",
"- c gray7",
"; c #131313",
": c gray8",
"> c #151515",
", c gray9",
"< c #191919",
"1 c gray11",
"2 c #1D1D1D",
"3 c gray12",
"4 c #202020",
"5 c gray13",
"6 c #232323",
"7 c gray14",
"8 c #252525",
"9 c #272727",
"0 c #282828",
"q c #414141",
"w c #565656",
"e c #686868",
"r c #797979",
"t c #888888",
"y c gray59",
"u c #A4A4A4",
"i c #B1B1B1",
"p c gray74",
"a c gray79",
"s c gray83",
"d c gray88",
"f c #EAEAEA",
"g c gray96",
"h c white",
/* pixels */
"                      ",
"    %300000000003%    ",
"   %00000000000000-   ",
"   3000000000000000.  ",
"   000hhhhhhhhhhr00#  ",
"   000hhhhhhhhhhr00#  ",
"  O00ehhhhhhhhhhr00#  ",
"  #00rhhhfsssssse00O  ",
"  #00rhhhu000000009   ",
"  #00rhhhu00000009&   ",
"  #00rhhhr0000005@    ",
"  *00yhhhr00000009X   ",
"  ;00uhhhrtdhfiq00,   ",
"  ;00uhhhahhhhhd000o  ",
"  ;00uhhhhhhhhhhy00=  ",
"  ;00uhhhhddhhhha001  ",
"  >00ihhhu00uhhhg008  ",
"  200shhh0000hhhh000  ",
"  200shhh0000hhhh000  ",
"  :0000000000hhhh000  ",
"  o0000000000hhhh000  ",
"  :00yuuu0000hhhh000  ",
"  200shhh0000hhhh000  ",
"  200shhh0000hhhh000  ",
"  200shhh0000hhhh000  ",
"  :00uhhhu00uhhhs003  ",
"  #00rhhhhsshhhhu00:  ",
"  .000dhhhhhhhhgw00+  ",
"   ,00efhhhhhhgy007   ",
"   X900qudhhfpw000$   ",
"    &000000000000,    ",
"     @5000000007$     ",
"       +,4006<&       ",
"                      "
};
