/* XPM */
static char *_[] = {
/* columns rows colors chars-per-pixel */
"22 34 28 1 ",
"  c black",
". c #010101",
"X c #020202",
"o c #040404",
"O c #0B0B0B",
"+ c gray5",
"@ c gray6",
"# c #101010",
"$ c #131313",
"% c gray8",
"& c gray9",
"* c #191919",
"= c #1D1D1D",
"- c gray12",
"; c #222222",
": c #232323",
"> c #282828",
", c #3F3F29",
"< c #52512A",
"1 c #72712B",
"2 c #817F2C",
"3 c #8E8C2D",
"4 c #9B992D",
"5 c #B2B02F",
"6 c #C8C630",
"7 c #D3D031",
"8 c #DDDA32",
"9 c #F0ED33",
/* pixels */
"                      ",
"                      ",
"                      ",
"    @->>>>>>>>>>:*X   ",
"   @>>>>>>>>>>>>>>*   ",
"  @>>599999999998>:   ",
"  ->5999999999998>:   ",
" o>,9999999999998>:   ",
" +>29994>>>>>>>>>>*   ",
" #>39994>>>>>>>>:*X   ",
" #>39994>$            ",
" #>39994>$            ",
" #>39994>$            ",
" #>39994>>>>>>>>-%    ",
" #>39994>>>>>>>>>>=   ",
" #>39999999999996<>&  ",
" #>399999999999997>;. ",
" #>3999999999999991>O ",
" #>39994>>>>>>39994>$ ",
" #>39994>>>>>>39994>$ ",
" #>39994>$  #>39994>$ ",
" #>39994>$  #>39994>$ ",
" #>39994>$  #>39994>$ ",
" #>39994>$  #>39994>$ ",
" #>39994>$  #>39994>$ ",
" #>39994>>>>>>39994>$ ",
" +>29994>>>>>>39994>$ ",
" o>,999999999999991>O ",
"  ->59999999999997>;. ",
"  @>>599999999996<>&  ",
"   @>>>>>>>>>>>>>>=   ",
"    @->>>>>>>>>>-%    ",
"                      ",
"                      "
};
