/* XPM */
static char *_[] = {
/* columns rows colors chars-per-pixel */
"22 34 30 1 ",
"  c black",
". c #070707",
"X c #090909",
"o c #0B0B0B",
"O c #0E0E0E",
"+ c gray6",
"@ c #111111",
"# c gray8",
"$ c gray9",
"% c gray11",
"& c #1D1D1D",
"* c gray12",
"= c #202020",
"- c gray13",
"; c #252525",
": c #282828",
"> c #414141",
", c #565656",
"< c #686868",
"1 c #888888",
"2 c gray59",
"3 c #A4A4A4",
"4 c #B1B1B1",
"5 c gray74",
"6 c gray79",
"7 c gray83",
"8 c gray88",
"9 c #EAEAEA",
"0 c gray96",
"q c white",
/* pixels */
"                      ",
"       X#*:::*#X      ",
"     o-:::::::::-o    ",
"    +:::::::::::::+   ",
"   o:::>37qqq73>:::o  ",
"   -::<0qqqqqqq0<::-  ",
"  X::>0qqqqqqqqq0>::X ",
"  #::3qqqq978qqqq3::# ",
"  *::7qqq5:::2qqq7::& ",
"  :::qqqq,::::0qq8::= ",
"  :::qqqq:::::7qqq::: ",
"  :::qqqq:::::::::::* ",
"  :::qqqq:::::::::::O ",
"  :::qqqq:<59q93>::$  ",
"  :::qqqq1qqqqqq8:::. ",
"  :::qqqq0qqqqqqq2::@ ",
"  :::qqqqq979qqqq6::% ",
"  :::qqqq4:::4qqq0::; ",
"  :::qqqq>:::>qqqq::: ",
"  :::qqqq:::::qqqq::: ",
"  :::qqqq:::::qqqq::: ",
"  :::qqqq:::::qqqq::: ",
"  :::qqqq:::::qqqq::: ",
"  :::qqqq:::::qqqq::: ",
"  :::qqqq>:::>qqqq::: ",
"  *::7qqq3:::3qqq7::* ",
"  #::3qqqq878qqqq3::# ",
"  X::>0qqqqqqqqq0>::X ",
"   -::<0qqqqqqq0<::-  ",
"   o:::>37qqq73>:::o  ",
"    +:::::::::::::+   ",
"     o-:::::::::-o    ",
"       X#*:::*#X      ",
"                      "
};
