/* XPM */
static char *_[] = {
/* columns rows colors chars-per-pixel */
"22 34 40 1 ",
"  c black",
". c #010101",
"X c gray1",
"o c #040404",
"O c #070707",
"+ c #090909",
"@ c #0B0B0B",
"# c gray5",
"$ c #0E0E0E",
"% c #101010",
"& c #111111",
"* c gray7",
"= c #131313",
"- c gray8",
"; c gray9",
": c #191919",
"> c #1B1B1B",
", c gray11",
"< c #1D1D1D",
"1 c gray12",
"2 c gray13",
"3 c #222222",
"4 c gray14",
"5 c #272727",
"6 c #282828",
"7 c #414141",
"8 c #565656",
"9 c #686868",
"0 c #797979",
"q c #888888",
"w c gray59",
"e c #A4A4A4",
"r c #B1B1B1",
"t c gray74",
"y c gray79",
"u c gray83",
"i c gray88",
"p c #EAEAEA",
"a c gray96",
"s c white",
/* pixels */
"                      ",
"   $16666666666661$   ",
"  $6666666666666666*  ",
"  166666666666666666. ",
"  666ssssssssssss066@ ",
"  666ssssssssssss066@ ",
"  666ssssssssssss066@ ",
"  166uuuuuuuussss066@ ",
"  -6666666667ssss666. ",
"  X466666666wsssy661  ",
"   X-<<<<<66tssse66=  ",
"         566psss966+  ",
"        +669sssp665   ",
"        =66essst66:   ",
"        ,66ysssw66%   ",
"       .666asss866O   ",
"       @660sssi664    ",
"       -66esssr66;    ",
"       266usssq66#    ",
"      o667ssss766o    ",
"      #66qsssu662     ",
"      ;66rssse66-     ",
"      466isss066@     ",
"     O668sssa666.     ",
"     %66wsssy66,      ",
"     :66tssse66=      ",
"     566psss966+      ",
"    +669sssp665       ",
"    =66essst66:       ",
"    >66ysssw66%       ",
"    &666666666O       ",
"    .36666666;        ",
"     .&16661$         ",
"                      "
};
