/* XPM */
static char *_[] = {
/* columns rows colors chars-per-pixel */
"22 34 36 1 ",
"  c black",
". c #010101",
"X c #020202",
"o c #040404",
"O c #070707",
"+ c gray3",
"@ c #0C0C0C",
"# c gray5",
"$ c gray6",
"% c #101010",
"& c #111111",
"* c #131313",
"= c gray8",
"- c gray9",
"; c #191919",
": c #1B1B1B",
"> c gray12",
", c #202020",
"< c #222222",
"1 c #232323",
"2 c #282828",
"3 c #3F3F29",
"4 c #52512A",
"5 c #63622A",
"6 c #72712B",
"7 c #817F2C",
"8 c #8E8C2D",
"9 c #9B992D",
"0 c #A7A52E",
"q c #B2B02F",
"w c #BDBB2F",
"e c #C8C630",
"r c #D3D031",
"t c #DDDA32",
"y c #E6E432",
"u c #F0ED33",
/* pixels */
"                      ",
"                      ",
"                      ",
"    $>2222222221;X    ",
"   $2222222222222<O   ",
"  $22quuuuuuuuut62>   ",
"  >2quuuuuuuuuuuu42@  ",
" o23uuuuuuuuuuuuu02-  ",
" #27uuu9222222uuur2,  ",
" %28uuu9222222uuut21  ",
" %28uuu92*  22uuut21  ",
" %28uuu92*  22uuut21  ",
" %28uuu92*  22uuut21  ",
" +25uuu9222222uuuw2:  ",
"  ,2euu9222222uuu62&  ",
"  =25yuuuuuuuuuuq2<.  ",
"  X<28uuuuuuuuur22&   ",
"  ;26uuuuuuuuuuuw22O  ",
"  12tuu9222222uuu82&  ",
" +25uuu9222222uuuw2:  ",
" %28uuu92*  22uuut21  ",
" %28uuu92*  22uuut21  ",
" %28uuu92*  22uuut21  ",
" %28uuu92*  22uuut21  ",
" %28uuu92*  22uuut21  ",
" %28uuu9222222uuut21  ",
" #27uuu9222222uuur2,  ",
" o23uuuuuuuuuuuuu02-  ",
"  >2quuuuuuuuuuuu42@  ",
"  $22quuuuuuuuut62>   ",
"   $2222222222222<O   ",
"    $>2222222221;X    ",
"                      ",
"                      "
};
