/* XPM */
static char *_[] = {
/* columns rows colors chars-per-pixel */
"22 34 28 1 ",
"  c black",
". c #090909",
"X c gray4",
"o c #0B0B0B",
"O c #0C0C0C",
"+ c gray6",
"@ c gray8",
"# c #151515",
"$ c gray9",
"% c #181818",
"& c #191919",
"* c gray12",
"= c #202020",
"- c gray13",
"; c #232323",
": c gray14",
"> c #282828",
", c #414141",
"< c #565656",
"1 c #686868",
"2 c #A4A4A4",
"3 c #B1B1B1",
"4 c gray74",
"5 c gray83",
"6 c gray88",
"7 c #EAEAEA",
"8 c gray96",
"9 c white",
/* pixels */
"                      ",
"       .@*>>>*@.      ",
"     o->>>>>>>>>-o    ",
"    +>>>>>>>>>>>>>+   ",
"   o>>>,2599952,>>>o  ",
"   ->>18999999981>>-  ",
"  .>>,89999999998,>>. ",
"  $>>2999975799992>>$ ",
"  =>>69993>>>39996>>= ",
"  >>>9999,>>>,9999>>> ",
"  >>>9999>>>>>9999>>> ",
"  >>>9999>>>>>9999>>> ",
"  ;>>7999,>>>,9996>>= ",
"  &>>49993>>>39994>>% ",
"  +>><89997579998<>>+ ",
"   :>>18999999981>>:  ",
"   :>>18999999981>>:  ",
"  O>><89999999998<>>O ",
"  #>>39996<><69993>># ",
"  *>>59991>>>19995>>* ",
"  >>>9999>>>>>9999>>> ",
"  >>>9999>>>>>9999>>> ",
"  >>>9999>>>>>9999>>> ",
"  >>>9999>>>>>9999>>> ",
"  >>>9999<>>><9999>>> ",
"  *>>59994>>>49995>>* ",
"  @>>2999975799992>>@ ",
"  .>>,79999999997,>>. ",
"   ->>18999999981>>-  ",
"   X>>>,2599952,>>>X  ",
"    +>>>>>>>>>>>>>+   ",
"     o->>>>>>>>>-o    ",
"       .@*>>>*@.      ",
"                      "
};
