/* XPM */
static char *_[] = {
/* columns rows colors chars-per-pixel */
"22 34 35 1 ",
"  c black",
". c #070707",
"X c #090909",
"o c #0B0B0B",
"O c #0C0C0C",
"+ c #0E0E0E",
"@ c gray6",
"# c #111111",
"$ c gray7",
"% c gray8",
"& c gray9",
"* c #191919",
"= c gray11",
"- c #1D1D1D",
"; c gray12",
": c #202020",
"> c gray13",
", c #232323",
"< c gray14",
"1 c #252525",
"2 c #282828",
"3 c #414141",
"4 c #565656",
"5 c #686868",
"6 c #797979",
"7 c gray59",
"8 c #A4A4A4",
"9 c #B1B1B1",
"0 c gray74",
"q c gray79",
"w c gray83",
"e c gray88",
"r c #EAEAEA",
"t c gray96",
"y c white",
/* pixels */
"                      ",
"       O*,22,*O       ",
"     O<22222222<O     ",
"    @222222222222@    ",
"   o22249ryyr94222o   ",
"   >225tyyyyyyt522>   ",
"  X223tyyyyyyyyt322X  ",
"  %228yyyywwyyyy822%  ",
"  ;22wyyy8228yyyw22;  ",
"  222yyyy2222yyyy222  ",
"  222yyyy2222yyyy222  ",
"  222yyyy2222yyyy222  ",
"  222yyyy2222yyyy222  ",
"  222yyyy2222yyyy222  ",
"  222yyyy2222yyyy222  ",
"  222yyyy2222yyyy222  ",
"  122tyyy8228yyyy222  ",
"  =22qyyyyeeyyyyy222  ",
"  #227yyyyyytyyyy222  ",
"  .222eyyyyy8yyyy222  ",
"   &2239tye72yyyy222  ",
"  +2222222222yyyy222  ",
"  ;2222222222yyyy222  ",
"  222yyyw2222yyyy222  ",
"  :22eyyr2223yyyy222  ",
"  -22wyyy6228yyyw22;  ",
"  %228yyyyweyyyy822%  ",
"  X223tyyyyyyyyt422X  ",
"   >225tyyyyyyt622<   ",
"   o22249ryyr04222O   ",
"    @222222222222$    ",
"     O<22222222<O     ",
"       O*,22,*@       ",
"                      "
};
