/* XPM */
static char *_[] = {
/* columns rows colors chars-per-pixel */
"22 34 32 1 ",
"  c black",
". c #010101",
"X c #040404",
"o c gray2",
"O c #070707",
"+ c #090909",
"@ c #0B0B0B",
"# c gray5",
"$ c gray6",
"% c #101010",
"& c #131313",
"* c gray9",
"= c #1B1B1B",
"- c gray11",
"; c #1D1D1D",
": c gray12",
"> c #202020",
", c #222222",
"< c #282828",
"1 c #3F3F29",
"2 c #52512A",
"3 c #63622A",
"4 c #72712B",
"5 c #817F2C",
"6 c #8E8C2D",
"7 c #9B992D",
"8 c #B2B02F",
"9 c #BDBB2F",
"0 c #C8C630",
"q c #D3D031",
"w c #E6E432",
"e c #F0ED33",
/* pixels */
"                      ",
"                      ",
"                      ",
"    $:<<<<<<<<<>*     ",
"   $<<<<<<<<<<<<<>X   ",
"  $<<8eeeeeeeeeq3<-   ",
"  :<8eeeeeeeeeeew1<+  ",
" X<1eeeeeeeeeeeee7<&  ",
" #<5eee7<<<<<2eee9<=  ",
" %<6eee7<<<<<2eee0<;  ",
" %<6eee7<& o<2eee0<;  ",
" %<6eee7<& o<2eee0<;  ",
" %<6eee7<& o<2eee0<;  ",
" %<6eee7<& o<2eee0<;  ",
" %<6eee7<& o<2eee0<;  ",
" %<6eee7<& o<2eee0<;  ",
" %<6eee7<& o<2eee0<;  ",
" %<6eee7<<<<<2eee0<;  ",
" #<5eee7<<<<<2eee0<;  ",
" X<1eeeeeeeeeeeee0<;  ",
"  :<8eeeeeeeeeeee0<;  ",
"  $<<8eeeeeeeeeee0<;  ",
"   $<<<<<<<<<2eee0<;  ",
"    $:<<<<<<<2eee0<;  ",
"           o<2eee0<;  ",
"    O:<<<<<<<2eee0<;  ",
"   .,<<<<<<<<2eee9<=  ",
"   @<4eeeeeeeeeee7<&  ",
"   @<4eeeeeeeeeew1<+  ",
"   @<4eeeeeeeeeq3<-   ",
"   .,<<<<<<<<<<<<>X   ",
"    O:<<<<<<<<<>*     ",
"                      ",
"                      "
};
