/* XPM */
static char *_[] = {
/* columns rows colors chars-per-pixel */
"22 34 31 1 ",
"  c black",
". c #020202",
"X c #040404",
"o c gray2",
"O c #090909",
"+ c gray5",
"@ c gray6",
"# c #101010",
"$ c #111111",
"% c #131313",
"& c #181818",
"* c #191919",
"= c gray10",
"- c gray11",
"; c #1D1D1D",
": c gray12",
"> c #202020",
", c #232323",
"< c #282828",
"1 c #3F3F29",
"2 c #52512A",
"3 c #63622A",
"4 c #817F2C",
"5 c #8E8C2D",
"6 c #9B992D",
"7 c #B2B02F",
"8 c #BDBB2F",
"9 c #C8C630",
"0 c #DDDA32",
"q c #E6E432",
"w c #F0ED33",
/* pixels */
"                      ",
"                      ",
"                      ",
"    $:<<<<<<<<<,*.    ",
"   $<<<<<<<<<<<<<>X   ",
"  @<<8wwwwwwwww03<-   ",
"  :<7wwwwwwwwwwwq1<O  ",
" X<1wwwwwwwwwwwww6<%  ",
" +<4www6<<<<<2www7<&  ",
" #<5www6<<<<<2www9<;  ",
" #<5www6<% o<2www9<;  ",
" #<5www6<% o<2www9<;  ",
" #<5www6<% o<2www9<;  ",
" #<5www6<% o<2www9<;  ",
" #<5www6<% o<2www9<;  ",
" #<5www6<% o<2www9<;  ",
" #<5www6<% o<2www9<;  ",
" #<5www6<% o<2www9<;  ",
" #<5www6<% o<2www9<;  ",
" #<5www6<% o<2www9<;  ",
" #<5www6<% o<2www9<;  ",
" #<5www6<% o<2www9<;  ",
" #<5www6<% o<2www9<;  ",
" #<5www6<% o<2www9<;  ",
" #<5www6<% o<2www9<;  ",
" #<5www6<<<<<2www9<;  ",
" +<4www6<<<<<2www7<&  ",
" X<1wwwwwwwwwwwww6<%  ",
"  :<7wwwwwwwwwww01<O  ",
"  @<<8wwwwwwwww03<=   ",
"   $<<<<<<<<<<<<<>.   ",
"    $:<<<<<<<<<,*.    ",
"                      ",
"                      "
};
