/* XPM */
static char *_[] = {
/* columns rows colors chars-per-pixel */
"22 34 36 1 ",
"  c black",
". c #020202",
"X c gray1",
"o c #040404",
"O c gray2",
"+ c #070707",
"@ c gray3",
"# c #090909",
"$ c #0B0B0B",
"% c #0C0C0C",
"& c gray6",
"* c #111111",
"= c #131313",
"- c gray9",
"; c #181818",
": c #191919",
"> c #1B1B1B",
", c gray11",
"< c gray12",
"1 c #202020",
"2 c #232323",
"3 c #252525",
"4 c #282828",
"5 c #3F3F29",
"6 c #52512A",
"7 c #63622A",
"8 c #72712B",
"9 c #817F2C",
"0 c #9B992D",
"q c #A7A52E",
"w c #B2B02F",
"e c #BDBB2F",
"r c #D3D031",
"t c #DDDA32",
"y c #E6E432",
"u c #F0ED33",
/* pixels */
"                      ",
"                      ",
"                      ",
"    o,3444444444<%    ",
"   +34444444444444%   ",
"   149yuuuuuuuuuq44#  ",
"  &47uuuuuuuuuuuu04,  ",
"  :4wuuuuuuuuuuuuy43  ",
"  24tuut444444wuuu74@ ",
"  34yuut444444wuuu84$ ",
"  44uuut42  ;4wuuu84$ ",
"  <400004:  ;4wuuu84$ ",
"  #444444#  ;4wuuu84$ ",
"   #====#   ;4wuuu84$ ",
"            ;4wuuu84$ ",
"       +<44444wuuu54X ",
"       <444444wuuw4<  ",
"      O46uuuuuuut54&  ",
"      O46uuuuuuu841   ",
"      O46uuuuuuuu74-  ",
"       <444444wuur41  ",
"       +<44444wuuu74@ ",
"            ;4wuuu84$ ",
"  +<4442:.  ;4wuuu84$ ",
"  <444444:  ;4wuuu84$ ",
"  44uuut444444wuuu84$ ",
"  24tuut444444wuuu74@ ",
"  >4euuuuuuuuuuuuy54X ",
"  *47uuuuuuuuuuuuq4,  ",
"   149yuuuuuuuuuw44%  ",
"   +34444444444444&   ",
"    o,3444444444<&    ",
"                      ",
"                      "
};
