/* XPM */
static char *_[] = {
/* columns rows colors chars-per-pixel */
"22 34 27 1 ",
"  c black",
". c #020202",
"X c #040404",
"o c gray2",
"O c #070707",
"+ c #090909",
"@ c gray5",
"# c #131313",
"$ c gray9",
"% c #191919",
"& c gray11",
"* c gray12",
"= c #202020",
"- c #232323",
"; c #252525",
": c #282828",
"> c #3F3F29",
", c #52512A",
"< c #63622A",
"1 c #817F2C",
"2 c #9B992D",
"3 c #A7A52E",
"4 c #BDBB2F",
"5 c #D3D031",
"6 c #DDDA32",
"7 c #E6E432",
"8 c #F0ED33",
/* pixels */
"                      ",
"                      ",
"                      ",
"   +*:::::::::::::-%. ",
"  +:::::::::::::::::% ",
"  #:288888888888886:- ",
"  #:288888888888886:- ",
"  #:288888888888886:- ",
"  #:2888,::::::5885:= ",
"  #:2888,:::::<8883:$ ",
"  #:2888,:o #:28881:@ ",
"  #:2888,:o *:4887>:X ",
"  +::::::* X:>8884:&  ",
"   +*:::*O @:18882:#  ",
"           %:3888<:+  ",
"           -:6887:;   ",
"          +:<8884:&   ",
"          #:28882:#   ",
"          *:4888<:+   ",
"         X:>8885:=    ",
"         @:18883:$    ",
"         %:38881:@    ",
"         -:6888>:X    ",
"        +:<8885:=     ",
"        #:28883:$     ",
"        *:48881:@     ",
"       X:>8887>:X     ",
"       @:18884:&      ",
"       &:38882:#      ",
"       ;:7888<:+      ",
"       &::::::=       ",
"       X&;:::*O       ",
"                      ",
"                      "
};
